<?xml version="1.0" encoding="UTF-8"?>
<svg width="15px" height="18px" viewBox="0 0 15 18" version="1.1" xmlns="http://www.w3.org/2000/svg" xmlns:xlink="http://www.w3.org/1999/xlink">
    <!-- Generator: Sketch 63 (92445) - https://sketch.com -->
    <title>公证发布</title>
    <desc>Created with Sketch.</desc>
    <g id="账号管理" stroke="none" stroke-width="1" fill="none" fill-rule="evenodd">
        <g id="标识" transform="translate(-151.000000, -60.000000)" fill-rule="nonzero">
            <g id="公证发布" transform="translate(151.000000, 60.000000)">
                <path d="M7.90125,0.85125 C7.65130196,0.716300049 7.35019804,0.716300049 7.10025,0.85125 C6.0585,1.40625 3.21525,2.83275 1.284,2.901 C0.902024705,2.92162805 0.602221132,3.23622456 0.6,3.61875 L0.6,11.9535 C0.6,11.9535 0.624,14.4 3.3435,16.263 C3.345,16.263 4.29075,16.998 6.90825,17.90025 C7.29075,18.033 7.71075,18.033 8.09325,17.90025 C10.71075,16.99875 11.6565,16.263 11.6565,16.263 C14.3775,14.4 14.4,11.9535 14.4,11.9535 L14.4,3.61875 C14.3985718,3.23647196 14.099222,2.92166115 13.7175,2.901 C11.78775,2.83275 8.943,1.4085 7.90125,0.85125 Z" id="路径" fill="#007AFF"></path>
                <path d="M4.62199219,7.61429688 L4.62199219,6.34429687 L10.9619922,6.34429687 L10.9619922,7.57429687 L12.0219922,7.57429687 L12.0219922,5.37429687 L8.34199219,5.37429687 C8.25532552,5.00763021 8.15532552,4.66429687 8.04199219,4.34429687 L8.04199219,4.34429687 L6.93199219,4.52429687 C7.05199219,4.76429688 7.17532552,5.04763021 7.30199219,5.37429687 L7.30199219,5.37429687 L3.56199219,5.37429687 L3.56199219,7.61429688 L4.62199219,7.61429688 Z M7.05199219,8.29429688 L7.58199219,7.47429688 C7.00865885,7.10096354 6.35532552,6.78096354 5.62199219,6.51429687 L5.62199219,6.51429687 L5.12199219,7.24429687 C5.79532552,7.49763021 6.43865885,7.84763021 7.05199219,8.29429688 L7.05199219,8.29429688 Z M11.5319922,13.7842969 L12.1219922,12.8742969 C11.0486589,12.2542969 9.83199219,11.6976302 8.47199219,11.2042969 L8.47199219,11.2042969 L8.64199219,10.9342969 L12.1719922,10.9342969 L12.1719922,9.96429688 L9.09199219,9.96429688 C9.29865885,9.34429687 9.42199219,8.67096354 9.46199219,7.94429688 L9.46199219,7.94429688 L9.46199219,6.66429687 L8.41199219,6.66429687 L8.41199219,7.94429688 C8.35865885,8.70429688 8.20532552,9.37763021 7.95199219,9.96429688 L7.95199219,9.96429688 L3.38199219,9.96429688 L3.38199219,10.9342969 L7.37199219,10.9342969 C7.34532552,10.9609635 7.32532552,10.9876302 7.31199219,11.0142969 C6.65199219,11.7409635 5.38199219,12.3509635 3.50199219,12.8442969 L3.50199219,12.8442969 L4.07199219,13.7342969 C5.73865885,13.3076302 6.99532552,12.7109635 7.84199219,11.9442969 C9.11532552,12.4176302 10.3453255,13.0309635 11.5319922,13.7842969 L11.5319922,13.7842969 Z M6.51199219,9.82429687 L7.05199219,9.00429687 C6.45865885,8.62429688 5.79199219,8.29096354 5.05199219,8.00429687 L5.05199219,8.00429687 L4.53199219,8.76429687 C5.22532552,9.03096354 5.88532552,9.38429688 6.51199219,9.82429687 L6.51199219,9.82429687 Z" id="实" fill="#FFFFFF"></path>
            </g>
        </g>
    </g>
</svg>