<?xml version="1.0" encoding="UTF-8"?>
<svg width="15px" height="18px" viewBox="0 0 15 18" version="1.1" xmlns="http://www.w3.org/2000/svg" xmlns:xlink="http://www.w3.org/1999/xlink">
    <!-- Generator: Sketch 63 (92445) - https://sketch.com -->
    <title>公证发布</title>
    <desc>Created with Sketch.</desc>
    <g id="账号管理" stroke="none" stroke-width="1" fill="none" fill-rule="evenodd">
        <g id="标识" transform="translate(-813.000000, -60.000000)" fill-rule="nonzero">
            <g id="编组-2" transform="translate(596.000000, 20.000000)">
                <g id="公证发布" transform="translate(217.000000, 40.000000)">
                    <path d="M7.90125,0.85125 C7.65130196,0.716300049 7.35019804,0.716300049 7.10025,0.85125 C6.0585,1.40625 3.21525,2.83275 1.284,2.901 C0.902024705,2.92162805 0.602221132,3.23622456 0.6,3.61875 L0.6,11.9535 C0.6,11.9535 0.624,14.4 3.3435,16.263 C3.345,16.263 4.29075,16.998 6.90825,17.90025 C7.29075,18.033 7.71075,18.033 8.09325,17.90025 C10.71075,16.99875 11.6565,16.263 11.6565,16.263 C14.3775,14.4 14.4,11.9535 14.4,11.9535 L14.4,3.61875 C14.3985718,3.23647196 14.099222,2.92166115 13.7175,2.901 C11.78775,2.83275 8.943,1.4085 7.90125,0.85125 Z" id="路径" fill="#999999"></path>
                    <path d="M10.2819922,13.6042969 C11.1286589,13.6042969 11.5519922,13.2142969 11.5519922,12.4342969 L11.5519922,12.4342969 L11.5519922,7.35429687 L12.3219922,7.35429687 L12.3219922,6.34429687 L11.5519922,6.34429687 L11.5519922,4.42429687 L10.5319922,4.42429687 L10.5319922,6.34429687 L7.91199219,6.34429687 L7.91199219,7.35429687 L10.5319922,7.35429687 L10.5319922,12.1742969 C10.5319922,12.4942969 10.3286589,12.6542969 9.92199219,12.6542969 C9.59532552,12.6542969 9.24532552,12.6342969 8.87199219,12.5942969 L8.87199219,12.5942969 L9.11199219,13.6042969 L10.2819922,13.6042969 Z M7.90199219,8.61429688 L7.90199219,7.61429688 L6.15199219,7.61429688 L6.15199219,6.65429688 L7.71199219,6.65429688 L7.71199219,5.67429687 L6.15199219,5.67429687 L6.15199219,4.56429688 L5.11199219,4.56429688 L5.11199219,5.67429687 L3.53199219,5.67429687 L3.53199219,6.65429688 L5.11199219,6.65429688 L5.11199219,7.61429688 L3.30199219,7.61429688 L3.30199219,8.61429688 L7.90199219,8.61429688 Z M9.32199219,11.0042969 L10.1719922,10.5642969 C9.84532552,9.75096354 9.45199219,8.97763021 8.99199219,8.24429687 L8.99199219,8.24429687 L8.13199219,8.63429688 C8.55199219,9.29429688 8.94865885,10.0842969 9.32199219,11.0042969 L9.32199219,11.0042969 Z M3.46199219,13.4042969 C5.12199219,13.2442969 6.61532552,13.0442969 7.94199219,12.8042969 L7.94199219,12.8042969 L7.94199219,11.7342969 C7.40199219,11.8342969 6.80532552,11.9242969 6.15199219,12.0042969 L6.15199219,12.0042969 L6.15199219,10.7942969 L7.76199219,10.7942969 L7.76199219,9.81429688 L6.15199219,9.81429688 L6.15199219,8.82429687 L5.11199219,8.82429687 L5.11199219,9.81429688 L3.46199219,9.81429688 L3.46199219,10.7942969 L5.11199219,10.7942969 L5.11199219,12.1342969 C4.67199219,12.1809635 4.07199219,12.2342969 3.31199219,12.2942969 L3.31199219,12.2942969 L3.46199219,13.4042969 Z" id="封" fill="#FFFFFF"></path>
                </g>
            </g>
        </g>
    </g>
</svg>