<?xml version="1.0" encoding="UTF-8"?>
<svg width="14px" height="14px" viewBox="0 0 14 14" version="1.1" xmlns="http://www.w3.org/2000/svg" xmlns:xlink="http://www.w3.org/1999/xlink">
    <!-- Generator: Sketch 63 (92445) - https://sketch.com -->
    <title>取消封号</title>
    <desc>Created with Sketch.</desc>
    <g id="商品溯源数据准备" stroke="none" stroke-width="1" fill="none" fill-rule="evenodd">
        <g id="商品溯源数据准备详情" transform="translate(-901.000000, -1843.000000)">
            <g id="取消封号" transform="translate(900.000000, 1842.000000)">
                <rect id="矩形" fill="#000000" fill-rule="nonzero" opacity="0" x="0" y="0" width="16" height="16"></rect>
                <path d="M8,1 C11.8659932,1 15,4.13400675 15,8 C15,11.8659932 11.8659932,15 8,15 C4.13400675,15 1,11.8659932 1,8 C1,4.13400675 4.13400675,1 8,1 Z M8,2 C4.6862915,2 2,4.6862915 2,8 C2,11.3137085 4.6862915,14 8,14 C11.3137085,14 14,11.3137085 14,8 C14,4.6862915 11.3137085,2 8,2 Z" id="椭圆形" fill="#007AFF" fill-rule="nonzero"></path>
                <path d="M6.7,10 L4,12.625" id="直线-3" stroke="#007AFF" stroke-linecap="square"></path>
                <path d="M11.7,4 L9,6.625" id="直线-3" stroke="#007AFF" stroke-linecap="square"></path>
                <rect id="矩形" fill="#007AFF" x="4" y="8" width="8" height="1"></rect>
            </g>
        </g>
    </g>
</svg>