<?xml version="1.0" encoding="UTF-8"?>
<svg width="15px" height="18px" viewBox="0 0 15 18" version="1.1" xmlns="http://www.w3.org/2000/svg" xmlns:xlink="http://www.w3.org/1999/xlink">
    <!-- Generator: Sketch 63 (92445) - https://sketch.com -->
    <title>公证发布</title>
    <desc>Created with Sketch.</desc>
    <g id="账号管理" stroke="none" stroke-width="1" fill="none" fill-rule="evenodd">
        <g id="标识" transform="translate(-55.000000, -60.000000)" fill-rule="nonzero">
            <g id="公证发布" transform="translate(55.000000, 60.000000)">
                <path d="M7.90125,0.85125 C7.65130196,0.716300049 7.35019804,0.716300049 7.10025,0.85125 C6.0585,1.40625 3.21525,2.83275 1.284,2.901 C0.902024705,2.92162805 0.602221132,3.23622456 0.6,3.61875 L0.6,11.9535 C0.6,11.9535 0.624,14.4 3.3435,16.263 C3.345,16.263 4.29075,16.998 6.90825,17.90025 C7.29075,18.033 7.71075,18.033 8.09325,17.90025 C10.71075,16.99875 11.6565,16.263 11.6565,16.263 C14.3775,14.4 14.4,11.9535 14.4,11.9535 L14.4,3.61875 C14.3985718,3.23647196 14.099222,2.92166115 13.7175,2.901 C11.78775,2.83275 8.943,1.4085 7.90125,0.85125 Z" id="路径" fill="#FD6B46"></path>
                <path d="M3.94199219,8.43429687 C4.40865885,8.02763021 4.82199219,7.53429687 5.18199219,6.95429688 L5.18199219,6.95429688 L5.18199219,8.42429687 L6.20199219,8.42429687 L6.20199219,6.92429687 C6.41532552,7.16429687 6.67199219,7.46096354 6.97199219,7.81429688 L6.97199219,7.81429688 L7.52199219,6.98429688 C7.08199219,6.68429687 6.64199219,6.41429687 6.20199219,6.17429687 L6.20199219,6.17429687 L6.20199219,6.16429687 L7.60199219,6.16429687 L7.60199219,5.22429688 L6.20199219,5.22429688 L6.20199219,4.43429687 L5.18199219,4.43429687 L5.18199219,5.22429688 L3.55199219,5.22429688 L3.55199219,6.16429687 L4.96199219,6.16429687 C4.55532552,6.70429687 4.02532552,7.17429687 3.37199219,7.57429687 L3.37199219,7.57429687 L3.94199219,8.43429687 Z M8.09199219,8.47429688 C8.55865885,8.00763021 8.97199219,7.43429687 9.33199219,6.75429687 L9.33199219,6.75429687 L9.33199219,8.43429687 L10.3519922,8.43429687 L10.3519922,6.72429688 C10.6586589,7.33096354 11.0753255,7.88763021 11.6019922,8.39429688 L11.6019922,8.39429688 L12.2719922,7.55429687 C11.5719922,7.12763021 11.0553255,6.66429687 10.7219922,6.16429687 L10.7219922,6.16429687 L12.0319922,6.16429687 L12.0319922,5.22429688 L10.3519922,5.22429688 L10.3519922,4.43429687 L9.33199219,4.43429687 L9.33199219,5.22429688 L7.98199219,5.22429688 L7.98199219,6.16429687 L8.97199219,6.16429687 C8.58532552,6.72429687 8.09865885,7.20429687 7.51199219,7.60429687 L7.51199219,7.60429687 L8.09199219,8.47429688 Z M11.2519922,9.58429687 L11.2519922,8.68429687 L4.42199219,8.68429687 L4.42199219,9.58429687 L11.2519922,9.58429687 Z M7.44199219,13.6942969 C8.12199219,13.6942969 8.46199219,13.3909635 8.46199219,12.7842969 L8.46199219,12.7842969 L8.46199219,11.0642969 L12.0419922,11.0642969 L12.0419922,10.1242969 L3.54199219,10.1242969 L3.54199219,11.0642969 L7.41199219,11.0642969 L7.41199219,12.5342969 C7.41199219,12.7209635 7.31199219,12.8142969 7.11199219,12.8142969 C6.85865885,12.8142969 6.59199219,12.7942969 6.31199219,12.7542969 L6.31199219,12.7542969 L6.52199219,13.6942969 L7.44199219,13.6942969 Z M4.12199219,13.7042969 C4.90199219,13.2042969 5.55199219,12.6242969 6.07199219,11.9642969 L6.07199219,11.9642969 L5.35199219,11.3442969 C4.85865885,11.9176302 4.23532552,12.4276302 3.48199219,12.8742969 L3.48199219,12.8742969 L4.12199219,13.7042969 Z M11.5019922,13.7542969 L12.0819922,12.8542969 C11.4553255,12.2609635 10.7653255,11.7609635 10.0119922,11.3542969 L10.0119922,11.3542969 L9.48199219,12.1342969 C10.1753255,12.5342969 10.8486589,13.0742969 11.5019922,13.7542969 L11.5019922,13.7542969 Z" id="禁" fill="#FFFFFF"></path>
            </g>
        </g>
    </g>
</svg>