<?xml version="1.0" encoding="UTF-8"?>
<svg width="12px" height="16px" viewBox="0 0 12 16" version="1.1" xmlns="http://www.w3.org/2000/svg" xmlns:xlink="http://www.w3.org/1999/xlink">
    <!-- Generator: Sketch 63 (92445) - https://sketch.com -->
    <title>形状结合</title>
    <desc>Created with Sketch.</desc>
    <g id="账号管理" stroke="none" stroke-width="1" fill="none" fill-rule="evenodd">
        <g id="标识" transform="translate(-708.000000, -61.000000)" fill="#FD6B46">
            <g id="编组-2" transform="translate(596.000000, 20.000000)">
                <path d="M118,41 C121.313708,41 124,43.6862915 124,47 C124,49.6121813 122.330712,51.8344797 120.000686,52.6583461 L120,55 L123,55 C123.552285,55 124,55.4477153 124,56 C124,56.5522847 123.552285,57 123,57 L113,57 C112.447715,57 112,56.5522847 112,56 C112,55.4477153 112.447715,55 113,55 L116,55 L116.000322,52.6587023 C113.669769,51.8351204 112,49.6125579 112,47 C112,43.6862915 114.686292,41 118,41 Z M116.937932,44.205956 L116.074651,44.205956 L116.074651,49.9012685 L116.937932,49.9012685 L116.937932,47.4129872 L119.191839,47.4129872 L119.191839,49.9012685 L120.05512,49.9012685 L120.05512,44.205956 L119.191839,44.205956 L119.191839,46.6473622 L116.937932,46.6473622 L116.937932,44.205956 Z" id="形状结合"></path>
            </g>
        </g>
    </g>
</svg>