<?xml version="1.0" encoding="UTF-8"?>
<svg width="15px" height="15px" viewBox="0 0 15 15" version="1.1" xmlns="http://www.w3.org/2000/svg" xmlns:xlink="http://www.w3.org/1999/xlink">
    <!-- Generator: Sketch 63 (92445) - https://sketch.com -->
    <title>星星</title>
    <desc>Created with Sketch.</desc>
    <g id="账号管理" stroke="none" stroke-width="1" fill="none" fill-rule="evenodd">
        <g id="标识" transform="translate(-913.000000, -63.000000)" fill-rule="nonzero">
            <g id="编组-2" transform="translate(596.000000, 20.000000)">
                <g id="星星" transform="translate(317.000000, 43.000000)">
                    <rect id="矩形" fill="#000000" opacity="0" x="0" y="0" width="15" height="15"></rect>
                    <path d="M3,0 L12,0 C14,0 15,1 15,3 L15,12 C15,14 14,15 12,15 L3,15 C1,15 0,14 0,12 L0,3 C0,1 1,0 3,0 Z" id="路径" fill="#FFC300"></path>
                    <path d="M12,0 L7.82625,0 C4.18816545,0.887204771 1.24426334,3.55180999 8.32667268e-16,7.08375 L8.32667268e-16,12 C8.32667268e-16,13.6568542 1.34314575,15 3,15 L12,15 C13.6568542,15 15,13.6568542 15,12 L15,3 C15,1.34314575 13.6568542,0 12,0 Z" id="路径" fill="#FFD036"></path>
                    <path d="M12,0 L11.94375,0 C8.74628975,0.691417742 6.01881491,2.76257432 4.49420558,5.65694419 C2.96959625,8.55131407 2.80421491,11.9720534 4.0425,15 L12,15 C13.6568542,15 15,13.6568542 15,12 L15,3 C15,1.34314575 13.6568542,0 12,0 Z" id="路径" fill="#FFE07A"></path>
                    <path d="M7.28249151,10.56375 C7.28060426,12.0906978 7.59602151,13.6013804 8.20875,15 L12,15 C13.6568542,15 15,13.6568542 15,12 L15,3 C14.99991,2.01023899 14.5116428,1.08421497 13.695,0.525 C9.78456279,2.33651498 7.28211007,6.2540974 7.28249151,10.56375 L7.28249151,10.56375 Z" id="路径" fill="#FFD036"></path>
                    <path d="M7.70625,2.05125 L9.14625,4.96875 L12.375,5.4375 C12.4551098,5.4534393 12.5206423,5.51088446 12.5469353,5.58821699 C12.5732284,5.66554952 12.556292,5.75103407 12.5025,5.8125 L10.1625,8.1 L10.71375,11.31 C10.7274401,11.3950869 10.6921467,11.4806466 10.6224489,11.531336 C10.5527511,11.5820253 10.4604795,11.5892401 10.38375,11.55 L7.50375,10.05 L4.62375,11.55 C4.54702052,11.5892401 4.45474895,11.5820253 4.38505112,11.531336 C4.31535329,11.4806466 4.28005988,11.3950869 4.29375,11.31 L4.8375,8.1 L2.505,5.8275 C2.45120796,5.76603407 2.43427162,5.68054952 2.46056468,5.60321699 C2.48685773,5.52588446 2.55239018,5.4684393 2.6325,5.4525 L5.85375,4.98375 L7.29375,2.06625 C7.32883329,1.98542503 7.40721951,1.93193494 7.49527211,1.92873303 C7.58332471,1.92553112 7.66538895,1.97318664 7.70625,2.05125 L7.70625,2.05125 Z" id="路径" fill="#FFF5CC"></path>
                    <path d="M9.75,6 C9.89733409,5.70980143 10.022686,5.40895693 10.125,5.1 L9.165,4.96125 L7.70625,2.05125 C7.66741273,1.97400017 7.58833812,1.92524932 7.501875,1.92524932 C7.41541188,1.92524932 7.33633727,1.97400017 7.2975,2.05125 L5.8575,4.96875 L2.625,5.4375 C2.54489018,5.4534393 2.47935773,5.51088446 2.45306468,5.58821699 C2.42677162,5.66554952 2.44370796,5.75103407 2.4975,5.8125 L4.8375,8.1 L4.61625,9.375 C6.81921043,9.28361616 8.79272037,7.98620275 9.75,6 Z" id="路径" fill="#FFFFFF"></path>
                </g>
            </g>
        </g>
    </g>
</svg>