<?xml version="1.0" encoding="UTF-8"?>
<svg width="18px" height="18px" viewBox="0 0 18 18" version="1.1" xmlns="http://www.w3.org/2000/svg" xmlns:xlink="http://www.w3.org/1999/xlink">
    <!-- Generator: Sketch 63 (92445) - https://sketch.com -->
    <title>禁止</title>
    <desc>Created with Sketch.</desc>
    <g id="账号管理" stroke="none" stroke-width="1" fill="none" fill-rule="evenodd">
        <g id="标识" transform="translate(-1104.000000, -60.000000)" fill-rule="nonzero">
            <g id="禁止" transform="translate(1104.000000, 60.000000)">
                <rect id="矩形" fill="#000000" opacity="0" x="0" y="0" width="18" height="18"></rect>
                <path d="M9.0004979,0.75 C4.44442354,0.75 0.75,4.444265 0.75,8.99843998 C0.75,13.555381 4.44442354,17.25 9.0004979,17.25 C13.5569927,17.25 17.25,13.555381 17.25,8.99843998 C17.25,4.444265 13.5570148,0.75 9.0004979,0.75 Z M12.999823,11.9032978 L11.9042895,12.9991481 L9.00034281,10.0957653 L6.09644721,12.9991481 L5.00064109,11.9032978 L7.90480938,8.99969348 L4.99982296,6.09499832 L6.09617449,4.99914807 L9.00034279,7.90384323 L11.9050565,4.99969348 L12.999823,6.0963107 L10.0959274,8.99969348 L12.999823,11.9032978 Z" id="形状" fill="#999999"></path>
            </g>
        </g>
    </g>
</svg>