<?xml version="1.0" encoding="UTF-8"?>
<svg width="16px" height="16px" viewBox="0 0 16 16" version="1.1" xmlns="http://www.w3.org/2000/svg" xmlns:xlink="http://www.w3.org/1999/xlink">
    <!-- Generator: Sketch 63 (92445) - https://sketch.com -->
    <title>编组</title>
    <desc>Created with Sketch.</desc>
    <g id="账号管理" stroke="none" stroke-width="1" fill="none" fill-rule="evenodd">
        <g id="标识" transform="translate(-448.000000, -61.000000)">
            <g id="编组" transform="translate(447.000000, 59.000000)">
                <path d="M10.7888544,3.57770876 L16.5527864,15.1055728 C17.0467649,16.0935298 16.6463162,17.2948759 15.6583592,17.7888544 C15.3806483,17.9277098 15.0744222,18 14.763932,18 L3.23606798,18 C2.13149848,18 1.23606798,17.1045695 1.23606798,16 C1.23606798,15.6895098 1.30835816,15.3832837 1.4472136,15.1055728 L7.21114562,3.57770876 C7.70512412,2.58975177 8.9064702,2.18930308 9.89442719,2.68328157 C10.281482,2.87680898 10.595327,3.19065396 10.7888544,3.57770876 Z" id="三角形" fill="#FF2700"></path>
                <g id="感叹号" transform="translate(4.000000, 7.000000)" fill-rule="nonzero">
                    <rect id="矩形" fill="#000000" opacity="0" x="0" y="0" width="10" height="10"></rect>
                    <path d="M5.99902439,5.90146342 L5.99902439,1.62926829 C5.99902439,1.07804878 5.55121951,0.629268291 5,0.629268291 C4.44780488,0.629268291 4,1.07707317 4,1.62926829 L4,5.90146342 C4,6.45365854 4.44780488,6.90146342 5,6.90146342 C5.55121951,6.90048781 5.99902439,6.45268293 5.99902439,5.90146342 Z M5.00097561,9.37073171 C5.55219512,9.37073171 6,8.92292683 6,8.37170731 C6,7.8195122 5.55219512,7.37170731 5.00097561,7.37170731 C4.44878049,7.37170731 4.00195122,7.8195122 4.00195122,8.37170731 C4.00195122,8.92390243 4.44878049,9.37073171 5.00097561,9.37073171 Z" id="形状" fill="#FFFFFF"></path>
                </g>
            </g>
        </g>
    </g>
</svg>