<?xml version="1.0" encoding="UTF-8"?>
<svg width="18px" height="16px" viewBox="0 0 18 16" version="1.1" xmlns="http://www.w3.org/2000/svg" xmlns:xlink="http://www.w3.org/1999/xlink">
    <!-- Generator: Sketch 63 (92445) - https://sketch.com -->
    <title>推荐</title>
    <desc>Created with Sketch.</desc>
    <g id="账号管理" stroke="none" stroke-width="1" fill="none" fill-rule="evenodd">
        <g id="标识" transform="translate(-1024.000000, -62.000000)" fill-rule="nonzero">
            <g id="编组-2" transform="translate(596.000000, 20.000000)">
                <g id="推荐" transform="translate(427.000000, 40.000000)">
                    <rect id="矩形" fill="#000000" opacity="0" x="0" y="0" width="20" height="20"></rect>
                    <path d="M11.6494141,9.0296875 C12.6734375,9.0296875 13.6726563,9.02421875 14.6716797,9.03398437 C14.8900391,9.03613281 15.1171875,9.06386719 15.3240234,9.13046875 C16.0173828,9.35410156 16.4787109,10.1537109 16.3236328,10.8847656 C15.9552734,12.6216797 15.5615234,14.353125 15.1960937,16.090625 C15.0943359,16.5744141 14.9607422,17.0208984 14.5388672,17.3259766 C14.3068359,17.49375 14.0660156,17.6261719 13.7654297,17.6259768 C11.1091797,17.6236328 8.45273438,17.625 5.79648438,17.625 C5.75898437,17.625 5.72148438,17.6199219 5.65625,17.6150391 C5.65136719,17.5333984 5.6421875,17.4535156 5.6421875,17.3736328 C5.64492187,14.8242187 5.65,12.2748047 5.64882812,9.72539062 C5.64882812,9.55722656 5.69042969,9.49609375 5.86855469,9.4671875 C7.34492187,9.22832031 8.57324219,7.87363281 8.68769531,6.38085937 C8.71914063,5.97207031 8.721875,5.56269531 8.89628906,5.17207031 C9.34980469,4.15683594 10.5802734,4.10859375 11.2378906,4.72109375 C11.5457031,5.0078125 11.7150391,5.36425781 11.7878906,5.77558594 C11.9742187,6.82734375 11.9503906,7.86953125 11.6632813,8.90214844 C11.6552734,8.93046875 11.6564453,8.96132812 11.6494141,9.0296875 L11.6494141,9.0296875 Z M4.86015625,10.2296875 C4.85878906,9.796875 4.62792969,9.54628906 4.20625,9.53769531 C3.64960938,9.52636719 3.0921875,9.52539062 2.53554688,9.53847656 C2.13535156,9.54804687 1.89882813,9.7953125 1.89804688,10.1964844 C1.89414063,12.4548828 1.89394531,14.7132812 1.89824219,16.9716797 C1.89902344,17.3847656 2.14746094,17.6212891 2.55976563,17.6244141 C3.07851563,17.6283203 3.59746094,17.6263672 4.11621094,17.6253906 C4.63964844,17.6244141 4.8609375,17.3996094 4.86132813,16.8673828 C4.86210938,15.76875 4.86152344,14.6701172 4.86152344,13.5712891 C4.86132813,12.4576172 4.86347656,11.3435547 4.86015625,10.2296875 L4.86015625,10.2296875 Z M13.9269531,7.71308594 C14.3474609,7.54121094 14.7658203,7.36367187 15.1902344,7.20253906 C15.2787109,7.16894531 15.4015625,7.16679687 15.4892578,7.20019531 C15.9134766,7.36191406 16.33125,7.54101562 16.7513672,7.71367187 C17.0802734,7.84882812 17.2128906,7.75136719 17.1839844,7.39980469 C17.1470703,6.95351562 17.1044922,6.50742187 17.0839844,6.06035156 C17.0791016,5.95332031 17.1265625,5.82226562 17.1941406,5.7375 C17.4773438,5.38183594 17.778125,5.04042969 18.0705078,4.6921875 C18.2666016,4.45839844 18.2181641,4.29609375 17.9259766,4.22304687 C17.4785156,4.11113281 17.0275391,4.01367187 16.5824219,3.89335937 C16.4845703,3.86699219 16.378125,3.7890625 16.3224609,3.70429687 C16.0652344,3.31328125 15.8261719,2.91054687 15.5775391,2.5140625 C15.4236328,2.26855469 15.2529297,2.26679687 15.1019531,2.51015625 C14.8585938,2.90214844 14.6146484,3.29394531 14.3822266,3.6921875 C14.3105469,3.81503906 14.2199219,3.87558594 14.0859375,3.90605469 C13.6361328,4.0078125 13.1876953,4.11523437 12.7400391,4.22636719 C12.4513672,4.29804687 12.4046875,4.45175781 12.596875,4.67851562 C12.8910156,5.02539062 13.1800781,5.37695312 13.4855469,5.71347656 C13.5992188,5.83867187 13.6205078,5.96269531 13.6048828,6.11914062 C13.5619141,6.55117187 13.5300781,6.984375 13.4939453,7.41699219 C13.4787109,7.76054687 13.6027344,7.84550781 13.9269531,7.71308594 Z" id="形状" fill="#007AFF"></path>
                </g>
            </g>
        </g>
    </g>
</svg>