<?xml version="1.0" encoding="UTF-8"?>
<svg width="1199px" height="11px" viewBox="0 0 1199 11" version="1.1" xmlns="http://www.w3.org/2000/svg" xmlns:xlink="http://www.w3.org/1999/xlink">
    <!-- Generator: Sketch 63 (92445) - https://sketch.com -->
    <title>编组 15</title>
    <desc>Created with Sketch.</desc>
    <g id="侵权与举报" stroke="none" stroke-width="1" fill="none" fill-rule="evenodd">
        <g id="监管机构处理" transform="translate(-121.000000, -436.000000)">
            <g id="举报信息填写" transform="translate(120.000000, 435.000000)">
                <g id="编组-15" transform="translate(1.000000, 1.000000)">
                    <polygon id="矩形" fill="#708DD7" points="-2.27526331e-13 0.01171875 30 0.01171875 20 10.0117188 -2.27526331e-13 10.0117188"></polygon>
                    <polygon id="矩形" fill="#FF7089" points="62 0.01171875 96 0.01171875 86 10.0117188 52 10.0117188"></polygon>
                    <polygon id="矩形" fill="#708DD7" points="128 0.01171875 162 0.01171875 152 10.0117188 118 10.0117188"></polygon>
                    <polygon id="矩形" fill="#FF7089" points="194 0.01171875 228 0.01171875 218 10.0117188 184 10.0117188"></polygon>
                    <polygon id="矩形" fill="#708DD7" points="256 0.01171875 290 0.01171875 280 10.0117188 246 10.0117188"></polygon>
                    <polygon id="矩形" fill="#FF7089" points="322 0.01171875 356 0.01171875 346 10.0117188 312 10.0117188"></polygon>
                    <polygon id="矩形" fill="#708DD7" points="388 0.01171875 422 0.01171875 412 10.0117188 378 10.0117188"></polygon>
                    <polygon id="矩形" fill="#FF7089" points="454 0.01171875 488 0.01171875 478 10.0117188 444 10.0117188"></polygon>
                    <polygon id="矩形" fill="#708DD7" points="520 0.01171875 554 0.01171875 544 10.0117188 510 10.0117188"></polygon>
                    <polygon id="矩形" fill="#FF7089" points="586 0.01171875 620 0.01171875 610 10.0117188 576 10.0117188"></polygon>
                    <polygon id="矩形" fill="#708DD7" points="652 0.01171875 686 0.01171875 676 10.0117188 642 10.0117188"></polygon>
                    <polygon id="矩形" fill="#FF7089" points="718 0.01171875 752 0.01171875 742 10.0117188 708 10.0117188"></polygon>
                    <polygon id="矩形" fill="#708DD7" points="780 0.01171875 814 0.01171875 804 10.0117188 770 10.0117188"></polygon>
                    <polygon id="矩形" fill="#FF7089" points="846 0.01171875 880 0.01171875 870 10.0117188 836 10.0117188"></polygon>
                    <polygon id="矩形" fill="#708DD7" points="912 0.01171875 946 0.01171875 936 10.0117188 902 10.0117188"></polygon>
                    <polygon id="矩形" fill="#FF7089" points="978 0.01171875 1012 0.01171875 1002 10.0117188 968 10.0117188"></polygon>
                    <polygon id="矩形" fill="#708DD7" points="1044 0.01171875 1078 0.01171875 1068 10.0117188 1034 10.0117188"></polygon>
                    <polygon id="矩形" fill="#FF7089" points="1110 0.01171875 1144 0.01171875 1134 10.0117188 1100 10.0117188"></polygon>
                    <polygon id="矩形" fill="#708DD7" points="1176.43689 0 1198.43689 0 1198.43689 10 1166.43689 10"></polygon>
                </g>
            </g>
        </g>
    </g>
</svg>