<?xml version="1.0" encoding="UTF-8"?>
<svg width="194px" height="194px" viewBox="0 0 194 194" version="1.1" xmlns="http://www.w3.org/2000/svg" xmlns:xlink="http://www.w3.org/1999/xlink">
    <!-- Generator: Sketch 63 (92445) - https://sketch.com -->
    <title>空logo图</title>
    <desc>Created with Sketch.</desc>
    <g id="空logo图" stroke="none" stroke-width="1" fill="none" fill-rule="evenodd">
        <rect id="矩形" fill="#F9F9F9" x="0" y="0" width="194" height="194"></rect>
        <path d="M0,111.5 C12.3206239,88.8109919 24.8049989,75.3109919 37.453125,71 C56.4253141,64.5335121 58.6852293,103.262217 87.9648437,96.9296875 C117.244458,90.5971585 116.354935,28.8294807 145.949219,33.5117187 C165.678741,36.6332108 181.695668,58.4626379 194,99 L194,194 L0,194 L0,111.5 Z" id="路径-2" fill="#EFEFEF"></path>
        <path d="M45.68,119 L45.68,75.32 L39.32,75.32 L39.32,119 L45.68,119 Z M67.88,119.84 C72.56,119.84 76.34,118.22 79.22,115.1 C81.98,112.1 83.36,108.2 83.36,103.52 C83.36,98.78 81.92,94.88 79.16,91.82 C76.34,88.7 72.56,87.14 67.88,87.14 C63.2,87.14 59.42,88.7 56.6,91.82 C53.78,94.88 52.4,98.78 52.4,103.52 C52.4,108.2 53.78,112.1 56.54,115.1 C59.42,118.22 63.2,119.84 67.88,119.84 Z M67.88,114.62 C64.94,114.62 62.66,113.42 61.04,111.14 C59.6,109.16 58.94,106.64 58.94,103.52 C58.94,100.4 59.6,97.82 61.04,95.84 C62.66,93.5 64.94,92.36 67.88,92.36 C70.82,92.36 73.1,93.5 74.78,95.84 C76.22,97.82 76.94,100.4 76.94,103.52 C76.94,106.58 76.22,109.1 74.78,111.14 C73.1,113.42 70.82,114.62 67.88,114.62 Z M103.7,131.72 C113.3,131.72 118.16,126.8 118.16,116.96 L118.16,87.98 L111.8,87.98 L111.8,92.12 C109.52,88.76 106.4,87.14 102.32,87.14 C98.12,87.14 94.7,88.58 92.12,91.52 C89.48,94.4 88.22,98.12 88.22,102.8 C88.22,107.48 89.48,111.2 92.12,114.02 C94.7,116.84 98.12,118.28 102.32,118.28 C106.4,118.28 109.52,116.54 111.8,113.12 L111.8,117.92 C111.8,123.74 109.1,126.68 103.7,126.68 C101.18,126.68 99.32,126.26 98.18,125.54 C96.98,124.76 96.26,123.44 95.9,121.64 L89.54,121.64 C90.14,125.06 91.52,127.58 93.8,129.26 C96.08,130.88 99.38,131.72 103.7,131.72 Z M103.28,113.06 C100.16,113.06 97.94,111.98 96.56,109.94 C95.36,108.2 94.76,105.8 94.76,102.8 C94.76,99.5 95.48,96.92 97.04,95.12 C98.48,93.2 100.58,92.3 103.28,92.3 C105.98,92.3 108.08,93.2 109.64,95.12 C111.08,96.98 111.86,99.56 111.86,102.8 C111.86,105.98 111.08,108.5 109.64,110.36 C108.08,112.16 105.98,113.06 103.28,113.06 Z M139.64,119.84 C144.32,119.84 148.1,118.22 150.98,115.1 C153.74,112.1 155.12,108.2 155.12,103.52 C155.12,98.78 153.68,94.88 150.92,91.82 C148.1,88.7 144.32,87.14 139.64,87.14 C134.96,87.14 131.18,88.7 128.36,91.82 C125.54,94.88 124.16,98.78 124.16,103.52 C124.16,108.2 125.54,112.1 128.3,115.1 C131.18,118.22 134.96,119.84 139.64,119.84 Z M139.64,114.62 C136.7,114.62 134.42,113.42 132.8,111.14 C131.36,109.16 130.7,106.64 130.7,103.52 C130.7,100.4 131.36,97.82 132.8,95.84 C134.42,93.5 136.7,92.36 139.64,92.36 C142.58,92.36 144.86,93.5 146.54,95.84 C147.98,97.82 148.7,100.4 148.7,103.52 C148.7,106.58 147.98,109.1 146.54,111.14 C144.86,113.42 142.58,114.62 139.64,114.62 Z" id="logo" fill="#CDCDCD" fill-rule="nonzero"></path>
    </g>
</svg>