<?xml version="1.0" encoding="UTF-8"?>
<svg width="15px" height="16px" viewBox="0 0 15 16" version="1.1" xmlns="http://www.w3.org/2000/svg" xmlns:xlink="http://www.w3.org/1999/xlink">
    <!-- Generator: Sketch 63 (92445) - https://sketch.com -->
    <title>清理</title>
    <desc>Created with Sketch.</desc>
    <g id="账号管理" stroke="none" stroke-width="1" fill="none" fill-rule="evenodd">
        <g id="标识" transform="translate(-620.000000, -61.000000)" fill-rule="nonzero">
            <g id="编组-2" transform="translate(596.000000, 20.000000)">
                <g id="清理" transform="translate(22.000000, 39.000000)">
                    <rect id="矩形" fill="#000000" opacity="0" x="0" y="0" width="20" height="20"></rect>
                    <path d="M5.73242188,9.06054688 L14.9804688,9.06054688 C15.84375,9.06054688 16.1796875,11.1308594 16.1836069,13.4355469 C16.1875,15.7402344 15.3183594,17.8105469 14.6289063,17.8105469 L12.5175781,17.8105469 C12.4375,17.8105469 12.3828125,17.7304688 12.4121094,17.65625 C12.5117188,17.4023438 12.6796875,16.8828125 12.6054688,16.4257812 C12.5019531,15.7929688 12.2832031,15.2773438 12.2832031,15.2773438 C12.2832031,15.2773438 12.4453125,15.7441406 11.7792969,16.6191406 C11.1699219,17.4199219 10.6289063,17.7070312 10.4492188,17.7851562 C10.4121094,17.8007812 10.3730469,17.8105469 10.3320312,17.8105469 L3.59765625,17.8105469 C3.12304688,17.8105469 2.73828125,17.4160156 2.7578125,16.9355469 C2.76367188,16.7910156 2.80859375,16.6484375 2.88476563,16.5253906 L3.8359375,14.9394531 C4.52929688,13.7851562 4.89453125,12.4628906 4.89453125,11.1171875 L4.89453125,9.90234375 C4.89257812,9.4375 5.26953125,9.06054688 5.73242188,9.06054688 Z M9.90625,5.97265625 L9.90625,3.02929688 C9.90625,2.56445312 10.2832031,2.1875 10.7480469,2.1875 C11.2128906,2.1875 11.5898437,2.56445312 11.5898437,3.02929688 L11.5898437,5.97265625 L14.7304688,5.97265625 C15.1953125,5.97265625 15.5722656,6.34960937 15.5722656,6.81445312 L15.5722656,7.65625 C15.5722656,8.12109375 15.1953125,8.49804688 14.7304688,8.49804688 L6.31835938,8.49804688 C5.85351562,8.49804688 5.4765625,8.12109375 5.4765625,7.65625 L5.4765625,6.81445312 C5.4765625,6.34960937 5.85351562,5.97265625 6.31835938,5.97265625 L9.90625,5.97265625 Z" id="形状" fill="#999999"></path>
                </g>
            </g>
        </g>
    </g>
</svg>