<?xml version="1.0" encoding="UTF-8"?>
<svg width="14px" height="14px" viewBox="0 0 14 14" version="1.1" xmlns="http://www.w3.org/2000/svg" xmlns:xlink="http://www.w3.org/1999/xlink">
    <!-- Generator: Sketch 61.2 (89653) - https://sketch.com -->
    <title>应用</title>
    <desc>Created with Sketch.</desc>
    <g id="标识管理流程" stroke="none" stroke-width="1" fill="none" fill-rule="evenodd">
        <g id="标识申请" transform="translate(-494.000000, -89.000000)" fill="#333333" fill-rule="nonzero">
            <g id="外框">
                <g id="编组-21备份-4" transform="translate(155.000000, 85.000000)">
                    <g id="溯源应用及反馈" transform="translate(338.000000, 1.000000)">
                        <g id="应用" transform="translate(0.000000, 2.000000)">
                            <rect id="矩形" opacity="0" x="0" y="0" width="16" height="16"></rect>
                            <path d="M13.864,4.704 C13.864,4.6 13.808,4.496 13.712,4.448 L8.144,1.296 C8.056,1.248 7.944,1.248 7.856,1.296 L2.288,4.44 C2.192,4.496 2.136,4.592 2.136,4.696 C2.136,4.8 2.192,4.904 2.288,4.952 L7.856,8.064 C7.904,8.088 7.952,8.104 8,8.104 C8.048,8.104 8.096,8.096 8.144,8.064 L13.712,4.952 C13.808,4.904 13.864,4.808 13.864,4.704 Z M8,7.072 L3.592,4.696 L8,2.288 L12.336,4.696 L8,7.072 Z M7.256,8.912 L2.272,6.272 C2.184,6.224 2.072,6.224 1.984,6.28 C1.896,6.336 1.84,6.432 1.84,6.528 L1.84,11.52 C1.84,11.624 1.896,11.72 1.984,11.776 L6.968,14.704 C7.016,14.728 7.064,14.744 7.12,14.744 C7.168,14.744 7.224,14.728 7.264,14.704 C7.352,14.648 7.408,14.552 7.408,14.448 L7.408,9.168 C7.416,9.064 7.352,8.968 7.256,8.912 Z M6.432,13.216 L2.832,11.192 L2.832,7.584 L6.432,9.512 L6.432,13.216 Z M8.744,8.912 C8.648,8.96 8.584,9.064 8.584,9.168 L8.584,14.448 C8.584,14.552 8.64,14.648 8.728,14.704 C8.776,14.728 8.824,14.744 8.872,14.744 C8.92,14.744 8.976,14.728 9.024,14.704 L14.008,11.776 C14.096,11.72 14.152,11.624 14.152,11.52 L14.152,6.536 C14.152,6.432 14.096,6.336 14.008,6.288 C13.92,6.24 13.808,6.232 13.72,6.28 L8.744,8.912 L8.744,8.912 Z M9.568,9.512 L13.168,7.584 L13.168,11.192 L9.568,13.216 L9.568,9.512 Z" id="形状"></path>
                        </g>
                    </g>
                </g>
            </g>
        </g>
    </g>
</svg>