<?xml version="1.0" encoding="UTF-8"?>
<svg width="12px" height="15px" viewBox="0 0 12 15" version="1.1" xmlns="http://www.w3.org/2000/svg" xmlns:xlink="http://www.w3.org/1999/xlink">
    <!-- Generator: Sketch 63 (92445) - https://sketch.com -->
    <title>上升</title>
    <desc>Created with Sketch.</desc>
    <g id="标识管理" stroke="none" stroke-width="1" fill="none" fill-rule="evenodd">
        <g id="标识台账" transform="translate(-1035.000000, -289.000000)" fill="#5FDA1A" fill-rule="nonzero">
            <g id="编组" transform="translate(877.000000, 284.000000)">
                <g id="上升" transform="translate(158.000000, 5.000000)">
                    <path d="M4.95554687,4.35948438 L4.95554687,14.4493125 C4.95554687,14.7499531 5.19673437,14.9936719 5.50454687,14.9936719 L6.58229687,14.9936719 C6.8855,14.9936719 7.13129687,14.75025 7.13129687,14.4493125 L7.13129687,4.19151563 L10.3617656,7.36673438 C10.4691875,7.47390625 10.646,7.4711875 10.75675,7.3605 L11.5189531,6.59828125 C11.6296719,6.4875625 11.6326719,6.31075 11.5252031,6.2035625 L7.18173437,1.93407813 C7.16648437,1.90079688 7.14504687,1.8694375 7.1175,1.84185938 L6.28628125,1.01035938 C6.22084375,0.944921875 6.13434375,0.914046875 6.05009375,0.918140625 C5.97264062,0.91421875 5.89275,0.9425 5.83242187,1.00267188 L5.22764062,1.60784375 L0.568796875,6.0905 C0.45134375,6.20767188 0.454609375,6.40046875 0.57540625,6.52123438 L1.406625,7.35273438 C1.52773437,7.47354688 1.72045312,7.47654688 1.83735937,7.35932813 L4.95540625,4.3594375 L4.95554687,4.35948438 Z" id="路径"></path>
                </g>
            </g>
        </g>
    </g>
</svg>