<?xml version="1.0" encoding="UTF-8"?>
<svg width="14px" height="14px" viewBox="0 0 14 14" version="1.1" xmlns="http://www.w3.org/2000/svg" xmlns:xlink="http://www.w3.org/1999/xlink">
    <!-- Generator: Sketch 61.2 (89653) - https://sketch.com -->
    <title>首页</title>
    <desc>Created with Sketch.</desc>
    <g id="标识管理流程" stroke="none" stroke-width="1" fill="none" fill-rule="evenodd">
        <g id="标识申请" transform="translate(-156.000000, -89.000000)" fill="#333333" fill-rule="nonzero">
            <g id="外框">
                <g id="编组-21备份-4" transform="translate(155.000000, 85.000000)">
                    <g id="首页" transform="translate(0.000000, 1.000000)">
                        <g transform="translate(0.000000, 2.000000)">
                            <rect id="矩形" opacity="0" x="0" y="0" width="16" height="16"></rect>
                            <path d="M9.1234375,14.0265625 L5.109375,14.0265625 C4.1140625,14.0265625 3.30625,13.246875 3.30625,12.2875 L3.30625,5.6375 C3.30625,5.2390625 3.5222168,4.915625 3.9206543,4.915625 C4.3190918,4.915625 4.41003418,5.2390625 4.41003418,5.6375 L4.41003418,12.2859375 C4.41003418,12.446875 4.9140625,13.0079346 5.109375,13.0079346 L9.1234375,13.0079346 C10.2921875,13.0079346 11.588501,11.7078125 11.588501,10.63125 L11.588501,5.6375 C11.588501,5.2390625 11.7399902,4.915625 12.1384277,4.915625 C12.5368652,4.915625 12.6890625,5.2390625 12.6890625,5.6375 L12.6890625,10.63125 C12.6859375,12.503125 11.0875,14.0265625 9.1234375,14.0265625 Z" id="路径"></path>
                            <path d="M15.003125,6.2890625 C15.003125,6.4265625 14.9039307,6.66306152 14.6609375,6.64118652 C14.1729754,6.59725866 14.3894043,6.66306152 13.74375,6.43962402 L8,3.13806152 L2.246875,6.44431152 C1.834375,6.66774902 1.834375,6.64118652 1.534375,6.64118652 C1.35229492,6.64118652 0.9875,6.43125 0.9875,6.29375 C0.9875,5.990625 1.15,5.696875 1.4328125,5.5421875 L7.571875,2.028125 C7.6765625,1.971875 7.7875,1.9390625 7.8984375,1.9296875 C7.90625,1.928125 7.9171875,1.9265625 7.9265625,1.9265625 C8.0921875,1.9078125 8.2625,1.9375 8.4203125,2.0234375 L14.559375,5.5390625 C14.8421875,5.690625 15.003125,5.984375 15.003125,6.2890625 Z" id="路径"></path>
                        </g>
                    </g>
                </g>
            </g>
        </g>
    </g>
</svg>