<?xml version="1.0" encoding="UTF-8"?>
<svg width="10px" height="8px" viewBox="0 0 10 8" version="1.1" xmlns="http://www.w3.org/2000/svg" xmlns:xlink="http://www.w3.org/1999/xlink">
    <!-- Generator: Sketch 61.2 (89653) - https://sketch.com -->
    <title>使用</title>
    <desc>Created with Sketch.</desc>
    <g id="标识管理流程" stroke="none" stroke-width="1" fill="none" fill-rule="evenodd">
        <g id="标识申请" transform="translate(-1182.000000, -481.000000)" fill="#007BFF">
            <g id="下部分" transform="translate(119.000000, 135.000000)">
                <g id="编组">
                    <g id="指上效果" transform="translate(1049.000000, 331.000000)">
                        <g id="使用" transform="translate(19.000000, 19.000000) rotate(-270.000000) translate(-19.000000, -19.000000) translate(14.000000, 14.000000)">
                            <rect id="矩形" fill-rule="nonzero" opacity="0" x="0" y="-3.41060513e-13" width="10" height="10"></rect>
                            <path d="M5.49800797,6.28154051 L5.49800797,0.70385126 C5.49800797,0.428809053 5.27504221,0.205843291 5,0.205843291 C4.72495779,0.205843291 4.50199203,0.428809053 4.50199203,0.70385126 L4.50199203,6.28154051 C4.50199203,6.55658271 4.72495779,6.77954848 5,6.77954848 C5.27504221,6.77954848 5.49800797,6.55658271 5.49800797,6.28154051 Z" id="路径" fill-rule="nonzero"></path>
                            <path d="M5.01062417,1.40703852 L7.83532536,4.22310757 C8.03188955,4.40559474 8.33766927,4.39963017 8.52696742,4.20961634 C8.71626557,4.01960251 8.72107622,3.71380245 8.5378486,3.51792829 L5.01062417,-3.97903932e-13 L1.46082337,3.53917663 C1.28164796,3.73576307 1.28858534,4.03845214 1.47657906,4.22662337 C1.66457278,4.41479461 1.96725516,4.42201767 2.16401062,4.24302789 L5.01062417,1.40770252 L5.01062417,1.40703852 Z" id="形状" fill-rule="nonzero"></path>
                            <rect id="矩形" transform="translate(5.041382, 9.050903) rotate(-90.000000) translate(-5.041382, -9.050903) " x="4.54138184" y="5.05090332" width="1" height="8" rx="0.5"></rect>
                        </g>
                    </g>
                </g>
            </g>
        </g>
    </g>
</svg>