<?xml version="1.0" encoding="UTF-8"?>
<svg width="12px" height="12px" viewBox="0 0 12 12" version="1.1" xmlns="http://www.w3.org/2000/svg" xmlns:xlink="http://www.w3.org/1999/xlink">
    <!-- Generator: Sketch 61.2 (89653) - https://sketch.com -->
    <title>提交</title>
    <desc>Created with Sketch.</desc>
    <g id="标识管理流程" stroke="none" stroke-width="1" fill="none" fill-rule="evenodd">
        <g id="标识申请" transform="translate(-205.000000, -285.000000)">
            <g id="下部分" transform="translate(119.000000, 135.000000)">
                <g id="编组">
                    <g id="提交" transform="translate(84.000000, 147.000000)">
                        <g transform="translate(0.000000, 1.000000)">
                            <rect id="矩形" fill="#007BFF" fill-rule="nonzero" opacity="0" x="0" y="0" width="16" height="16"></rect>
                            <path d="M13.3333333,4 L4.66666667,4 C4.3,4 4,4.3 4,4.66666667 L4,13.3333333 C4,13.7 4.3,14 4.66666667,14 L13.3333333,14 C13.7,14 14,13.7 14,13.3333333 L14,4.66666667 C14,4.3 13.7,4 13.3333333,4 Z M2.66666667,2.66666667 L10.6666667,2.66666667 L10.6666667,3.33333333 L11.3333333,3.33333333 L11.3333333,2.66666667 C11.3333333,2.3 11.0333333,2 10.6666667,2 L2.66666667,2 C2.3,2 2,2.3 2,2.66666667 L2,10.6666667 C2,11.0333333 2.3,11.3333333 2.66666667,11.3333333 L3.33333333,11.3333333 L3.33333333,10.6666667 L2.66666667,10.6666667 L2.66666667,2.66666667 Z" id="形状" fill="#007BFF" fill-rule="nonzero"></path>
                            <path d="M11.5408641,6.8377662 C11.7395043,6.64594159 12.0560385,6.65146672 12.2478632,6.85010692 C12.4396878,7.04874712 12.4341626,7.36528139 12.2355224,7.55710601 L12.2355224,7.55710601 L8.73595383,10.9384237 C8.71402961,10.9812524 8.68550353,11.0216149 8.65034952,11.0580179 C8.45852491,11.2566581 8.14199064,11.2621832 7.94335044,11.0703586 L5.78533104,8.98638352 C5.58669084,8.7945589 5.58116571,8.47802463 5.77299032,8.27938443 C5.96481493,8.08074423 6.28134921,8.0752191 6.47998941,8.26704372 L8.26965974,9.99543563 Z" id="形状结合" fill="#FFFFFF"></path>
                        </g>
                    </g>
                </g>
            </g>
        </g>
    </g>
</svg>