<?xml version="1.0" encoding="UTF-8"?>
<svg width="14px" height="14px" viewBox="0 0 14 14" version="1.1" xmlns="http://www.w3.org/2000/svg" xmlns:xlink="http://www.w3.org/1999/xlink">
    <!-- Generator: Sketch 61.2 (89653) - https://sketch.com -->
    <title>统计</title>
    <desc>Created with Sketch.</desc>
    <g id="标识管理流程" stroke="none" stroke-width="1" fill="none" fill-rule="evenodd">
        <g id="标识申请" transform="translate(-961.000000, -88.000000)" fill="#333333" fill-rule="nonzero">
            <g id="外框">
                <g id="编组-21备份-4" transform="translate(155.000000, 85.000000)">
                    <g id="统计分析" transform="translate(806.000000, 0.000000)">
                        <g id="统计与分析">
                            <g id="统计" transform="translate(0.000000, 3.000000)">
                                <rect id="矩形" opacity="0" x="0" y="0" width="14" height="14"></rect>
                                <path d="M8.01501159,4.4408921e-16 L8.01501159,1.01229212 C10.5625644,1.44437605 12.5579534,3.4404093 12.9888215,5.98770788 L8.01248039,5.98770788 L8.01248039,4.4408921e-16 M8.01248039,0 C7.45330291,0 7,0.453218621 7,1.01229212 L7,5.98770788 C7,6.54678138 7.45330291,7 8.01248039,7 L12.9888215,7 C13.2863214,6.99961527 13.5685968,6.8684327 13.7606773,6.64129347 C13.9527577,6.41415423 14.0352025,6.11404755 13.9861147,5.82067967 C13.4832767,2.84735917 11.1534131,0.517928896 8.17953965,0.0151843796 C8.12436919,0.00551147679 8.06849104,0.000432589939 8.01248039,0 L8.01248039,0 Z" id="形状"></path>
                                <path d="M5.08220342,2.9675377 L5.08220342,7.46900691 C5.08220343,8.27054139 5.73155013,8.92031347 6.53255988,8.92031347 L11.0310822,8.92031347 C10.5629796,11.3045077 8.47728023,13.0260078 6.04910773,13.0323487 C5.76566942,13.0317308 5.48274115,13.0082728 5.20306646,12.9622023 C2.78407509,12.552452 1.00411994,10.4701733 0.97443425,8.01534107 C0.944748564,5.56050888 2.67382893,3.43574059 5.08220342,2.9675377 M5.09670698,2 C5.03673022,2.00094988 4.97692061,2.00661125 4.91782969,2.0169319 C2.04092241,2.56255018 -0.0311731996,5.09351238 0.000354945479,8.02338385 C0.0318830906,10.9532553 2.15796294,13.438982 5.04594451,13.9224834 C5.37768084,13.9754674 5.71317548,14.0013539 6.04910773,13.9999455 C8.94509982,13.9848964 11.4288328,11.928605 11.9859002,9.08479489 C12.0348341,8.80113484 11.9550055,8.51040141 11.7681024,8.29158153 C11.5811993,8.07276165 11.3066322,7.94858047 11.0189958,7.95277575 L6.53255988,7.95277575 C6.26555664,7.95277575 6.04910774,7.73618507 6.04910773,7.46900691 L6.04910773,2.9675377 C6.04916717,2.43879816 5.62504094,2.00793109 5.09670698,2 L5.09670698,2 Z" id="形状"></path>
                            </g>
                        </g>
                    </g>
                </g>
            </g>
        </g>
    </g>
</svg>