<?xml version="1.0" encoding="UTF-8"?>
<svg width="10px" height="10px" viewBox="0 0 10 10" version="1.1" xmlns="http://www.w3.org/2000/svg" xmlns:xlink="http://www.w3.org/1999/xlink">
    <!-- Generator: Sketch 61.2 (89653) - https://sketch.com -->
    <title>导出</title>
    <desc>Created with Sketch.</desc>
    <g id="标识管理流程" stroke="none" stroke-width="1" fill="none" fill-rule="evenodd">
        <g id="标识申请" transform="translate(-1182.000000, -506.000000)" fill="#007BFF" fill-rule="nonzero">
            <g id="下部分" transform="translate(119.000000, 135.000000)">
                <g id="编组">
                    <g id="指上效果" transform="translate(1049.000000, 331.000000)">
                        <g id="导出" transform="translate(14.000000, 40.000000)">
                            <rect id="矩形" opacity="0" x="0" y="0" width="10" height="10"></rect>
                            <path d="M5.49800797,6.28154051 L5.49800797,0.70385126 C5.49800797,0.428809053 5.27504221,0.205843291 5,0.205843291 C4.72495779,0.205843291 4.50199203,0.428809053 4.50199203,0.70385126 L4.50199203,6.28154051 C4.50199203,6.55658271 4.72495779,6.77954848 5,6.77954848 C5.27504221,6.77954848 5.49800797,6.55658271 5.49800797,6.28154051 Z" id="路径"></path>
                            <path d="M5.01062417,1.40703852 L7.83532536,4.22310757 C8.03188955,4.40559474 8.33766927,4.39963017 8.52696742,4.20961634 C8.71626557,4.01960251 8.72107622,3.71380245 8.5378486,3.51792829 L5.01062417,0 L1.46082337,3.53917663 C1.28164796,3.73576307 1.28858534,4.03845214 1.47657906,4.22662337 C1.66457278,4.41479461 1.96725516,4.42201767 2.16401062,4.24302789 L5.01062417,1.40770252 L5.01062417,1.40703852 Z M0.517928291,6.28154051 L0.517928291,8.08366534 C0.517928291,9.15272245 1.54581674,9.96679947 2.76427623,9.96679947 L7.23572377,9.96679947 C8.45418326,9.96679947 9.48207171,9.15272245 9.48207171,8.08366534 L9.48207171,6.28154051 C9.48207171,6.10360279 9.38718229,5.93917089 9.23308786,5.85019484 C9.07899343,5.76121879 8.88913406,5.76121879 8.73503963,5.85019484 C8.5809452,5.93917089 8.48603086,6.10360279 8.48605578,6.28154051 L8.48605578,8.08366534 C8.48605578,8.54515272 7.94820718,8.97078354 7.23572377,8.97078354 L2.76427623,8.97078354 C2.05179283,8.97078354 1.51394423,8.54448871 1.51394422,8.08366534 L1.51394422,6.28154051 C1.51390571,6.00652554 1.29095123,5.78360228 1.01593625,5.78360228 C0.740921282,5.78360228 0.517928291,6.00652554 0.517928291,6.28154051 Z" id="形状"></path>
                        </g>
                    </g>
                </g>
            </g>
        </g>
    </g>
</svg>