<?xml version="1.0" encoding="UTF-8"?>
<svg width="12px" height="12px" viewBox="0 0 12 12" version="1.1" xmlns="http://www.w3.org/2000/svg" xmlns:xlink="http://www.w3.org/1999/xlink">
    <!-- Generator: Sketch 61.2 (89653) - https://sketch.com -->
    <title>新建</title>
    <desc>Created with Sketch.</desc>
    <g id="标识管理流程" stroke="none" stroke-width="1" fill="none" fill-rule="evenodd">
        <g id="标识申请" transform="translate(-143.000000, -285.000000)" fill="#007BFF" fill-rule="nonzero">
            <g id="下部分" transform="translate(119.000000, 135.000000)">
                <g id="编组">
                    <g id="新增" transform="translate(22.000000, 147.000000)">
                        <g id="新建">
                            <g transform="translate(0.000000, 1.000000)">
                                <rect id="矩形" opacity="0" x="0" y="0" width="16" height="16"></rect>
                                <path d="M13.3333333,4 L4.66666667,4 C4.3,4 4,4.3 4,4.66666667 L4,13.3333333 C4,13.7 4.3,14 4.66666667,14 L13.3333333,14 C13.7,14 14,13.7 14,13.3333333 L14,4.66666667 C14,4.3 13.7,4 13.3333333,4 Z M11.6666667,9.66666667 L9.66666667,9.66666667 L9.66666667,11.6666667 L8.33333333,11.6666667 L8.33333333,9.66666667 L6.33333333,9.66666667 L6.33333333,8.33333333 L8.33333333,8.33333333 L8.33333333,6.33333333 L9.66666667,6.33333333 L9.66666667,8.33333333 L11.6666667,8.33333333 L11.6666667,9.66666667 Z M2.66666667,2.66666667 L10.6666667,2.66666667 L10.6666667,3.33333333 L11.3333333,3.33333333 L11.3333333,2.66666667 C11.3333333,2.3 11.0333333,2 10.6666667,2 L2.66666667,2 C2.3,2 2,2.3 2,2.66666667 L2,10.6666667 C2,11.0333333 2.3,11.3333333 2.66666667,11.3333333 L3.33333333,11.3333333 L3.33333333,10.6666667 L2.66666667,10.6666667 L2.66666667,2.66666667 Z" id="形状"></path>
                            </g>
                        </g>
                    </g>
                </g>
            </g>
        </g>
    </g>
</svg>