<?xml version="1.0" encoding="UTF-8"?>
<svg width="14px" height="12px" viewBox="0 0 14 12" version="1.1" xmlns="http://www.w3.org/2000/svg" xmlns:xlink="http://www.w3.org/1999/xlink">
    <!-- Generator: Sketch 63 (92445) - https://sketch.com -->
    <title>datav DataV数据可视化</title>
    <desc>Created with Sketch.</desc>
    <g id="导航" stroke="none" stroke-width="1" fill="none" fill-rule="evenodd">
        <g id="桌面端-HD" transform="translate(-156.000000, -537.000000)" fill-rule="nonzero">
            <g id="运营管理中心" transform="translate(0.000000, 450.000000)">
                <g id="首页" transform="translate(155.000000, 83.000000)">
                    <g id="datav-DataV数据可视化" transform="translate(0.000000, 2.000000)">
                        <rect id="矩形" fill="#000000" opacity="0" x="0" y="0" width="16" height="16"></rect>
                        <path d="M8.328,7.784 C8.816,7.616 9.144,7.152 9.144,6.632 C9.144,6.536 9.136,6.448 9.112,6.36 L12.168,4.416 L8.328,11.056 L8.328,7.784 Z M6.736,6.368 C6.72,6.456 6.704,6.544 6.704,6.64 C6.704,7.16 7.032,7.616 7.52,7.792 L7.52,11.352 L3.424,4.256 L6.736,6.368 Z M8.672,5.68 C8.456,5.512 8.192,5.416 7.92,5.416 C7.632,5.416 7.376,5.512 7.168,5.68 L3.952,3.624 L11.896,3.624 L8.672,5.68 L8.672,5.68 Z M13.296,2 C12.776,2 12.32,2.328 12.144,2.816 L3.704,2.816 C3.528,2.328 3.072,2 2.552,2 C1.88,2 1.336,2.544 1.336,3.216 C1.336,3.888 1.88,4.432 2.552,4.432 L2.584,4.432 L6.92,11.944 C6.776,12.152 6.696,12.4 6.696,12.648 C6.696,13.32 7.24,13.864 7.912,13.864 C8.584,13.864 9.128,13.32 9.128,12.648 C9.128,12.336 9,12.04 8.808,11.832 L13.088,4.416 C13.144,4.432 13.216,4.432 13.28,4.432 C13.952,4.432 14.496,3.888 14.496,3.216 C14.496,2.552 13.968,2 13.296,2 Z" id="形状" fill="#333333"></path>
                    </g>
                </g>
            </g>
        </g>
    </g>
</svg>