<?xml version="1.0" encoding="UTF-8"?>
<svg width="14px" height="14px" viewBox="0 0 14 14" version="1.1" xmlns="http://www.w3.org/2000/svg" xmlns:xlink="http://www.w3.org/1999/xlink">
    <!-- Generator: Sketch 63 (92445) - https://sketch.com -->
    <title>管理</title>
    <desc>Created with Sketch.</desc>
    <g id="导航" stroke="none" stroke-width="1" fill="none" fill-rule="evenodd">
        <g id="桌面端-HD" transform="translate(-319.000000, -536.000000)" fill-rule="nonzero">
            <g id="运营管理中心" transform="translate(0.000000, 450.000000)">
                <g id="溯源应用及反馈" transform="translate(318.000000, 83.000000)">
                    <g id="管理" transform="translate(0.000000, 2.000000)">
                        <rect id="矩形" fill="#000000" opacity="0" x="0" y="0" width="16" height="16"></rect>
                        <path d="M8.03928,8.40800034 C7.89007034,8.40811741 7.7424289,8.37756528 7.60552,8.31824 L1.8604,5.824 C1.46160195,5.65141133 1.20374407,5.25807661 1.20452503,4.82353534 C1.20530954,4.38899406 1.46458277,3.99659085 1.864,3.82544 L7.6176,1.2052 C7.88938702,1.09170826 8.19543395,1.09248686 8.46664,1.20736 L8.48064,1.2136 L14.13848,3.82768 C14.5350762,4.00002696 14.7919612,4.39088036 14.7928483,4.8233052 C14.7937309,5.25573004 14.5384476,5.64763144 14.14256,5.8216 L8.47856,8.31552 C8.34014324,8.37651416 8.19053967,8.40800034 8.03928,8.40800034 Z M8.01224,7.38248 C8.0296935,7.39005516 8.0495065,7.39005516 8.06696,7.38248 L13.73096,4.88856 C13.7558815,4.87760201 13.7719187,4.85289386 13.7717806,4.82566997 C13.7716408,4.79844608 13.7553521,4.77390296 13.73032,4.7632 L13.71616,4.75696 L8.06272,2.14496 C8.04781327,2.1396828 8.03154673,2.1396828 8.01664,2.14496 L2.26792,4.76264 C2.24273226,4.77325869 2.22629817,4.79786844 2.22614035,4.82520257 C2.22598478,4.85253669 2.24213565,4.87733324 2.2672,4.88824 L8.01224,7.38248 Z M8.0428,11.5864801 C7.88667985,11.5865489 7.73220889,11.5545546 7.58896,11.49248 L1.34744,8.7828 C1.1802397,8.71013218 1.06450808,8.55378405 1.04384011,8.37265043 C1.02317214,8.19151682 1.10070778,8.01311623 1.24724011,7.90465043 C1.39377244,7.79618464 1.5870397,7.77413218 1.75424,7.8468 L7.99568,10.55624 C8.02596507,10.5694021 8.06035493,10.5694021 8.09064,10.55624 L14.24384,7.8468 C14.4108104,7.77212513 14.6049807,7.79255257 14.7527554,7.90033978 C14.9005301,8.00812699 14.9792924,8.18677726 14.9591893,8.36857745 C14.9390861,8.55037763 14.8231944,8.70750341 14.65544,8.7804 L8.50224,11.48992 C8.35743869,11.5535674 8.20097203,11.5863701 8.0428,11.58624 L8.0428,11.5864801 Z M8.0428,14.8002403 C7.88667566,14.8003499 7.73219646,14.7683539 7.58896,14.70624 L1.34744,11.99656 C1.08897074,11.8842253 0.970505282,11.5836293 1.08284,11.32516 C1.19517472,11.0666907 1.49577074,10.9482253 1.75424,11.06056 L7.99568,13.76992 C8.02596507,13.7830821 8.06035493,13.7830821 8.09064,13.76992 L14.24384,11.06048 C14.4105973,10.9869547 14.6039126,11.0079786 14.750966,11.115632 C14.8980194,11.2232854 14.9764699,11.4012133 14.956766,11.582392 C14.9370621,11.7635706 14.8221973,11.9204747 14.65544,11.994 L8.50224,14.704 C8.35740361,14.7675017 8.20094551,14.8001936 8.0428,14.8 L8.0428,14.8002403 Z" id="形状" fill="#333333"></path>
                    </g>
                </g>
            </g>
        </g>
    </g>
</svg>