<?xml version="1.0" encoding="UTF-8"?>
<svg width="12px" height="14px" viewBox="0 0 12 14" version="1.1" xmlns="http://www.w3.org/2000/svg" xmlns:xlink="http://www.w3.org/1999/xlink">
    <!-- Generator: Sketch 63 (92445) - https://sketch.com -->
    <title>数据管理</title>
    <desc>Created with Sketch.</desc>
    <g id="导航" stroke="none" stroke-width="1" fill="none" fill-rule="evenodd">
        <g id="桌面端-HD" transform="translate(-480.000000, -536.000000)" fill="#000000" fill-rule="nonzero">
            <g id="运营管理中心" transform="translate(0.000000, 450.000000)">
                <g id="编组-20" transform="translate(478.000000, 83.000000)">
                    <g id="我的溯源">
                        <g id="数据管理" transform="translate(0.000000, 2.000000)">
                            <rect id="矩形" opacity="0" x="0" y="0" width="16" height="16"></rect>
                            <path d="M2.7421875,14.546875 C2.46609375,14.546875 2.2421875,14.3229687 2.2421875,14.046875 L2.2421875,10.3865625 C2.2421875,10.1104688 2.46609375,9.8865625 2.7421875,9.8865625 C3.01828125,9.8865625 3.2421875,10.1104688 3.2421875,10.3865625 L3.2421875,14.046875 C3.2421875,14.3229687 3.01828125,14.546875 2.7421875,14.546875 Z M6.24734375,14.546875 C5.97125,14.546875 5.74734375,14.3229687 5.74734375,14.046875 L5.74734375,8.52484375 C5.74734375,8.24875 5.97125,8.02484375 6.24734375,8.02484375 C6.5234375,8.02484375 6.74734375,8.24875 6.74734375,8.52484375 L6.74734375,14.046875 C6.74734375,14.3229687 6.52359375,14.546875 6.24734375,14.546875 Z M9.75265625,14.546875 C9.4765625,14.546875 9.25265625,14.3229687 9.25265625,14.046875 L9.25265625,9.44984375 C9.25265625,9.17375 9.4765625,8.94984375 9.75265625,8.94984375 C10.02875,8.94984375 10.2526562,9.17375 10.2526562,9.44984375 L10.2526562,14.046875 C10.2526562,14.3229687 10.02875,14.546875 9.75265625,14.546875 Z M13.2578125,14.546875 C12.9817188,14.546875 12.7578125,14.3229687 12.7578125,14.046875 L12.7578125,7.75 C12.7578125,7.47390625 12.9817188,7.25 13.2578125,7.25 C13.5339062,7.25 13.7578125,7.47390625 13.7578125,7.75 L13.7578125,14.046875 C13.7578125,14.3229687 13.5339062,14.546875 13.2578125,14.546875 Z" id="形状"></path>
                            <path d="M2.647811,8.109375 C2.519375,8.109375 2.39109375,8.0603125 2.2934375,7.96203125 C2.09859375,7.76625 2.099375,7.4496875 2.29515625,7.255 L5.88734375,3.68046875 C6.0590625,3.50953125 6.32859375,3.48640625 6.52703125,3.62546875 L9.14375,5.46 L12.2835938,2.40703125 C12.4815625,2.21453125 12.798125,2.21890625 12.990625,2.416875 C13.183125,2.61484375 13.17875,2.93140625 12.9807813,3.12390625 L9.5440625,6.46546875 C9.371875,6.6328125 9.10515625,6.65421875 8.9084375,6.51640625 L6.295625,4.6846875 L3.0003125,7.96390625 C2.9028125,8.0609375 2.7753125,8.109375 2.647811,8.109375 Z" id="路径"></path>
                            <path d="M13.3515625,4.2090625 C13.0984375,4.2090625 12.88125,4.0175 12.8548437,3.7603125 L12.7392187,2.63765625 L11.4479687,2.638125 L11.4478124,2.638125 C11.1717188,2.638125 10.9479687,2.414375 10.9478124,2.13828125 C10.9476562,1.8621875 11.1715625,1.63828125 11.4476562,1.638125 L13.1901562,1.6375 L13.1903125,1.6375 C13.4465625,1.6375 13.6614062,1.83125 13.6876562,2.08625 L13.8495313,3.65796875 C13.8778125,3.93265625 13.678125,4.17828125 13.4034375,4.2065625 C13.3860938,4.208125 13.36875,4.2090625 13.3515625,4.2090625 L13.3515625,4.2090625 Z" id="路径"></path>
                        </g>
                    </g>
                </g>
            </g>
        </g>
    </g>
</svg>