<?xml version="1.0" encoding="UTF-8"?>
<svg width="14px" height="16px" viewBox="0 0 14 16" version="1.1" xmlns="http://www.w3.org/2000/svg" xmlns:xlink="http://www.w3.org/1999/xlink">
    <!-- Generator: Sketch 63 (92445) - https://sketch.com -->
    <title>风险提示</title>
    <desc>Created with Sketch.</desc>
    <g id="导航" stroke="none" stroke-width="1" fill="none" fill-rule="evenodd">
        <g id="桌面端-HD" transform="translate(-647.000000, -533.000000)" fill="#000000" fill-rule="nonzero">
            <g id="运营管理中心" transform="translate(0.000000, 450.000000)">
                <g id="溯源应用及反馈" transform="translate(646.000000, 81.000000)">
                    <g id="风险提示" transform="translate(0.000000, 2.000000)">
                        <rect id="矩形" opacity="0" x="0" y="0" width="16" height="16"></rect>
                        <path d="M7.992,15.832 C7.904,15.832 7.824,15.808 7.752,15.76 C5.808,14.584 4.4,13.608 3.36,12.352 C2.16,10.912 1.576,9.232 1.512,7.072 L1.512,7.032 C1.512,6.912 1.504,6.8 1.504,6.688 C1.504,6.576 1.504,6.456 1.512,6.344 L1.512,4.12 C1.512,3.864 1.72,3.648 1.984,3.648 C4.296,3.648 6.44,2.4 7.584,0.392 C7.664,0.248 7.824,0.152 7.992,0.152 C8.16,0.152 8.32,0.24 8.4,0.392 C9.544,2.4 11.696,3.648 14.008,3.648 C14.264,3.648 14.48,3.856 14.48,4.12 L14.48,7.072 C14.48,7.104 14.48,7.136 14.472,7.16 C14.312,11.736 11.784,13.616 8.24,15.768 C8.16,15.808 8.08,15.832 7.992,15.832 Z M2.456,7.056 C2.512,8.992 3.032,10.48 4.088,11.752 C5,12.856 6.272,13.752 8,14.808 C11.28,12.808 13.424,11.12 13.544,7.048 C13.544,7.024 13.544,7.008 13.552,6.984 L13.552,4.568 C11.336,4.424 9.296,3.288 8.008,1.488 C6.704,3.288 4.664,4.424 2.456,4.568 L2.456,6.36 C2.456,6.472 2.448,6.584 2.448,6.688 C2.448,6.8 2.448,6.904 2.456,7.016 L2.456,7.056 Z" id="形状"></path>
                        <path d="M8.168,12.088 C8.112,12.088 8.056,12.08 8,12.056 C7.76,11.96 7.64,11.688 7.728,11.448 L8.792,8.704 L6.856,8.704 C6.704,8.704 6.56,8.632 6.472,8.504 C6.384,8.376 6.36,8.216 6.416,8.072 L7.552,4.872 C7.64,4.624 7.904,4.496 8.152,4.584 C8.4,4.672 8.528,4.936 8.44,5.184 L7.52,7.768 L9.48,7.768 C9.632,7.768 9.784,7.848 9.864,7.976 C9.952,8.104 9.968,8.264 9.912,8.408 L8.6,11.792 C8.536,11.976 8.36,12.088 8.168,12.088 L8.168,12.088 Z" id="路径"></path>
                    </g>
                </g>
            </g>
        </g>
    </g>
</svg>