<?xml version="1.0" encoding="UTF-8"?>
<svg width="14px" height="14px" viewBox="0 0 14 14" version="1.1" xmlns="http://www.w3.org/2000/svg" xmlns:xlink="http://www.w3.org/1999/xlink">
    <!-- Generator: Sketch 63 (92445) - https://sketch.com -->
    <title>行为分析</title>
    <desc>Created with Sketch.</desc>
    <g id="导航" stroke="none" stroke-width="1" fill="none" fill-rule="evenodd">
        <g id="桌面端-HD" transform="translate(-1204.000000, -535.000000)" fill="#000000" fill-rule="nonzero">
            <g id="运营管理中心" transform="translate(0.000000, 450.000000)">
                <g id="统计分析" transform="translate(1203.000000, 83.000000)">
                    <g id="统计与分析">
                        <g id="行为分析" transform="translate(0.000000, 1.000000)">
                            <rect id="矩形" opacity="0" x="0" y="0" width="16" height="16"></rect>
                            <path d="M7.96922088,1.01945281 L1.00095336,6.34277159 L3.66258877,14.9560038 L12.275821,14.9560038 L14.9375044,6.34277159 L7.96922088,1.01945281 Z M11.7047202,14.1817448 L4.78326894,14.1817448 L7.21613145,12.6330028 L10.5627105,12.6330028 L12.2397654,7.20492306 L7.9800935,3.9505855 L7.96926884,3.94231911 L7.91610489,3.98296355 L3.69878822,7.20492306 L5.0415898,11.5511123 L4.14785975,13.904061 L1.90010373,6.63012877 L7.96922088,1.99378422 L14.03829,6.63012878 L11.7047202,14.1817448 Z M10.8239893,9.1644585 L8.89125173,5.62102095 L11.3406151,7.4923442 L10.8239893,9.1644585 Z M5.45847516,12.6330028 L5.85973909,11.5763912 L8.07513306,5.74260252 L10.2716278,9.7696162 L6.99049245,11.8587598 L5.77448491,12.6330188 L5.3576795,12.8984069 L5.45847516,12.6330028 Z M5.48843884,10.374614 L4.59793861,7.49234419 L7.39473037,5.35561689 L5.48843884,10.374614 Z M10.3733029,10.6231815 L9.99156173,11.8587598 L8.43237886,11.8587598 L10.3733029,10.6231815 Z" id="形状"></path>
                        </g>
                    </g>
                </g>
            </g>
        </g>
    </g>
</svg>