<?xml version="1.0" encoding="UTF-8"?>
<svg width="12px" height="14px" viewBox="0 0 12 14" version="1.1" xmlns="http://www.w3.org/2000/svg" xmlns:xlink="http://www.w3.org/1999/xlink">
    <!-- Generator: Sketch 63 (92445) - https://sketch.com -->
    <title>KHCFDC_撤销</title>
    <desc>Created with Sketch.</desc>
    <g id="企业线需求发布" stroke="none" stroke-width="1" fill="none" fill-rule="evenodd">
        <g id="发布需求详情" transform="translate(-1143.000000, -615.000000)" fill-rule="nonzero">
            <g id="分页" transform="translate(120.000000, 600.000000)">
                <g id="编组-9" transform="translate(1022.000000, 13.000000)">
                    <g id="KHCFDC_撤销" transform="translate(0.000000, 2.000000)">
                        <rect id="矩形" fill="#000000" opacity="0" x="0" y="0" width="14" height="14"></rect>
                        <path d="M7.26238488,2.71131041 C9.97369529,2.97369529 12.6850057,4.72292781 12.6850057,8.22139287 C12.6850057,10.6703184 10.4110034,13.6440137 7.61223139,13.9938602 C7.08746164,14.0813218 6.91253838,13.2067056 7.43730813,13.1192439 C9.0116174,12.8568591 10.1486185,11.5449347 10.1486185,10.058087 C10.1486185,8.22139287 9.44892553,7.43423823 8.13700114,7.25931497 C7.87461626,7.17185335 7.61223139,7.17185335 7.17492325,7.17185335 L7.17492325,9.0085475 C7.17492325,9.9706254 6.03792211,10.4079335 5.42569073,9.70824051 L1.57737918,5.77246733 C1.14007104,5.3351592 1.14007104,4.72292781 1.57737918,4.28561968 L5.42569073,0.349846506 C6.03792212,-0.349846506 7.17492326,0.17492326 7.17492325,1.04953952 L7.17492325,2.71131041 L7.26238488,2.71131041 Z M11.8103894,8.22139287 C11.8103894,6.47216034 11.0232348,5.24769757 9.71131041,4.46054294 C8.74923252,3.93577319 7.61223138,3.58592668 6.82507675,3.58592667 C6.56269187,3.58592667 6.38776863,3.41100342 6.38776861,3.14861854 L6.38776861,1.04953952 C6.38776861,0.874616271 6.21284537,0.787154635 6.12538374,0.962077895 L2.27707219,4.89785107 C2.18961057,4.98531269 2.18961057,5.07277431 2.27707219,5.16023595 L6.12538374,9.09600913 C6.21284537,9.18347075 6.38776863,9.09600913 6.38776861,9.0085475 L6.38776861,6.73454522 C6.38776861,6.47216034 6.56269186,6.29723709 6.82507675,6.29723709 L7,6.29723709 C7.61223139,6.29723709 7.96207789,6.29723709 8.39938602,6.38469871 C10.1486186,6.6470836 11.1106964,7.78408474 11.1106964,10.058087 L11.1106964,10.5828568 C11.5480046,9.79570214 11.8103894,9.0085475 11.8103894,8.22139287 Z" id="形状" fill="#007AFF"></path>
                    </g>
                </g>
            </g>
        </g>
    </g>
</svg>