<?xml version="1.0" encoding="UTF-8"?>
<svg width="14px" height="12px" viewBox="0 0 14 12" version="1.1" xmlns="http://www.w3.org/2000/svg" xmlns:xlink="http://www.w3.org/1999/xlink">
    <!-- Generator: Sketch 63 (92445) - https://sketch.com -->
    <title>服务</title>
    <desc>Created with Sketch.</desc>
    <g id="导航" stroke="none" stroke-width="1" fill="none" fill-rule="evenodd">
        <g id="桌面端-HD" transform="translate(-276.000000, -290.000000)" fill="#000000" fill-rule="nonzero">
            <g id="运维服务商" transform="translate(0.000000, 203.000000)">
                <g id="溯源应用及反馈" transform="translate(275.000000, 83.000000)">
                    <g id="服务" transform="translate(0.000000, 2.000000)">
                        <rect id="矩形" opacity="0" x="0" y="0" width="16" height="16"></rect>
                        <path d="M10.6666667,1.99999577 C12.8756667,1.99999577 14.6666667,3.791 14.6666667,5.99999577 C14.6666667,7.02233333 14.2833333,7.955 13.652,8.66233333 L13.657,8.66666667 L8.707,13.6166667 C8.31650015,14.0070486 7.68349985,14.0070486 7.293,13.6166667 L2.343,8.66666667 L2.348,8.66233333 C1.69324878,7.93025178 1.33191313,6.98216116 1.33332916,5.99999577 C1.33332916,3.791 3.12433333,1.99999577 5.33332916,1.99999577 C6.35566666,1.99999577 7.28833333,2.38333333 7.99566667,3.01466667 L8,3.00966667 L8.00466667,3.01433333 C8.736712,2.3597798 9.68466431,1.99857033 10.6666667,1.99999577 Z M10.6666667,2.99999962 C9.54366579,2.99943329 8.51449538,3.62645537 8,4.62466667 C7.47589774,3.61032817 6.42145966,2.98141417 5.27991238,3.00228485 C4.1383651,3.02315552 3.10762062,3.69019249 2.62094611,4.72301082 C2.13427161,5.75582914 2.27604266,6.97536736 2.98666667,7.869 L3.05633333,7.95333333 L3.05033333,7.95966667 L7.76433333,12.6733333 C7.8830895,12.7920784 8.07163824,12.8039341 8.20433333,12.701 L8.23566667,12.6733333 L12.95,7.95966667 L12.944,7.953 C13.7068133,7.06354592 13.8819546,5.81137336 13.3924568,4.74675859 C12.902959,3.68214382 11.8384229,2.99999962 10.6666667,2.99999962 Z M10.1173333,7.33333333 C10.3072028,7.33342419 10.4806378,7.44104972 10.5650126,7.61114188 C10.6493873,7.78123404 10.6301411,7.98443966 10.5153333,8.13566667 L10.49,8.16666667 C10.4766667,8.18066667 10.465,8.19266667 10.4526667,8.204 L8.707,9.94966667 C8.31650015,10.3400486 7.68349985,10.3400486 7.293,9.94966667 L5.50966667,8.16666667 C5.42875728,8.07446171 5.38409869,7.95600393 5.384,7.83333333 C5.38409318,7.63644346 5.49972607,7.45793822 5.67937233,7.37736 C5.85901858,7.29678178 6.06922903,7.32913384 6.21633333,7.46 L6.217,7.45966667 L7.76433333,9.007 C7.8830895,9.12574503 8.07163824,9.13760075 8.20433333,9.03466667 L8.23566667,9.007 L9.783,7.45966667 C9.872,7.38133334 9.989,7.333 10.1173333,7.333 L10.1173333,7.33333333 Z" id="形状"></path>
                    </g>
                </g>
            </g>
        </g>
    </g>
</svg>