<?xml version="1.0" encoding="UTF-8"?>
<svg width="15px" height="15px" viewBox="0 0 15 15" version="1.1" xmlns="http://www.w3.org/2000/svg" xmlns:xlink="http://www.w3.org/1999/xlink">
    <!-- Generator: Sketch 63 (92445) - https://sketch.com -->
    <title>钱袋</title>
    <desc>Created with Sketch.</desc>
    <g id="导航" stroke="none" stroke-width="1" fill="none" fill-rule="evenodd">
        <g id="桌面端-HD" transform="translate(-428.000000, -288.000000)" fill-rule="nonzero">
            <g id="运维服务商" transform="translate(0.000000, 203.000000)">
                <g id="统计分析" transform="translate(428.000000, 82.000000)">
                    <g id="统计与分析">
                        <g id="钱袋" transform="translate(0.000000, 3.000000)">
                            <rect id="矩形" fill="#000000" opacity="0" x="0" y="0" width="15" height="15"></rect>
                            <path d="M10.7877,4.665825 C11.338575,3.903225 11.825775,2.945475 11.34375,1.9788 C11.1657152,1.5922278 10.8274047,1.30294418 10.417875,1.1871 C9.895275,1.0446 9.35505,1.213725 9.008925,1.370325 C8.591277,1.03633973 8.0635327,0.871183785 7.53,0.9075 C6.735,0.975 6.379725,1.1637 6.0525,1.3932 C5.472375,1.233225 4.748325,1.150425 4.178325,1.4619 C3.80958916,1.66742467 3.545752,2.02017119 3.452775,2.43195 C3.24,3.2682 3.756975,4.0575 4.3218,4.746675 C3.258525,5.475 0.780975,7.525725 0.986925,10.682925 L0.988725,10.704525 C1.22955,12.9576 2.32815,14.1 4.254,14.1 L11.099475,14.1 C11.126625,14.0988 13.943475,14.0802 14.023725,10.4862 C14.099325,7.09065 11.678475,5.232825 10.7877,4.665825 Z M11.103225,13.0542 L4.254,13.0542 C2.527575,13.0542 2.158125,11.817525 2.027025,10.604025 C1.850025,7.787925 4.3314,5.975325 5.09685,5.48655 C5.29604829,5.35930324 5.43059724,5.152238 5.46594743,4.91852437 C5.50129762,4.68481073 5.43400539,4.44721614 5.28135,4.26675 C4.7946,3.692475 4.35885,3.10425 4.46385,2.691075 C4.514775,2.4915 4.605225,2.420025 4.67835,2.38005 C4.9281,2.243325 5.41635,2.27505 5.9841,2.464875 L6.2385,2.55 L6.51,2.352 C6.8268,2.1195 6.9858,2.003325 7.618875,1.949325 C8.147475,1.904325 8.53005,2.338575 8.530875,2.339325 L8.8275,2.694375 L9.2148,2.441925 C9.384,2.33175 9.8529,2.116875 10.1448,2.1963 C10.221075,2.21715 10.320375,2.264325 10.411275,2.4465 C10.622625,2.8704 10.442625,3.4044 9.8094,4.23225 C9.66563848,4.41972917 9.60981383,4.66014505 9.65625476,4.89178929 C9.70269568,5.12343353 9.84688021,5.3237508 10.0518,5.441325 C10.553325,5.727525 13.0518,7.3149 12.9813,10.4628 C12.925125,12.9618 11.28885,13.052175 11.103225,13.0542 Z M9.2307,9.0096 C9.5194897,9.0096 9.7536,8.7754897 9.7536,8.4867 C9.7536,8.1979103 9.5194897,7.9638 9.2307,7.9638 L8.7132,7.9638 L9.23625,7.232175 C9.34745357,7.08087433 9.36881254,6.88150061 9.29218249,6.71007726 C9.21555244,6.53865392 9.05274605,6.42160621 8.86584322,6.40356574 C8.67894038,6.38552526 8.49675256,6.469273 8.38875,6.622875 L7.589325,7.74105 L6.790125,6.68625 C6.67715762,6.53784633 6.49359905,6.46098307 6.30859401,6.48461386 C6.12358898,6.50824465 5.96524415,6.62877941 5.8932065,6.80081386 C5.82116885,6.97284832 5.84638261,7.17024634 5.95935,7.31865 L6.4479,7.96365 L5.956125,7.96365 C5.6673353,7.96365 5.433225,8.1977603 5.433225,8.48655 C5.433225,8.7753397 5.6673353,9.00945 5.956125,9.00945 L7.069425,9.00945 L7.069425,9.4029 L5.956125,9.4029 C5.6673353,9.4029 5.433225,9.6370103 5.433225,9.9258 C5.433225,10.2145897 5.6673353,10.4487 5.956125,10.4487 L7.069425,10.4487 L7.069425,11.215125 C7.069425,11.5031484 7.3029141,11.7366375 7.5909375,11.7366375 C7.8789609,11.7366375 8.11245,11.5031484 8.11245,11.215125 L8.11245,10.44885 L9.2307,10.44885 C9.5194897,10.44885 9.7536,10.2147397 9.7536,9.92595 C9.7536,9.6371603 9.5194897,9.40305 9.2307,9.40305 L8.11245,9.40305 L8.11245,9.0096 L9.2307,9.0096 L9.2307,9.0096 Z" id="形状" fill="#333333"></path>
                        </g>
                    </g>
                </g>
            </g>
        </g>
    </g>
</svg>