<?xml version="1.0" encoding="UTF-8"?>
<svg width="13px" height="13px" viewBox="0 0 13 13" version="1.1" xmlns="http://www.w3.org/2000/svg" xmlns:xlink="http://www.w3.org/1999/xlink">
    <!-- Generator: Sketch 63 (92445) - https://sketch.com -->
    <title>应用</title>
    <desc>Created with Sketch.</desc>
    <g id="导航" stroke="none" stroke-width="1" fill="none" fill-rule="evenodd">
        <g id="桌面端-HD" transform="translate(-1078.000000, -288.000000)" fill="#000000" fill-rule="nonzero">
            <g id="运维服务商" transform="translate(0.000000, 203.000000)">
                <g id="编组-18" transform="translate(1077.000000, 82.000000)">
                    <g id="应用" transform="translate(0.000000, 2.000000)">
                        <rect id="矩形" opacity="0" x="0" y="0" width="15" height="15"></rect>
                        <path d="M5.9375,8.125 C6.45526695,8.125 6.875,8.54473305 6.875,9.0625 L6.875,12.8125 C6.875,13.330267 6.45526695,13.75 5.9375,13.75 L2.1875,13.75 C1.66973304,13.75 1.25,13.330267 1.25,12.8125 L1.25,9.0625 C1.25,8.54473305 1.66973304,8.125 2.1875,8.125 L5.9375,8.125 Z M12.8125,8.125 C13.330267,8.125 13.75,8.54473305 13.75,9.0625 L13.75,12.8125 C13.75,13.330267 13.330267,13.75 12.8125,13.75 L9.0625,13.75 C8.54473305,13.75 8.125,13.330267 8.125,12.8125 L8.125,9.0625 C8.125,8.54473305 8.54473305,8.125 9.0625,8.125 L12.8125,8.125 Z M5.625,9.0625 L2.5,9.0625 C2.34157037,9.0625 2.20822377,9.18109597 2.1896875,9.3384375 L2.1875,9.375 L2.1875,12.5 C2.1875,12.6584296 2.30609597,12.7917762 2.4634375,12.8103125 L2.5,12.8125 L5.625,12.8125 C5.78342964,12.8125 5.91677624,12.693904 5.9353125,12.5365625 L5.9375,12.5 L5.9375,9.375 C5.9375,9.20241102 5.79758898,9.0625 5.625,9.0625 L5.625,9.0625 Z M12.5,9.0625 L9.375,9.0625 C9.21657037,9.0625 9.08322377,9.18109597 9.0646875,9.3384375 L9.0625,9.375 L9.0625,12.5 C9.0625,12.6584296 9.18109597,12.7917762 9.3384375,12.8103125 L9.375,12.8125 L12.5,12.8125 C12.6584296,12.8125 12.7917762,12.693904 12.8103125,12.5365625 L12.8125,12.5 L12.8125,9.375 C12.8125,9.29211985 12.779576,9.21263425 12.7209709,9.15402913 C12.6623657,9.09542401 12.5828801,9.0625 12.5,9.0625 Z M5.9375,1.25 C6.45526695,1.25 6.875,1.66973304 6.875,2.1875 L6.875,5.9375 C6.875,6.45526695 6.45526695,6.875 5.9375,6.875 L2.1875,6.875 C1.66973304,6.875 1.25,6.45526695 1.25,5.9375 L1.25,2.1875 C1.25,1.66973304 1.66973304,1.25 2.1875,1.25 L5.9375,1.25 Z M11.6003125,1.631875 L13.368125,3.3996875 C13.7341081,3.76578111 13.7341081,4.35921888 13.368125,4.7253125 L11.6003125,6.493125 C11.2342189,6.85910807 10.6407811,6.85910807 10.2746875,6.493125 L8.506875,4.7253125 C8.14089193,4.35921888 8.14089193,3.76578111 8.506875,3.3996875 L10.2746875,1.631875 C10.6407811,1.26589194 11.2342189,1.26589194 11.6003125,1.631875 L11.6003125,1.631875 Z M5.625,2.1875 L2.5,2.1875 C2.34157037,2.1875 2.20822376,2.30609597 2.1896875,2.4634375 L2.1875,2.5 L2.1875,5.625 C2.1875,5.78342964 2.30609597,5.91677624 2.4634375,5.9353125 L2.5,5.9375 L5.625,5.9375 C5.78342963,5.9375 5.91677623,5.81890403 5.9353125,5.6615625 L5.9375,5.625 L5.9375,2.5 C5.9375,2.41711985 5.90457599,2.33763425 5.84597087,2.27902913 C5.78736575,2.22042401 5.70788015,2.1875 5.625,2.1875 Z M10.7459375,2.4896875 L10.7165625,2.515625 L9.390625,3.8415625 C9.27930154,3.95289642 9.2681868,4.12966086 9.3646875,4.2540625 L9.390625,4.2834375 L10.7165625,5.609375 C10.8278964,5.72069846 11.0046609,5.7318132 11.1290625,5.6353125 L11.1584375,5.609375 L12.484375,4.2834375 C12.5956985,4.17210358 12.6068132,3.99533914 12.5103125,3.8709375 L12.484375,3.8415625 L11.1584375,2.515625 C11.0471036,2.40430154 10.8703391,2.39318681 10.7459375,2.4896875 Z" id="形状"></path>
                    </g>
                </g>
            </g>
        </g>
    </g>
</svg>