<?xml version="1.0" encoding="UTF-8"?>
<svg width="15px" height="16px" viewBox="0 0 15 16" version="1.1" xmlns="http://www.w3.org/2000/svg" xmlns:xlink="http://www.w3.org/1999/xlink">
    <!-- Generator: Sketch 63 (92445) - https://sketch.com -->
    <title>查询</title>
    <desc>Created with Sketch.</desc>
    <g id="导航" stroke="none" stroke-width="1" fill="none" fill-rule="evenodd">
        <g id="菜单" transform="translate(-1234.000000, -609.000000)" fill="#000000" fill-rule="nonzero">
            <g id="运营管理中心" transform="translate(0.000000, 525.000000)">
                <g id="编组-18" transform="translate(1233.000000, 82.000000)">
                    <g id="查询" transform="translate(0.000000, 2.000000)">
                        <rect id="矩形" opacity="0" x="0" y="0" width="16" height="16"></rect>
                        <path d="M6.93333333,12.1333333 C4.13333333,11.7333333 2.13333333,9.13333333 2.53333333,6.26666667 C2.93333333,3.46666667 5.53333333,1.46666667 8.4,1.86666667 C11.2,2.26666667 13.2,4.86666667 12.8,7.73333333 C12.4,10.5333333 9.73333333,12.5333333 6.93333333,12.1333333 M15.3333333,14.6666667 L12,11.3333333 C12.9333333,10.4 13.5333333,9.26666666 13.7333333,7.86666667 C14.2,4.46666667 11.8666667,1.4 8.53333333,0.866666672 C5.2,0.4 2.06666666,2.73333334 1.53333333,6.13333333 C1.06666666,9.53333333 3.4,12.6 6.73333333,13.1333333 C8.4,13.4 10,12.9333333 11.2,12 L11.2,12.0666667 L14.5333333,15.4 C14.7333333,15.6 15.0666667,15.6 15.2666667,15.4 C15.4666667,15.2 15.5333333,14.8666667 15.3333333,14.6666667" id="形状"></path>
                    </g>
                </g>
            </g>
        </g>
    </g>
</svg>