<?xml version="1.0" encoding="UTF-8"?>
<svg width="14px" height="14px" viewBox="0 0 14 14" version="1.1" xmlns="http://www.w3.org/2000/svg" xmlns:xlink="http://www.w3.org/1999/xlink">
    <!-- Generator: Sketch 63 (92445) - https://sketch.com -->
    <title>帮助</title>
    <desc>Created with Sketch.</desc>
    <g id="标识管理流程" stroke="none" stroke-width="1" fill="none" fill-rule="evenodd" opacity="0.738606771">
        <g id="标识台账" transform="translate(-945.000000, -29.000000)" fill="#FFFFFF" fill-rule="nonzero">
            <g id="外框">
                <g id="编组-22备份-2" transform="translate(694.000000, 23.000000)">
                    <g id="编组-11" transform="translate(251.000000, 5.000000)">
                        <g id="帮助" transform="translate(0.000000, 1.000000)">
                            <rect id="矩形" opacity="0" x="0" y="0" width="14" height="14"></rect>
                            <path d="M12.023518,3.48386194 C10.6294892,1.49032555 8.25524294,0.580480428 6.00113324,0.949340342 C5.12329841,1.09312086 4.26321755,1.43075394 3.48684193,1.97350196 C0.716999869,3.91069854 0.0397050801,7.74028009 1.97648195,10.5101781 C2.11602334,10.7098647 2.39065714,10.7591813 2.59065155,10.6189264 C2.78990446,10.4794549 2.83873136,10.2044714 2.69921794,10.0049946 C1.04093624,7.63346251 1.62071715,4.35470152 3.99243113,2.69618199 C6.36249422,1.03813814 9.64202471,1.61734543 11.3007681,3.98903144 C12.9590498,6.36057754 12.3792688,9.63932454 10.0075549,11.2978581 C8.39018146,12.4283756 6.30135569,12.5594807 4.55406634,11.6417729 C4.33866839,11.5277922 4.07226101,11.6114974 3.95871399,11.8268254 C3.84561468,12.0422933 3.92848049,12.3088406 4.14420024,12.4221078 C6.18473075,13.4949424 8.62502624,13.3414805 10.5131581,12.0205241 C13.2830001,10.0833415 13.9602949,6.25375996 12.023518,3.48386194 Z M8.11794003,7.39731662 C8.67305566,6.9367209 8.94701791,6.5719882 9.11607929,6.30306253 C9.28515465,6.03545197 9.37031491,5.7506051 9.37031491,5.45108216 C9.3689998,4.91058662 9.22688416,4.43528687 8.76490338,4.02799502 C8.30299256,3.62061921 7.76949227,3.41560222 6.98932522,3.41560222 C6.24647088,3.41560222 5.73557925,3.61794703 5.27901281,4.02129355 C5.0417197,4.23092742 4.86122807,4.46427521 4.73771981,4.72095918 C4.5607258,5.08883975 4.76179748,5.44415685 5.14758591,5.5573681 L5.22726189,5.57251983 C5.43646206,5.60364872 5.59273611,5.50834534 5.75385087,5.21250193 C5.83931893,5.05555634 6.04276898,4.86508947 6.1825622,4.74686963 C6.41553225,4.54984121 6.70312126,4.45129203 7.04924659,4.45129203 C7.40734779,4.45129203 7.69089355,4.54581195 7.90261201,4.73483779 C8.11288944,4.92394757 8.21942721,5.15020218 8.21942721,5.41515454 C8.21942721,5.60549549 8.15819073,5.77988726 8.03969106,5.93830185 C7.96246343,6.03815215 7.72553406,6.24984262 7.32881904,6.5720162 C6.93210401,6.89416179 6.66716564,7.18571011 6.53540297,7.4426599 C6.40228323,7.70091081 6.36155684,7.8664046 6.35973807,8.26713491 C6.35800324,8.64837643 6.6495096,8.75396285 6.92649381,8.75396285 C7.30721768,8.75396285 7.46855629,8.52783416 7.51224867,8.23232651 C7.52823982,8.12424979 7.55177187,8.03811019 7.58274687,7.9737958 C7.65199995,7.82867215 7.82907788,7.63698812 8.11794003,7.39731662 Z M7.02132155,9.22383424 L7.02132155,9.22383424 C6.64562027,9.22383424 6.34107476,9.52839375 6.34107476,9.90409502 C6.34107476,10.3116387 6.62429873,10.5844118 7.02132155,10.5844118 C7.39700883,10.5844118 7.70156834,10.2798523 7.70156834,9.90416498 L7.70156834,9.90409502 C7.70158233,9.52839375 7.39702281,9.22383424 7.02132155,9.22383424 Z" id="形状"></path>
                        </g>
                    </g>
                </g>
            </g>
        </g>
    </g>
</svg>