<?xml version="1.0" encoding="UTF-8"?>
<svg width="12px" height="14px" viewBox="0 0 12 14" version="1.1" xmlns="http://www.w3.org/2000/svg" xmlns:xlink="http://www.w3.org/1999/xlink">
    <!-- Generator: Sketch 63 (92445) - https://sketch.com -->
    <title>回复</title>
    <desc>Created with Sketch.</desc>
    <g id="企业线需求发布" stroke="none" stroke-width="1" fill="none" fill-rule="evenodd">
        <g id="发布需求详情" transform="translate(-1055.000000, -615.000000)" fill-rule="nonzero">
            <g id="分页" transform="translate(120.000000, 600.000000)">
                <g id="编组-9" transform="translate(934.000000, 13.000000)">
                    <g id="回复" transform="translate(0.000000, 2.000000)">
                        <rect id="矩形" fill="#000000" opacity="0" x="0" y="0" width="14" height="14"></rect>
                        <path d="M6.5625,12.17125 C3.42416666,11.967375 1.02083334,9.57979166 1.02083334,6.4575 C1.02083334,3.19141666 3.65020834,0.729166662 7,0.729166662 C10.3865417,0.729166662 12.9791667,3.12491666 12.9791667,6.4575 C12.9791667,9.3625 11.001375,11.5336667 7.151375,12.9523333 L6.5625,13.1690417 L6.5625,12.1715417 L6.5625,12.17125 Z M7.4375,11.9020417 C10.5781667,10.6099583 12.1041667,8.80075 12.1041667,6.4575 C12.1041667,3.62425 9.918125,1.60416666 7,1.60416666 C4.12125,1.60416666 1.89583334,3.688125 1.89583334,6.4575 C1.89583334,9.22658334 4.12125,11.3108333 7,11.3108333 L7.4375,11.3108333 L7.4375,11.9020417 Z" id="形状" fill="#007AFF"></path>
                        <path d="M4.10083334,8.53008334 C4.81220834,9.10233334 5.796875,9.429 6.84541666,9.429 C7.91,9.429 8.90895832,9.092125 9.62208334,8.50441666 C9.7426977,8.40495541 9.80108802,8.24870243 9.77525922,8.09451671 C9.74943043,7.94033098 9.64330653,7.811637 9.49686337,7.75691253 C9.35042022,7.70218807 9.18590601,7.72974707 9.06529166,7.82920834 C8.51404166,8.28391668 7.71283332,8.554 6.84570834,8.554 C5.991125,8.554 5.20070834,8.29179166 4.64945834,7.84816666 C4.52764566,7.75016424 4.36280243,7.72459257 4.21702351,7.78108424 C4.07124458,7.83757591 3.96667725,7.96754849 3.94271101,8.12204258 C3.91874476,8.27653666 3.97902066,8.43208092 4.10083334,8.53008334 Z" id="路径" fill="#007AFF"></path>
                    </g>
                </g>
            </g>
        </g>
    </g>
</svg>