<?xml version="1.0" encoding="UTF-8"?>
<svg width="42px" height="42px" viewBox="0 0 42 42" version="1.1" xmlns="http://www.w3.org/2000/svg" xmlns:xlink="http://www.w3.org/1999/xlink">
    <!-- Generator: Sketch 63 (92445) - https://sketch.com -->
    <title>申请</title>
    <desc>Created with Sketch.</desc>
    <g id="溯源行业服务" stroke="none" stroke-width="1" fill="none" fill-rule="evenodd">
        <g id="溯源行业服务1.2" transform="translate(-439.000000, -567.000000)" fill-rule="nonzero">
            <g id="编组-4" transform="translate(120.000000, 134.000000)">
                <g id="溯源行业服务" transform="translate(0.000000, 351.000000)">
                    <g id="常用功能" transform="translate(240.000000, 61.000000)">
                        <g id="申请" transform="translate(79.000000, 21.000000)">
                            <rect id="矩形" fill="#007AFF" x="0" y="0" width="42" height="42" rx="8"></rect>
                            <g id="质量管理" transform="translate(8.000000, 9.000000)">
                                <rect id="矩形" fill="#000000" opacity="0" x="5" y="5" width="16" height="16"></rect>
                                <path d="M0.9921875,2.83825281 L0.9921875,12.9141075 C0.9921875,19.5573062 6.42680288,25.0351327 13.0700721,24.991864 C19.6614183,24.9485952 24.9921875,19.5948058 24.9921875,12.9919913 L24.9921875,2.83825281 C24.9921875,1.81999438 24.1643029,0.992118549 23.1460337,0.992118549 L2.83834135,0.992118549 C1.82007212,0.992118549 0.9921875,1.81999438 0.9921875,2.83825281 Z" id="形状" fill="#FFFFFF"></path>
                                <path d="M7.4,18.106 C8.828,17.098 9.822,15.852 10.41,14.382 C10.998,15.082 11.726,16.048 12.594,17.28 L13.406,16.048 C12.51,14.984 11.642,14.018 10.788,13.15 C10.844,12.87 10.914,12.562 10.97,12.254 L13.336,12.254 L13.336,10.98 L11.152,10.98 C11.236,10.238 11.278,9.426 11.306,8.558 L13.21,8.558 L13.21,7.284 L9.388,7.284 C9.556,6.808 9.724,6.318 9.864,5.786 L8.548,5.506 C8.17,7.018 7.526,8.432 6.63,9.748 L7.792,10.49 C8.184,9.902 8.548,9.258 8.87,8.558 L9.934,8.558 C9.906,9.426 9.864,10.238 9.78,10.98 L6.826,10.98 L6.826,12.254 L9.584,12.254 C9.528,12.534 9.458,12.814 9.402,13.08 C8.94,14.648 7.988,15.964 6.532,17.042 L7.4,18.106 Z M15.184,17.826 L15.184,17.014 L17.634,17.014 L17.634,17.812 L18.922,17.812 L18.922,6.892 L13.896,6.892 L13.896,17.826 L15.184,17.826 Z M17.634,15.768 L15.184,15.768 L15.184,8.138 L17.634,8.138 L17.634,15.768 Z" id="知" fill="#007AFF"></path>
                            </g>
                        </g>
                    </g>
                </g>
            </g>
        </g>
    </g>
</svg>