<?xml version="1.0" encoding="UTF-8"?>
<svg width="42px" height="42px" viewBox="0 0 42 42" version="1.1" xmlns="http://www.w3.org/2000/svg" xmlns:xlink="http://www.w3.org/1999/xlink">
    <!-- Generator: Sketch 63 (92445) - https://sketch.com -->
    <title>申请</title>
    <desc>Created with Sketch.</desc>
    <g id="溯源行业服务" stroke="none" stroke-width="1" fill="none" fill-rule="evenodd">
        <g id="溯源行业服务1.2" transform="translate(-659.000000, -567.000000)" fill-rule="nonzero">
            <g id="编组-4" transform="translate(120.000000, 134.000000)">
                <g id="溯源行业服务" transform="translate(0.000000, 351.000000)">
                    <g id="常用功能" transform="translate(460.000000, 61.000000)">
                        <g id="申请" transform="translate(79.000000, 21.000000)">
                            <rect id="矩形" fill="#007AFF" x="0" y="0" width="42" height="42" rx="8"></rect>
                            <g id="质量管理" transform="translate(8.000000, 9.000000)">
                                <rect id="矩形" fill="#000000" opacity="0" x="5" y="5" width="16" height="16"></rect>
                                <path d="M0.9921875,2.83825281 L0.9921875,12.9141075 C0.9921875,19.5573062 6.42680288,25.0351327 13.0700721,24.991864 C19.6614183,24.9485952 24.9921875,19.5948058 24.9921875,12.9919913 L24.9921875,2.83825281 C24.9921875,1.81999438 24.1643029,0.992118549 23.1460337,0.992118549 L2.83834135,0.992118549 C1.82007212,0.992118549 0.9921875,1.81999438 0.9921875,2.83825281 Z" id="形状" fill="#FFFFFF"></path>
                                <path d="M9.822,18.428 L9.822,11.722 C10.172,12.226 10.592,12.856 11.068,13.612 L11.824,12.478 C11.152,11.666 10.48,10.938 9.822,10.28 L9.822,9.37 L11.334,9.37 L11.334,8.096 L9.822,8.096 L9.822,5.562 L8.52,5.562 L8.52,8.096 L6.924,8.096 L6.924,9.37 L8.506,9.37 C8.086,11.008 7.4,12.464 6.462,13.752 L7.036,15.208 C7.624,14.256 8.114,13.206 8.52,12.072 L8.52,18.428 L9.822,18.428 Z M18.712,7.508 L18.712,6.248 L12.23,6.248 L12.23,7.508 L18.712,7.508 Z M14.722,18.288 C15.646,18.288 16.122,17.812 16.122,16.874 L16.122,10.896 L19.44,10.896 L19.44,9.622 L11.502,9.622 L11.502,10.896 L14.792,10.896 L14.792,16.552 C14.792,16.93 14.61,17.126 14.274,17.126 C13.882,17.126 13.462,17.098 13.042,17.042 L13.308,18.288 L14.722,18.288 Z M18.264,17.392 L19.482,16.846 C19.076,15.054 18.6,13.374 18.04,11.806 L16.85,12.198 C17.354,13.71 17.83,15.432 18.264,17.392 Z M11.978,17.252 C12.79,15.824 13.42,14.144 13.868,12.184 L12.65,11.918 C12.286,13.556 11.684,15.082 10.816,16.51 L11.978,17.252 Z" id="标" fill="#007AFF"></path>
                            </g>
                        </g>
                    </g>
                </g>
            </g>
        </g>
    </g>
</svg>