<?xml version="1.0" encoding="UTF-8"?>
<svg width="14px" height="14px" viewBox="0 0 14 14" version="1.1" xmlns="http://www.w3.org/2000/svg" xmlns:xlink="http://www.w3.org/1999/xlink">
    <!-- Generator: Sketch 63 (92445) - https://sketch.com -->
    <title>jia</title>
    <desc>Created with Sketch.</desc>
    <g id="公证办理" stroke="none" stroke-width="1" fill="none" fill-rule="evenodd">
        <g transform="translate(-1180.000000, -711.000000)" fill="#007BFF" fill-rule="nonzero" id="下部分">
            <g transform="translate(119.000000, 265.000000)">
                <g id="指上效果" transform="translate(1049.000000, 317.000000)">
                    <g id="编组-7" transform="translate(0.000000, 121.000000)">
                        <g id="jia" transform="translate(12.000000, 8.000000)">
                            <rect id="矩形" opacity="0" x="0" y="0" width="14" height="14"></rect>
                            <path d="M11.7355,13.70775 L2.2645,13.70775 C1.176875,13.70775 0.291375,12.823125 0.291375,11.734625 L0.291375,2.2645 C0.291375,1.176 1.176875,0.291375 2.2645,0.291375 L11.7355,0.291375 C12.824,0.291375 13.708625,1.176 13.708625,2.2645 L13.708625,11.7355 C13.708625,12.823125 12.823125,13.70775 11.7355,13.70775 Z M2.2645,1.080625 C1.61175,1.080625 1.080625,1.61175 1.080625,2.2645 L1.080625,11.7355 C1.080625,12.38825 1.61175,12.919375 2.2645,12.919375 L11.7355,12.919375 C12.38825,12.919375 12.919375,12.38825 12.919375,11.7355 L12.919375,2.2645 C12.919375,1.61175 12.38825,1.080625 11.7355,1.080625 L2.2645,1.080625 Z M11.447625,6.5625 L7.4375,6.5625 L7.4375,2.552375 L6.5625,2.552375 L6.5625,6.5625 L2.552375,6.5625 L2.552375,7.4375 L6.5625,7.4375 L6.5625,11.447625 L7.4375,11.447625 L7.4375,7.4375 L11.447625,7.4375 L11.447625,6.5625 Z" id="形状"></path>
                        </g>
                    </g>
                </g>
            </g>
        </g>
    </g>
</svg>