<?xml version="1.0" encoding="UTF-8"?>
<svg width="14px" height="16px" viewBox="0 0 14 16" version="1.1" xmlns="http://www.w3.org/2000/svg" xmlns:xlink="http://www.w3.org/1999/xlink">
    <!-- Generator: Sketch 63 (92445) - https://sketch.com -->
    <title>分支机构</title>
    <desc>Created with Sketch.</desc>
    <g id="登记" stroke="none" stroke-width="1" fill="none" fill-rule="evenodd">
        <g id="企业登记变更" transform="translate(-161.000000, -253.000000)" fill-rule="nonzero">
            <g id="商品信息" transform="translate(120.000000, 175.000000)">
                <g id="编组-9" transform="translate(21.000000, 62.000000)">
                    <g id="分支机构" transform="translate(19.000000, 16.000000)">
                        <rect id="矩形" fill="#000000" opacity="0" x="0" y="0" width="16" height="16"></rect>
                        <path d="M1.97623692,3.6034758 C1.97617398,3.95829147 2.35472165,4.28616814 2.96926994,4.46358506 C3.58381823,4.64100198 4.34099112,4.64100198 4.95553942,4.46358506 C5.57008771,4.28616814 5.94863538,3.95829147 5.94857244,3.6034758 C5.94863538,3.24866012 5.57008771,2.92078345 4.95553942,2.74336653 C4.34099112,2.56594961 3.58381823,2.56594961 2.96926994,2.74336653 C2.35472165,2.92078345 1.97617398,3.24866012 1.97623692,3.6034758 L1.97623692,3.6034758 Z" id="路径" fill="#FFFFFF"></path>
                        <path d="M1.97623692,14.3855293 C1.97617398,14.740345 2.35472165,15.0682217 2.96926994,15.2456386 C3.58381823,15.4230555 4.34099112,15.4230555 4.95553942,15.2456386 C5.57008771,15.0682217 5.94863538,14.740345 5.94857244,14.3855293 C5.94863538,14.0307137 5.57008771,13.702837 4.95553942,13.5254201 C4.34099112,13.3480032 3.58381823,13.3480032 2.96926994,13.5254201 C2.35472165,13.702837 1.97617398,14.0307137 1.97623692,14.3855293 L1.97623692,14.3855293 Z" id="路径" fill="#FFFFFF"></path>
                        <path d="M10.2046462,14.1017911 C10.2045833,14.4566068 10.5831309,14.7844834 11.1976792,14.9619004 C11.8122275,15.1393173 12.5694004,15.1393173 13.1839487,14.9619004 C13.798497,14.7844834 14.1770447,14.4566068 14.1769817,14.1017911 C14.1770447,13.7469754 13.798497,13.4190988 13.1839487,13.2416818 C12.5694004,13.0642649 11.8122275,13.0642649 11.1976792,13.2416818 C10.5831309,13.4190988 10.2045833,13.7469754 10.2046462,14.1017911 L10.2046462,14.1017911 Z" id="路径" fill="#FFFFFF"></path>
                        <polygon id="路径" fill="#FFFFFF" points="3.4403263 4.53129988 4.4305728 4.53129988 4.4305728 10.9721582 3.4403263 10.9721582"></polygon>
                        <path d="M4.4305728,4.53981202 L3.4403263,4.53981202 C3.4403263,6.64514984 5.4832417,8.30501861 7.95743927,8.30501862 L8.03972336,8.30501862 C10.0258911,8.30501862 11.5694272,9.57332861 11.5694272,11.0799787 L12.5625111,11.0799787 C12.5625111,8.97464089 10.5167583,7.31477212 8.03972336,7.31477212 L7.96027664,7.31477212 C5.99113317,7.31477212 4.4305728,6.04646214 4.4305728,4.53981202 Z M3.93403086,10.8700108 C2.90984358,10.8688649 1.98591935,11.4850889 1.59344956,12.4310954 C1.20097977,13.3771019 1.41733631,14.4663943 2.14154654,15.1906045 C2.86575676,15.9148148 3.95504912,16.1311713 4.90105566,15.7387015 C5.8470622,15.3462317 6.46328622,14.4223075 6.46214027,13.3981202 C6.46214027,12.0018848 5.33026625,10.8700108 3.93403086,10.8700108 L3.93403086,10.8700108 Z M3.93403086,11.8602589 C4.78336822,11.8602589 5.47189219,12.5487829 5.47189219,13.3981202 C5.47189219,14.2474576 4.78336822,14.9359816 3.93403086,14.9359816 C3.0846935,14.9359816 2.39616953,14.2474576 2.39616953,13.3981202 C2.39616953,12.5487829 3.0846935,11.8602589 3.93403086,11.8602589 Z" id="形状" fill="#FFFFFF"></path>
                        <path d="M12.0659691,10.8700108 C11.0417819,10.8688649 10.1178576,11.4850889 9.72538785,12.4310954 C9.33291807,13.3771019 9.54927461,14.4663943 10.2734848,15.1906045 C10.9976951,15.9148148 12.0869874,16.1311713 13.032994,15.7387015 C13.9790005,15.3462317 14.5952245,14.4223075 14.5940786,13.3981202 C14.5940786,12.0018848 13.4622045,10.8700108 12.0659691,10.8700108 L12.0659691,10.8700108 Z M12.0659691,11.8602589 C12.687976,11.8602589 13.248736,12.2349468 13.4867678,12.8096062 C13.7247995,13.3842656 13.5932266,14.0457271 13.1534013,14.4855524 C12.7135761,14.9253777 12.0521145,15.0569506 11.4774551,14.8189188 C10.9027957,14.5808871 10.5281078,14.0201271 10.5281078,13.3981202 C10.5281078,12.5487829 11.2166318,11.8602589 12.0659691,11.8602589 L12.0659691,11.8602589 Z M3.93403086,0.0709345625 C2.91150669,0.0709345625 1.98966683,0.68688825 1.59836377,1.6315774 C1.20706071,2.57626655 1.42335488,3.6636508 2.14638865,4.38668457 C2.86942242,5.10971835 3.95680667,5.32601253 4.90149582,4.93470947 C5.84618497,4.54340641 6.46213867,3.62156656 6.46213867,2.59904239 C6.46213867,1.202807 5.33026625,0.0709345625 3.93403086,0.0709345625 Z M3.93403086,1.06118106 C4.78336822,1.06118106 5.47189219,1.74970503 5.47189219,2.59904239 C5.47189219,3.44837975 4.78336822,4.13690372 3.93403086,4.13690372 C3.0846935,4.13690372 2.39616953,3.44837975 2.39616953,2.59904239 C2.39616953,1.74970503 3.0846935,1.06118106 3.93403086,1.06118106 Z" id="形状" fill="#FFFFFF"></path>
                    </g>
                </g>
            </g>
        </g>
    </g>
</svg>