<?xml version="1.0" encoding="UTF-8"?>
<svg width="13px" height="13px" viewBox="0 0 13 13" version="1.1" xmlns="http://www.w3.org/2000/svg" xmlns:xlink="http://www.w3.org/1999/xlink">
    <!-- Generator: Sketch 63 (92445) - https://sketch.com -->
    <title>钥匙</title>
    <desc>Created with Sketch.</desc>
    <g id="公证办理" stroke="none" stroke-width="1" fill="none" fill-rule="evenodd">
        <g transform="translate(-1181.000000, -624.000000)" fill="#007BFF" fill-rule="nonzero" id="下部分">
            <g transform="translate(119.000000, 265.000000)">
                <g id="指上效果" transform="translate(1049.000000, 317.000000)">
                    <g id="钥匙" transform="translate(12.000000, 42.000000)">
                        <rect id="矩形" opacity="0" x="0" y="0" width="14" height="14"></rect>
                        <path d="M13.0142578,1.01445312 C12.8419922,0.8421875 12.5603516,0.8421875 12.3880859,1.01445312 L10.8828125,2.51835937 L9.96269531,1.59824219 C9.7890625,1.42460937 9.50332031,1.42460937 9.3296875,1.59824219 C9.15605469,1.771875 9.15605469,2.05761719 9.3296875,2.23125 L10.2498047,3.15136719 L8.97558594,4.42558594 L6.82910156,2.27910156 C6.65546875,2.10546875 6.36972656,2.10546875 6.19609375,2.27910156 C6.02246094,2.45273437 6.02246094,2.73847656 6.19609375,2.91210937 L8.34257812,5.05859375 L7.00957031,6.39160156 C6.41484375,5.92402344 5.66425781,5.64648437 4.84804687,5.64648437 C2.91347656,5.64648437 1.3453125,7.21464844 1.3453125,9.14921875 C1.3453125,11.0796875 2.90800781,12.6464844 4.83710938,12.6519531 C4.84804688,12.6533203 4.85898438,12.6533203 4.86992187,12.6533203 C5.11601562,12.6533203 5.31425781,12.4550781 5.31425781,12.2103516 C5.31425781,11.965625 5.11464844,11.7673828 4.86992187,11.7673828 L4.84667969,11.7673828 C3.40019531,11.7673828 2.22851562,10.5957031 2.22851562,9.14921875 C2.22851562,7.70273437 3.40019531,6.53105469 4.84667969,6.53105469 C6.29316406,6.53105469 7.46484375,7.70273437 7.46484375,9.14921875 C7.46484375,9.49238281 7.39921875,9.82050781 7.27890625,10.1212891 C7.24335937,10.1855469 7.22285156,10.259375 7.22285156,10.3373047 C7.22285156,10.5820312 7.42246094,10.7802734 7.6671875,10.7802734 C7.86269531,10.7802734 8.028125,10.6558594 8.08828125,10.4808594 C8.2578125,10.0693359 8.35078125,9.62089844 8.35078125,9.14921875 C8.35078125,8.34941406 8.0828125,7.6125 7.63164062,7.021875 L9.28457031,5.36894531 L11.1917969,3.46171875 L13.0142578,1.640625 C13.1865234,1.46835937 13.1865234,1.18671875 13.0142578,1.01445312 Z" id="路径"></path>
                        <path d="M6.11269531,11.6935547 C6.11269531,11.9381996 6.31163129,12.1365234 6.55703125,12.1365234 C6.80243121,12.1365234 7.00136719,11.9381996 7.00136719,11.6935547 C7.00136719,11.4489098 6.80243121,11.2505859 6.55703125,11.2505859 C6.31163129,11.2505859 6.11269531,11.4489098 6.11269531,11.6935547 Z" id="路径"></path>
                    </g>
                </g>
            </g>
        </g>
    </g>
</svg>