<?xml version="1.0" encoding="UTF-8"?>
<svg width="13px" height="13px" viewBox="0 0 13 13" version="1.1" xmlns="http://www.w3.org/2000/svg" xmlns:xlink="http://www.w3.org/1999/xlink">
    <!-- Generator: Sketch 63 (92445) - https://sketch.com -->
    <title>查看2</title>
    <desc>Created with Sketch.</desc>
    <g id="标识管理" stroke="none" stroke-width="1" fill="none" fill-rule="evenodd">
        <g id="溯源标识管理" transform="translate(-1181.000000, -530.000000)" fill="#007BFF" fill-rule="nonzero">
            <g id="下部分" transform="translate(120.000000, 315.000000)">
                <g id="编组">
                    <g id="指上效果" transform="translate(1048.000000, 201.000000)">
                        <g id="编组-6" transform="translate(0.000000, 6.000000)">
                            <g id="查看2" transform="translate(13.000000, 8.000000)">
                                <rect id="矩形" opacity="0" x="0" y="0" width="13" height="13"></rect>
                                <path d="M5.4640625,0.822618902 C6.08486328,0.820117188 6.69804688,0.947070313 7.26806641,1.19462891 C7.82412109,1.42060547 8.33066406,1.75576172 8.75722656,2.17851563 C9.17871094,2.60888672 9.51513672,3.11416016 9.75,3.66894531 C9.99121094,4.24023438 10.1143555,4.85341797 10.1143555,5.47294922 C10.1181641,6.00234375 10.0292969,6.52919922 9.84902344,7.028125 C9.67890625,7.51816406 9.425,7.97519531 9.09619141,8.37636719 L12.0326172,11.3051758 C12.1316406,11.4029297 12.1849609,11.5375 12.1811523,11.6771484 C12.1862305,11.9564453 11.9640625,12.1849609 11.6847656,12.1900391 L11.6682617,12.1900391 C11.5286133,12.1938477 11.394043,12.1405273 11.2962891,12.0415039 L8.36748047,9.10380859 C7.96630859,9.43261719 7.50927734,9.68652344 7.01923828,9.85664063 C6.5203125,10.0356445 5.99345703,10.1257813 5.4640625,10.1219727 C4.84453125,10.1232422 4.23134766,9.99882812 3.66005859,9.75761719 C3.10527344,9.52275391 2.6,9.18632812 2.17089844,8.76484375 C1.746875,8.33828125 1.41298828,7.83173828 1.18701172,7.27568359 C0.690625,6.12421875 0.690625,4.82041016 1.18701172,3.66894531 C1.41552734,3.11289062 1.74941406,2.60761719 2.17089844,2.17978516 C2.59746094,1.75576172 3.10400391,1.421875 3.66005859,1.19589844 C4.23007813,0.948339844 4.84326172,0.821386719 5.4640625,0.822618902 Z M5.4640625,1.85732422 C4.98037109,1.85351563 4.50048828,1.95253906 4.05742187,2.14677734 C3.1890625,2.50732422 2.4984375,3.19794922 2.13789062,4.06630859 C1.75195312,4.96386719 1.75195312,5.98076172 2.13789062,6.87958984 C2.31943359,7.30996094 2.58095703,7.70351563 2.90722656,8.03740234 C3.23730469,8.36621094 3.62832031,8.62773438 4.05742187,8.80673828 C4.95779008,9.18125097 5.97033492,9.18125097 6.87070312,8.80673828 C7.74160156,8.44238281 8.43349609,7.74921875 8.79785156,6.87832031 C9.17236425,5.97795211 9.17236425,4.96540726 8.79785156,4.06503906 C8.61884766,3.63339844 8.35351562,3.24238281 8.01962891,2.91484375 C7.68955078,2.58603516 7.29853516,2.32451172 6.86943359,2.14550781 C6.42763672,1.95253906 5.94775391,1.85351562 5.4640625,1.85732422 Z M5.4640625,3.40361328 C5.60244141,3.40107422 5.73447266,3.45820313 5.82841797,3.56103516 C5.92871094,3.65625 5.98457031,3.78701172 5.98583984,3.92539063 L5.98583984,4.96005859 L7.02050781,4.96005859 C7.15634766,4.95878906 7.28837891,5.01337891 7.38486328,5.10859375 C7.58291016,5.31044922 7.58291016,5.63417969 7.38486328,5.83603516 C7.29091797,5.93759766 7.15888672,5.99472656 7.02050781,5.99345703 L5.98583984,5.99345703 L5.98583984,7.028125 C5.98583984,7.16523437 5.92871094,7.29726563 5.82841797,7.39248047 C5.62910156,7.59306641 5.30410156,7.59433594 5.10351562,7.39501953 C5.00576172,7.29853516 4.95117187,7.16650391 4.95244141,7.028125 L4.95244141,5.99345703 L3.91777344,5.99345703 C3.77939453,5.99853516 3.64482422,5.94013672 3.55341797,5.83603516 C3.35283203,5.64941406 3.34013672,5.33583984 3.52675781,5.13398438 L3.55341797,5.10732422 C3.64863281,5.00830078 3.78066406,4.95498047 3.91777344,4.95878906 L4.95117187,4.95878906 L4.95117187,3.92412109 C4.94863281,3.78701172 5.00195312,3.65625 5.09970703,3.55976563 C5.19365234,3.45947266 5.32568359,3.40107422 5.4640625,3.40361328 Z" id="形状"></path>
                            </g>
                        </g>
                    </g>
                </g>
            </g>
        </g>
    </g>
</svg>