<?xml version="1.0" encoding="UTF-8"?>
<svg width="16px" height="14px" viewBox="0 0 16 14" version="1.1" xmlns="http://www.w3.org/2000/svg" xmlns:xlink="http://www.w3.org/1999/xlink">
    <!-- Generator: Sketch 63 (92445) - https://sketch.com -->
    <title>上传</title>
    <desc>Created with Sketch.</desc>
    <g id="溯源行业服务" stroke="none" stroke-width="1" fill="none" fill-rule="evenodd">
        <g id="溯源行业服务1.2" transform="translate(-480.000000, -1309.000000)" fill-rule="nonzero">
            <g id="编组-4" transform="translate(120.000000, 134.000000)">
                <g id="问题反馈" transform="translate(0.000000, 1103.000000)">
                    <g id="上传" transform="translate(359.000000, 70.000000)">
                        <rect id="矩形" fill="#000000" opacity="0" x="0" y="0" width="18" height="18"></rect>
                        <path d="M13.10796,13.68 C12.7996046,13.6761025 12.5516807,13.425025 12.5516807,13.116645 C12.5516807,12.808265 12.7996046,12.5571875 13.10796,12.55329 C13.780801,12.5486482 14.4245475,12.278307 14.89896,11.80116 C15.3545554,11.3536069 15.6120558,10.7423148 15.61401,10.10367 C15.6143289,8.85742855 14.6744941,7.81168378 13.43529,7.67943 C13.0619076,7.63929333 12.7689861,7.34079309 12.7359,6.96672 C12.563337,4.98324015 10.9004121,3.46241983 8.90944574,3.46725393 C6.91847941,3.47208802 5.26295919,5.00096557 5.10003,6.98526 C5.07078093,7.34607887 4.79800266,7.63980859 4.44033,7.69563 C3.23992622,7.89250292 2.36521337,8.93950015 2.385,10.15578 C2.40948,11.47779 3.53655,12.55329 4.89744,12.55329 C5.20579535,12.5571875 5.45371933,12.808265 5.45371933,13.116645 C5.45371933,13.425025 5.20579535,13.6761025 4.89744,13.68 C2.92743,13.68 1.296,12.10842 1.26,10.17666 C1.2335023,8.49821997 2.37469287,7.02591624 4.00671,6.633 C4.33774592,4.18069265 6.42670023,2.34819938 8.90123418,2.33934484 C11.3757681,2.33055427 13.4777361,4.14810548 13.82625,6.59799 C15.5149695,6.91073201 16.7401655,8.38380556 16.74,10.10124 C16.7395603,11.0392939 16.363588,11.9381271 15.696,12.59712 C15.0099707,13.2853866 14.0797203,13.6746192 13.10796,13.68 L13.10796,13.68 Z" id="路径" fill="#007AFF"></path>
                        <path d="M12.11121,11.42343 C11.9117826,11.6640062 11.5562181,11.7000675 11.31255,11.50443 L9.61227,10.13643 L9.61227,15.18984 C9.60675696,15.4994428 9.35420191,15.7475407 9.04455,15.7475407 C8.73489809,15.7475407 8.48234304,15.4994428 8.47683,15.18984 L8.47683,10.13643 L6.777,11.50416 C6.53330261,11.6998075 6.1777095,11.6637473 5.97825,11.42316 C5.88324105,11.308112 5.83839658,11.1597379 5.85377757,11.0113258 C5.86915855,10.8629136 5.94347722,10.7268892 6.06006,10.63377 L8.54244,8.63667 C8.83649331,8.40249381 9.25332669,8.40249381 9.54738,8.63667 L12.02967,10.63377 C12.1463145,10.7269195 12.2206513,10.8630213 12.2359838,11.011506 C12.2513162,11.1599907 12.2063591,11.3084107 12.11121,11.42343 L12.11121,11.42343 Z" id="路径" fill="#FFC64B"></path>
                    </g>
                </g>
            </g>
        </g>
    </g>
</svg>