<?xml version="1.0" encoding="UTF-8"?>
<svg width="40px" height="40px" viewBox="0 0 40 40" version="1.1" xmlns="http://www.w3.org/2000/svg" xmlns:xlink="http://www.w3.org/1999/xlink">
    <!-- Generator: Sketch 63 (92445) - https://sketch.com -->
    <title>形状</title>
    <desc>Created with Sketch.</desc>
    <g id="二级首页" stroke="none" stroke-width="1" fill="none" fill-rule="evenodd">
        <g transform="translate(-174.000000, -200.000000)" fill="#007AFF" fill-rule="nonzero" id="常用功能">
            <g transform="translate(120.000000, 134.000000)">
                <g id="登记" transform="translate(50.000000, 66.000000)">
                    <path d="M18,16.4166667 L16.018,16.4166667 C13.8045701,16.4133465 12.0066179,18.2032442 12,20.4166667 L12,24.4166667 L36,24.4166667 L36,20.4166667 C36,19.3526746 35.5761134,18.3325216 34.8220703,17.5818565 C34.0680272,16.8311914 33.0459812,16.4118787 31.982,16.4166667 L30,16.4166667 L30,12.4166667 C30,9.11066668 27.314,6.41666668 24,6.41666668 C20.694,6.41666668 18,9.1026667 18,12.4166667 L18,16.4166667 L18,16.4166667 Z M4.5,4.8225 C4.5,2.43483335 6.43483335,0.5 8.8225,0.5 L39.1775,0.5 C41.5651666,0.5 43.5,2.43483335 43.5,4.8225 L43.5,35.1775 C43.5,37.5647508 41.5647508,39.5 39.1775,39.5 L8.8225,39.5 C7.67610172,39.5 6.57665693,39.0445951 5.76603094,38.2339691 C4.95540494,37.4233431 4.5,36.3238983 4.5,35.1775 L4.5,4.8225 Z M12,30.4166667 C12,31.5286667 12.8981497,32.4166667 14.0043341,32.4166667 L33.9996666,32.4166667 C35.1044202,32.4166667 36,31.5212362 36,30.4166667 C36,29.3120972 35.1044202,28.4166667 33.9996666,28.4166667 L14.0043341,28.4166667 C12.912152,28.4166667 12,29.3126667 12,30.4166667 Z M24,14.4166667 C22.8954305,14.4166667 22,13.5212362 22,12.4166667 C22,11.3120972 22.8954305,10.4166667 24,10.4166667 C25.1045695,10.4166667 26,11.3120972 26,12.4166667 C26,13.5212362 25.1045695,14.4166667 24,14.4166667 Z" id="形状"></path>
                </g>
            </g>
        </g>
    </g>
</svg>