<?xml version="1.0" encoding="UTF-8"?>
<svg width="42px" height="42px" viewBox="0 0 42 42" version="1.1" xmlns="http://www.w3.org/2000/svg" xmlns:xlink="http://www.w3.org/1999/xlink">
    <!-- Generator: Sketch 63 (92445) - https://sketch.com -->
    <title>申请</title>
    <desc>Created with Sketch.</desc>
    <g id="溯源行业服务" stroke="none" stroke-width="1" fill="none" fill-rule="evenodd">
        <g id="溯源行业服务1.2" transform="translate(-219.000000, -567.000000)" fill-rule="nonzero">
            <g id="编组-4" transform="translate(120.000000, 134.000000)">
                <g id="溯源行业服务" transform="translate(0.000000, 351.000000)">
                    <g id="常用功能" transform="translate(20.000000, 61.000000)">
                        <g id="申请" transform="translate(79.000000, 21.000000)">
                            <rect id="矩形" fill="#007AFF" x="0" y="0" width="42" height="42" rx="8"></rect>
                            <g id="质量管理" transform="translate(8.000000, 9.000000)">
                                <rect id="矩形" fill="#000000" opacity="0" x="5" y="5" width="16" height="16"></rect>
                                <path d="M0.9921875,2.83825281 L0.9921875,12.9141075 C0.9921875,19.5573062 6.42680288,25.0351327 13.0700721,24.991864 C19.6614183,24.9485952 24.9921875,19.5948058 24.9921875,12.9919913 L24.9921875,2.83825281 C24.9921875,1.81999438 24.1643029,0.992118549 23.1460337,0.992118549 L2.83834135,0.992118549 C1.82007212,0.992118549 0.9921875,1.81999438 0.9921875,2.83825281 Z" id="形状" fill="#FFFFFF"></path>
                                <path d="M9.738,18.372 L9.738,11.372 C10.004,11.82 10.312,12.38 10.662,13.052 L11.418,11.918 C10.858,11.218 10.298,10.588 9.738,10.028 L9.738,9.426 L11.068,9.426 L11.068,8.152 L9.738,8.152 L9.738,5.534 L8.436,5.534 L8.436,8.152 L6.798,8.152 L6.798,9.426 L8.408,9.426 C7.988,11.078 7.33,12.562 6.434,13.85 L7.008,15.32 C7.568,14.34 8.044,13.276 8.436,12.128 L8.436,18.372 L9.738,18.372 Z M11.544,11.19 C12.062,10.826 12.566,10.392 13.042,9.916 L13.042,10.7 L17.382,10.7 L17.382,9.958 C17.816,10.378 18.306,10.784 18.852,11.176 L19.58,10.056 C17.788,8.768 16.514,7.256 15.786,5.548 L14.554,5.548 C13.686,7.41 12.44,8.922 10.83,10.07 L11.544,11.19 Z M16.906,9.468 L13.448,9.468 C14.092,8.726 14.666,7.858 15.17,6.864 C15.618,7.816 16.192,8.684 16.906,9.468 Z M14.778,15.516 L15.982,15.194 C15.702,13.724 15.394,12.422 15.044,11.288 L13.91,11.652 C14.26,12.884 14.554,14.172 14.778,15.516 Z M19.258,18.05 L19.258,16.762 L17.256,16.762 C17.788,15.278 18.25,13.598 18.614,11.722 L17.354,11.4 C16.948,13.514 16.486,15.306 15.954,16.762 L11.152,16.762 L11.152,18.05 L19.258,18.05 Z M12.762,16.16 L13.924,15.852 C13.644,14.312 13.308,12.954 12.944,11.778 L11.796,12.17 C12.174,13.444 12.496,14.774 12.762,16.16 Z" id="检" fill="#007AFF"></path>
                            </g>
                        </g>
                    </g>
                </g>
            </g>
        </g>
    </g>
</svg>