<?xml version="1.0" encoding="UTF-8"?>
<svg width="56px" height="56px" viewBox="0 0 56 56" version="1.1" xmlns="http://www.w3.org/2000/svg" xmlns:xlink="http://www.w3.org/1999/xlink">
    <!-- Generator: Sketch 63 (92445) - https://sketch.com -->
    <title>申请</title>
    <desc>Created with Sketch.</desc>
    <g id="溯源标识管理" stroke="none" stroke-width="1" fill="none" fill-rule="evenodd">
        <g id="溯源标识管理（改）" transform="translate(-560.000000, -747.000000)">
            <g id="溯源标识小工具" transform="translate(120.000000, 655.000000)">
                <g id="编组-5" transform="translate(21.000000, 68.000000)">
                    <g id="编组-8" transform="translate(411.000000, 24.000000)">
                        <g id="申请" transform="translate(8.000000, 0.000000)">
                            <rect id="矩形" fill="#007AFF" fill-rule="nonzero" x="0" y="0" width="56" height="56" rx="8"></rect>
                            <g id="二维码" transform="translate(13.333333, 8.000000)" fill-rule="nonzero">
                                <rect id="矩形" fill="#000000" opacity="0" x="0" y="0" width="30.6666667" height="30.6666667"></rect>
                                <path d="M1.49708641,13.1884945 L14.0937361,13.1884945 L14.0937361,0.672592582 L1.49708641,0.672592582 L1.49708641,13.1884945 Z M4.64624883,3.82175501 L10.9445737,3.82175501 L10.9445737,10.1200798 L4.64624883,10.1200798 L4.64624883,3.82175501 Z M15.6279434,0.672592582 L15.6279434,13.2692423 L28.2245931,13.2692423 L28.2245931,0.672592582 L15.6279434,0.672592582 Z M25.0754307,10.0393321 L18.7771058,10.0393321 L18.7771058,3.82175501 L25.0754307,3.82175501 L25.0754307,10.0393321 Z M6.26120392,8.50512475 L9.41036634,8.50512475 L9.41036634,5.35596236 L6.26120392,5.35596236 L6.26120392,8.50512475 L6.26120392,8.50512475 Z M1.49708641,27.3193515 L14.0937361,27.3193515 L14.0937361,14.8034496 L1.49708641,14.8034496 L1.49708641,27.3193515 Z M4.64624883,17.952612 L10.9445737,17.952612 L10.9445737,24.2509369 L4.64624883,24.2509369 L4.64624883,17.952612 Z M23.5412233,5.35596236 L20.3920609,5.35596236 L20.3920609,8.50512475 L23.5412233,8.50512475 L23.5412233,5.35596236 Z M15.6279434,27.3193515 L18.7771058,27.3193515 L18.7771058,24.1701891 L15.6279434,24.1701891 L15.6279434,27.3193515 Z M18.7771058,17.952612 L18.7771058,24.2509369 L21.9262683,24.2509369 L21.9262683,17.952612 L18.7771058,17.952612 Z M25.0754307,24.1701891 L21.9262683,24.1701891 L21.9262683,27.3193515 L28.2245931,27.3193515 L28.2245931,21.0210267 L25.0754307,21.0210267 L25.0754307,24.1701891 L25.0754307,24.1701891 Z M25.0754307,17.952612 L28.2245931,17.952612 L28.2245931,14.8034496 L25.0754307,14.8034496 L25.0754307,17.952612 Z M15.6279434,14.8034496 L15.6279434,17.952612 L18.7771058,17.952612 L18.7771058,14.8034496 L15.6279434,14.8034496 Z M6.26120392,22.6359817 L9.41036634,22.6359817 L9.41036634,19.4868193 L6.26120392,19.4868193 L6.26120392,22.6359817 L6.26120392,22.6359817 Z" id="形状" fill="#FFFFFF"></path>
                            </g>
                            <text id="1233441044" font-family="PingFangSC-Medium, PingFang SC" font-size="8" font-weight="400" fill="#FFFFFF">
                                <tspan x="6" y="48.5">1233441044</tspan>
                            </text>
                        </g>
                    </g>
                </g>
            </g>
        </g>
    </g>
</svg>