<?xml version="1.0" encoding="UTF-8"?>
<svg width="39px" height="40px" viewBox="0 0 39 40" version="1.1" xmlns="http://www.w3.org/2000/svg" xmlns:xlink="http://www.w3.org/1999/xlink">
    <!-- Generator: Sketch 63 (92445) - https://sketch.com -->
    <title>编组 5</title>
    <desc>Created with Sketch.</desc>
    <g id="二级首页" stroke="none" stroke-width="1" fill="none" fill-rule="evenodd">
        <g transform="translate(-524.000000, -200.000000)" fill-rule="nonzero" id="常用功能">
            <g transform="translate(120.000000, 134.000000)">
                <g id="公证办理" transform="translate(399.000000, 66.000000)">
                    <g id="编组-5" transform="translate(4.000000, 0.500000)">
                        <path d="M1,4.3225 C1,1.93483335 2.93483335,0 5.3225,0 L35.6775,0 C38.0651666,0 40,1.93483335 40,4.3225 L40,34.6775 C40,37.0647508 38.0647508,39 35.6775,39 L5.3225,39 C4.17610172,39 3.07665693,38.5445951 2.26603094,37.7339691 C1.45540494,36.9233431 1,35.8238983 1,34.6775 L1,4.3225 Z" id="形状" fill="#007AFF"></path>
                        <g id="章" transform="translate(0.000000, 1.500000)">
                            <rect id="矩形" fill="#000000" opacity="0" x="0" y="0" width="38" height="38"></rect>
                            <path d="M31.4936481,30.4 L10.3063519,30.4 C9.5475267,30.4 8.93074761,29.8246775 8.93074761,29.1245863 C8.93074761,28.4210293 9.55126476,27.8491726 10.3063519,27.8491726 L31.4973862,27.8491726 C32.2562114,27.8491726 32.8729904,28.4244951 32.8729904,29.1245863 C32.8729904,29.8281433 32.2524733,30.4 31.4936481,30.4 Z M32.8543002,19.0183192 L25.718353,19.0183192 C25.6921866,19.0079218 25.6622822,19.0009902 25.6323777,19.0009902 L25.6286397,19.0009902 C24.697864,19.0009902 23.9465149,18.300899 23.9465149,17.4413811 C23.9465149,16.9423062 24.1969646,16.5021498 24.5894604,16.2144886 C26.6939854,15.0499805 28.0994941,12.9185147 28.0994941,10.4785928 C28.0994941,6.79098371 24.8735526,3.8 20.8962619,3.8 C16.9189713,3.8 13.6967678,6.79098371 13.6967678,10.4820586 C13.6967678,12.9185147 15.1060146,15.0499805 17.2105396,16.2179544 C17.6292018,16.5021498 17.9020798,16.9596352 17.9020798,17.4760391 C17.9020798,18.2593094 17.2778246,18.9108795 16.4666667,19.0183192 L8.94569983,19.0183192 C8.20556492,19.0183192 7.6,19.5797785 7.6,20.2660065 L7.6,24.0021368 C7.6,24.6883648 8.20556492,25.2498241 8.94569983,25.2498241 L32.8543002,25.2498241 C33.5944351,25.2498241 34.2,24.6883648 34.2,24.0021368 L34.2,20.2660065 C34.2,19.5797785 33.5944351,19.0183192 32.8543002,19.0183192 Z" id="形状" fill="#FFFFFF"></path>
                        </g>
                    </g>
                </g>
            </g>
        </g>
    </g>
</svg>