<?xml version="1.0" encoding="UTF-8"?>
<svg width="42px" height="42px" viewBox="0 0 42 42" version="1.1" xmlns="http://www.w3.org/2000/svg" xmlns:xlink="http://www.w3.org/1999/xlink">
    <!-- Generator: Sketch 63 (92445) - https://sketch.com -->
    <title>申请</title>
    <desc>Created with Sketch.</desc>
    <defs>
        <path d="M28.3794266,30.4860566 L11.1098778,30.4860566 C8.74905933,30.5269118 6.80866058,28.3820174 6.77272727,25.6978352 L6.77272727,10.5242393 C6.80506725,7.84005712 8.74187266,5.69516271 11.1026911,5.72784681 L30.8901218,5.72784681 C33.2509402,5.68699168 35.191339,7.8318861 35.2272723,10.5160683 L35.2272723,25.6937497 C35.1949323,28.3779318 33.2545336,30.5228263 30.8937151,30.4860566 L28.3794266,30.4860566 Z" id="path-1"></path>
        <filter x="-24.6%" y="-20.2%" width="149.2%" height="156.5%" filterUnits="objectBoundingBox" id="filter-2">
            <feOffset dx="0" dy="2" in="SourceAlpha" result="shadowOffsetOuter1"></feOffset>
            <feGaussianBlur stdDeviation="2" in="shadowOffsetOuter1" result="shadowBlurOuter1"></feGaussianBlur>
            <feColorMatrix values="0 0 0 0 0   0 0 0 0 0.374763116   0 0 0 0 0.78331635  0 0 0 1 0" type="matrix" in="shadowBlurOuter1"></feColorMatrix>
        </filter>
        <filter x="-41.9%" y="-41.9%" width="188.6%" height="188.6%" filterUnits="objectBoundingBox" id="filter-3">
            <feOffset dx="0" dy="2" in="SourceAlpha" result="shadowOffsetOuter1"></feOffset>
            <feGaussianBlur stdDeviation="1" in="shadowOffsetOuter1" result="shadowBlurOuter1"></feGaussianBlur>
            <feColorMatrix values="0 0 0 0 0   0 0 0 0 0.432657538   0 0 0 0 0.904325181  0 0 0 1 0" type="matrix" in="shadowBlurOuter1" result="shadowMatrixOuter1"></feColorMatrix>
            <feMerge>
                <feMergeNode in="shadowMatrixOuter1"></feMergeNode>
                <feMergeNode in="SourceGraphic"></feMergeNode>
            </feMerge>
        </filter>
    </defs>
    <g id="溯源标识管理" stroke="none" stroke-width="1" fill="none" fill-rule="evenodd">
        <g id="溯源标识管理（改）" transform="translate(-456.000000, -547.000000)" fill-rule="nonzero">
            <g id="快捷入口" transform="translate(120.000000, 485.000000)">
                <g id="使用" transform="translate(319.000000, 62.000000)">
                    <g id="申请" transform="translate(17.000000, 0.000000)">
                        <rect id="矩形" fill="#007AFF" x="0" y="0" width="42" height="42" rx="8"></rect>
                        <g id="路径">
                            <use fill="black" fill-opacity="1" filter="url(#filter-2)" xlink:href="#path-1"></use>
                            <use fill="#E2F0FF" xlink:href="#path-1"></use>
                        </g>
                        <path d="M19.7791997,19.0909091 C17.3146353,20.5995542 15.1026717,22.4761616 13.2252335,24.6471388 L10.6719175,22.6902488 L9.54545455,23.5800483 L13.9557276,27.9755245 C15.4201294,24.8578808 17.488725,22.0479874 20.0454545,19.7030644 L19.7723726,19.0909091 L19.7791997,19.0909091 Z" id="路径" fill="#007AFF"></path>
                        <path d="M10.4768299,10.5 L21.0231701,10.5 C21.538399,10.5 21.9545455,10.9432656 21.9545455,11.4920706 C21.9545455,12.0408756 21.538399,12.4841412 21.0231701,12.4841412 L10.4768299,12.4841412 C9.961601,12.4841412 9.54545455,12.0408756 9.54545455,11.4920706 C9.54941785,10.9432656 9.9655643,10.5 10.4768299,10.5 L10.4768299,10.5 Z M10.4768299,16.1522225 L18.5421445,16.1522225 C19.0573735,16.1522225 19.4735199,16.5954881 19.4735199,17.1442931 C19.4735199,17.6930981 19.0573735,18.1363636 18.5421445,18.1363636 L10.4768299,18.1363636 C9.961601,18.1363636 9.54545455,17.6930981 9.54545455,17.1442931 C9.54941785,16.5997096 9.9655643,16.1522225 10.4768299,16.1522225 Z" id="形状" fill="#007AFF"></path>
                        <g id="shoucang" filter="url(#filter-3)" transform="translate(19.000000, 17.181818)">
                            <rect id="矩形" fill="#000000" opacity="0" x="0" y="0" width="19.0909091" height="19.0909091"></rect>
                            <path d="M18.2556818,6.92045455 L13.7215909,6.92045455 C12.7670455,6.92045455 11.8125,6.32386364 11.5738636,5.36931818 L10.1420455,1.07386364 C9.90340909,0.477272727 9.1875,0.477272727 8.94886364,1.07386364 L7.51704545,5.36931818 C7.15909091,6.32386364 6.32386364,6.92045455 5.36931818,6.92045455 L0.835227273,6.92045455 C0.238636364,6.92045455 -3.60822483e-16,7.75568182 0.477272727,8.11363636 L4.17613636,10.7386364 C5.01136364,11.3352273 5.36931818,12.4090909 5.01136364,13.2443182 L3.57954545,17.6590909 C3.34090909,18.2556818 4.05681818,18.7329545 4.53409091,18.375 L8.23295455,15.75 C9.06818182,15.1534091 10.1420455,15.1534091 10.9772727,15.75 L14.6761364,18.375 C15.1534091,18.7329545 15.8693182,18.2556818 15.6306818,17.6590909 L14.1988636,13.3636364 C13.8409091,12.4090909 14.1988636,11.3352273 15.0340909,10.8579545 L18.7329545,8.23295455 C19.0909091,7.75568182 18.8522727,6.92045455 18.2556818,6.92045455 Z M13.125,8.59090909 C9.78409091,8.59090909 9.30681818,3.69886364 9.30681818,3.69886364 C9.30681818,3.57954545 9.30681818,3.46022727 9.54545455,3.34090909 C9.66477273,3.34090909 9.78409091,3.46022727 9.90340909,3.57954545 C9.90340909,3.57954545 10.2613636,7.99431818 13.125,7.99431818 C13.2443182,7.99431818 13.3636364,8.11363636 13.3636364,8.23295455 C13.3636364,8.47159091 13.2443182,8.59090909 13.125,8.59090909 Z" id="形状" fill="#FFFFFF"></path>
                        </g>
                    </g>
                </g>
            </g>
        </g>
    </g>
</svg>