<?xml version="1.0" encoding="UTF-8"?>
<svg width="16px" height="16px" viewBox="0 0 16 16" version="1.1" xmlns="http://www.w3.org/2000/svg" xmlns:xlink="http://www.w3.org/1999/xlink">
    <!-- Generator: Sketch 63 (92445) - https://sketch.com -->
    <title>手</title>
    <desc>Created with Sketch.</desc>
    <g id="溯源行业服务" stroke="none" stroke-width="1" fill="none" fill-rule="evenodd">
        <g id="溯源行业服务1.2" transform="translate(-331.000000, -1307.000000)" fill-rule="nonzero">
            <g id="编组-4" transform="translate(120.000000, 134.000000)">
                <g id="问题反馈" transform="translate(0.000000, 1103.000000)">
                    <g id="编组-13" transform="translate(182.000000, 61.000000)">
                        <g id="手" transform="translate(29.000000, 9.000000)">
                            <rect id="矩形" fill="#000000" opacity="0" x="0" y="0" width="16" height="16"></rect>
                            <path d="M3.92677317,11.0163565 C5.24965894,9.44843789 6.86286765,9.39617394 8.3773102,10.8203725 L8.53360841,10.9729686 L7.46639159,12.0270314 C6.55231794,11.1015506 5.91474452,11.0594833 5.17903607,11.8630932 L5.07322683,11.9836435 L3.92677317,11.0163565 Z" id="路径-10" fill="#FFC64B"></path>
                            <path d="M5.04979455,2.08355556 C5.20535011,1.24622222 5.77326064,0.652559364 6.89770508,0.652559364 C7.48081619,0.652559364 8.0231792,0.86258875 8.2711792,1.2590332 C8.44806809,1.54081098 8.50984346,1.79600002 8.54095459,2.10577778 C8.73795981,2.04027877 9.10453204,2.03986324 9.31213379,2.03822223 C9.88635601,2.03822223 10.2226499,2.23248948 10.4835388,2.61560059 C10.7306499,2.9787117 10.8391111,3.21733333 10.8391111,3.62088889 L10.8391111,4.076 C10.8404444,5.58 10.8435555,7.08355556 10.848,8.58711111 C10.8471111,8.78888889 10.8648889,8.99022222 10.9,9.18933333 C11.0257778,9.07422222 11.14,8.95822222 11.2662222,8.82888889 L11.4604444,8.63111111 C11.6666667,8.42488889 11.9084444,8.19688889 12.1955556,8.00577778 C12.8164445,7.59288889 13.5786667,7.40355556 14.5986667,7.66266667 C15.0048889,7.76533334 15.2622222,8.04755556 15.4,8.33911111 C15.5302222,8.61777778 15.5394142,8.81262913 15.5287476,9.08374023 C15.5078587,9.59751802 15.2186279,9.9083252 14.9113159,10.5222222 L14.7808721,10.6288875 C14.2287434,11.1816747 13.6683846,11.72618 13.0999832,12.2622208 C12.6365157,12.7013531 12.1626022,13.1293276 11.6786499,13.5457764 C11.2502055,13.9106653 10.8182055,14.252443 10.4835388,14.4408875 C9.34487212,15.2106653 8.07288889,15.7626667 6.66355556,15.7724444 C6.48273142,15.7750563 6.3082777,15.7057195 6.17858178,15.5796911 C6.04888587,15.4536627 5.97457471,15.2812691 5.972,15.1004444 C5.9722355,14.9196664 6.48277774,14.8187859 6.66355556,14.8191398 C7.81511113,14.8111398 10.0728247,13.5306972 10.0927967,13.5197956 C10.2919078,13.4113512 10.6394634,13.1473512 11.0874634,12.7669067 C11.5539984,12.3649833 12.0108694,11.9519767 12.4576856,11.5282401 C13.0154553,11.002457 14.7867925,9.27948291 14.4608154,8.80311111 C14.1348383,8.32673931 13.4600803,8.44577778 13.1809692,8.63111111 C13.0116359,8.744 12.0237412,9.7594363 11.8597412,9.9083252 C11.5766301,10.1625474 11.1817778,10.6808889 10.7742222,10.6897778 C10.2977778,10.7 10.1822728,10.4662222 10.0129395,10.1991111 C9.85560612,9.95022222 9.85555556,9.60268474 9.81288889,9.35601807 C9.77140337,9.10212915 9.82051975,8.84881125 9.82088889,8.59155555 C9.81555556,7.08666666 9.81288889,5.58133333 9.81288889,4.076 L9.81288889,3.62 C9.81288889,3.41777778 9.59733333,3.24888889 9.53511111,3.15777778 C9.51895329,3.13135095 9.24688727,3.08310697 9.22622222,3.08444444 C9.07323145,3.08943326 8.92637762,3.14579507 8.80933333,3.24444444 C8.69377777,3.336 8.62755555,3.47422222 8.62933333,3.62044444 L8.62933333,7.15555556 C8.62933333,7.52888889 8.32177777,7.832 7.94222222,7.832 C7.56585508,7.83471035 7.52039058,7.53192102 7.51745605,7.15555556 L7.51745605,2.10577778 C7.51745605,1.88266667 7.20533334,1.71466667 7.15022222,1.62711111 C7.13964127,1.60720081 7.12476336,1.58989384 7.10666667,1.57644444 C7.10448064,1.57492173 7.10208535,1.57372409 7.09955556,1.57288889 C7.08832706,1.57039952 7.07682666,1.56935403 7.06533333,1.56977778 C6.49511111,1.56977778 6.18612118,1.88444445 6.19189896,2.03822223 L6.17234339,7.15555556 C6.16770757,7.53192767 6.00792997,7.87866746 5.63155556,7.87422222 C5.25536501,7.87545231 4.94927021,7.57174422 4.94755556,7.19555556 L4.96222222,3.38755556 C4.92977778,3.26311113 4.88444444,3.19333334 4.848,3.15777778 C4.82133333,3.132 4.76266667,3.08444445 4.59466667,3.08444444 C4.45201383,3.08211456 4.31325141,3.13099678 4.20355556,3.22222222 C4.12133334,3.29511111 3.80371095,3.41333333 3.80371094,3.62088889 L3.80371094,8.12666667 C3.80371094,8.5 3.73911111,8.80311111 3.35955556,8.80311111 C2.98318842,8.80582147 2.67582342,8.50303214 2.67288889,8.12666667 L2.67288889,5.54888889 C2.65374364,5.51713155 2.63091929,5.48774332 2.60488889,5.46133333 C2.58415932,5.4385871 2.5577879,5.42172167 2.52844444,5.41244444 C2.51333333,5.40844444 2.45955555,5.39644444 2.34177778,5.43466667 C2.08044445,5.52088889 1.95644445,5.66266667 1.88755556,5.84755556 C1.80666667,6.064 1.78977778,6.38177778 1.87155556,6.78088889 C2.49466667,9.83777778 2.82933334,11.356 3.09822222,12.1035556 C3.33555555,12.7631111 3.80133333,13.3484445 4.44044444,13.7684444 C4.756,13.976 4.84133333,14.3964444 4.63066667,14.7071111 C4.42,15.0177778 4.25919875,15.0266954 3.94364318,14.8191398 C3.07119875,14.245362 2.41030986,13.4289176 2.06897651,12.4800287 C1.75919873,11.6182509 1.40230984,9.97780649 0.79119873,6.97247314 C0.680976512,6.43291758 0.712553813,5.94577777 0.912109375,5.41244444 C1.12233159,4.848 1.32296511,4.69568305 1.987854,4.47790527 C2.23335659,4.3938742 2.41489979,4.60535136 2.67288889,4.63317871 L2.67244444,4.076 C2.67244444,2.84444444 3.72579454,2.29798394 4.64979455,2.29798394 C4.78890566,2.29798394 4.92223899,2.31131727 5.04979455,2.33665061 L5.04979455,2.08355556 Z" id="路径" fill="#007AFF"></path>
                        </g>
                    </g>
                </g>
            </g>
        </g>
    </g>
</svg>