<?xml version="1.0" encoding="UTF-8"?>
<svg width="15px" height="11px" viewBox="0 0 15 11" version="1.1" xmlns="http://www.w3.org/2000/svg" xmlns:xlink="http://www.w3.org/1999/xlink">
    <!-- Generator: Sketch 63 (92445) - https://sketch.com -->
    <title>手</title>
    <desc>Created with Sketch.</desc>
    <g id="溯源标识管理" stroke="none" stroke-width="1" fill="none" fill-rule="evenodd">
        <g id="溯源标识管理（改）" transform="translate(-282.000000, -801.000000)" fill-rule="nonzero">
            <g id="溯源标识小工具" transform="translate(120.000000, 655.000000)">
                <g id="编组-5" transform="translate(21.000000, 68.000000)">
                    <g id="手" transform="translate(140.000000, 76.000000)">
                        <rect id="矩形" fill="#000000" opacity="0" x="0" y="0" width="16" height="16"></rect>
                        <path d="M8.29,3 L3.875,6.355 C3.34151569,6.76040583 3.02580506,7.38998082 3.02,8.06 L2.99993771,11.665 C2.99826078,12.0195943 3.13835359,12.3601683 3.38909266,12.6109073 C3.63983173,12.8616464 3.98040567,13.0017392 4.335,13.0000772 L9.315,13.0000772 C9.78264806,12.9821148 10.1896706,12.6748527 10.335,12.23 L10.855,9.395 C10.9399313,8.8219871 10.9883622,8.244156 11,7.665 L15,7.665 C15.6666667,7.57892578 16,7.29305013 16,6.80737305 C16,6.32169596 15.6666667,6.05257161 15,6 L7,6 C7,6 9.06101318,4.3805957 9.315,4.14520264 C9.48215576,3.97684814 10.0741638,3.67120361 9.62866211,3.08978271 C9.18316046,2.50836182 8.53457593,3.057446 8.29,3 Z M1,7 L1,13 L2.335,13 L2.335,7 L1,7 Z" id="形状" fill="#007AFF"></path>
                    </g>
                </g>
            </g>
        </g>
    </g>
</svg>