<?xml version="1.0" encoding="UTF-8"?>
<svg width="42px" height="42px" viewBox="0 0 42 42" version="1.1" xmlns="http://www.w3.org/2000/svg" xmlns:xlink="http://www.w3.org/1999/xlink">
    <!-- Generator: Sketch 63 (92445) - https://sketch.com -->
    <title>申请</title>
    <desc>Created with Sketch.</desc>
    <defs>
        <filter x="-38.9%" y="-38.9%" width="179.7%" height="179.7%" filterUnits="objectBoundingBox" id="filter-1">
            <feOffset dx="0" dy="2" in="SourceAlpha" result="shadowOffsetOuter1"></feOffset>
            <feGaussianBlur stdDeviation="1" in="shadowOffsetOuter1" result="shadowBlurOuter1"></feGaussianBlur>
            <feColorMatrix values="0 0 0 0 0   0 0 0 0 0.432657538   0 0 0 0 0.904325181  0 0 0 1 0" type="matrix" in="shadowBlurOuter1" result="shadowMatrixOuter1"></feColorMatrix>
            <feMerge>
                <feMergeNode in="shadowMatrixOuter1"></feMergeNode>
                <feMergeNode in="SourceGraphic"></feMergeNode>
            </feMerge>
        </filter>
    </defs>
    <g id="溯源标识管理" stroke="none" stroke-width="1" fill="none" fill-rule="evenodd">
        <g id="溯源标识管理（改）" transform="translate(-892.000000, -547.000000)" fill-rule="nonzero">
            <g id="快捷入口" transform="translate(120.000000, 485.000000)">
                <g id="记录" transform="translate(757.000000, 62.000000)">
                    <g id="申请" transform="translate(15.000000, 0.000000)">
                        <rect id="矩形" fill="#007AFF" x="0" y="0" width="42" height="42" rx="8"></rect>
                        <path d="M28.3794266,30.4860566 L11.1098778,30.4860566 C8.74905933,30.5269118 6.80866058,28.3820174 6.77272727,25.6978352 L6.77272727,10.5242393 C6.80506725,7.84005712 8.74187266,5.69516271 11.1026911,5.72784681 L30.8901218,5.72784681 C33.2509402,5.68699168 35.191339,7.8318861 35.2272723,10.5160683 L35.2272723,25.6937497 C35.1949323,28.3779318 33.2545336,30.5228263 30.8937151,30.4860566 L28.3794266,30.4860566 Z" id="路径" fill="#E2F0FF"></path>
                        <path d="M19.7791997,19.0909091 C17.3146353,20.5995542 15.1026717,22.4761616 13.2252335,24.6471388 L10.6719175,22.6902488 L9.54545455,23.5800483 L13.9557276,27.9755245 C15.4201294,24.8578808 17.488725,22.0479874 20.0454545,19.7030644 L19.7723726,19.0909091 L19.7791997,19.0909091 Z" id="路径" fill="#007AFF"></path>
                        <path d="M10.4768299,10.5 L21.0231701,10.5 C21.538399,10.5 21.9545455,10.9432656 21.9545455,11.4920706 C21.9545455,12.0408756 21.538399,12.4841412 21.0231701,12.4841412 L10.4768299,12.4841412 C9.961601,12.4841412 9.54545455,12.0408756 9.54545455,11.4920706 C9.54941785,10.9432656 9.9655643,10.5 10.4768299,10.5 L10.4768299,10.5 Z M10.4768299,16.1522225 L18.5421445,16.1522225 C19.0573735,16.1522225 19.4735199,16.5954881 19.4735199,17.1442931 C19.4735199,17.6930981 19.0573735,18.1363636 18.5421445,18.1363636 L10.4768299,18.1363636 C9.961601,18.1363636 9.54545455,17.6930981 9.54545455,17.1442931 C9.54941785,16.5997096 9.9655643,16.1522225 10.4768299,16.1522225 Z" id="形状" fill="#007AFF"></path>
                        <g id="c1-记录" filter="url(#filter-1)" transform="translate(19.045455, 17.590909)">
                            <rect id="矩形" fill="#000000" opacity="0" x="0" y="0" width="20.5909088" height="20.5909088"></rect>
                            <path d="M10.3316493,1.56844813 C5.48755762,1.56844813 1.5604048,5.49560094 1.5604048,10.3396927 C1.5604048,15.1837844 5.48755762,19.1109372 10.3316493,19.1109372 C15.175741,19.1109372 19.1028939,15.1837844 19.1028939,10.3396927 C19.1028939,5.49560094 15.175741,1.56844813 10.3316493,1.56844813 Z M16.1731132,13.8264735 C16.0162684,14.0999465 15.6623621,14.1944556 15.3909,14.0355999 L9.94758062,10.894682 C9.89127736,10.8625087 9.84100658,10.8202812 9.80078997,10.7720213 C9.49715449,10.6493606 9.27998475,10.3517576 9.27998475,10.0038839 L9.27998475,5.16582467 C9.27998475,4.71137688 9.65198848,4.33937315 10.1064363,4.33937315 C10.5608841,4.33937315 10.9328878,4.71137688 10.9328878,5.16582467 L10.9328878,10.0058947 C10.9328878,10.050133 10.9288661,10.0943713 10.9228336,10.1365987 L15.9619759,13.0462711 C16.2354489,13.2031159 16.329958,13.5550113 16.1731132,13.8264735 L16.1731132,13.8264735 Z" id="形状" fill="#FFFFFF"></path>
                        </g>
                    </g>
                </g>
            </g>
        </g>
    </g>
</svg>