<?xml version="1.0" encoding="UTF-8"?>
<svg width="42px" height="42px" viewBox="0 0 42 42" version="1.1" xmlns="http://www.w3.org/2000/svg" xmlns:xlink="http://www.w3.org/1999/xlink">
    <!-- Generator: Sketch 63 (92445) - https://sketch.com -->
    <title>申请</title>
    <desc>Created with Sketch.</desc>
    <defs>
        <path d="M28.3794266,30.4860566 L11.1098778,30.4860566 C8.74905933,30.5269118 6.80866058,28.3820174 6.77272727,25.6978352 L6.77272727,10.5242393 C6.80506725,7.84005712 8.74187266,5.69516271 11.1026911,5.72784681 L30.8901218,5.72784681 C33.2509402,5.68699168 35.191339,7.8318861 35.2272723,10.5160683 L35.2272723,25.6937497 C35.1949323,28.3779318 33.2545336,30.5228263 30.8937151,30.4860566 L28.3794266,30.4860566 Z" id="path-1"></path>
        <filter x="-24.6%" y="-20.2%" width="149.2%" height="156.5%" filterUnits="objectBoundingBox" id="filter-2">
            <feOffset dx="0" dy="2" in="SourceAlpha" result="shadowOffsetOuter1"></feOffset>
            <feGaussianBlur stdDeviation="2" in="shadowOffsetOuter1" result="shadowBlurOuter1"></feGaussianBlur>
            <feColorMatrix values="0 0 0 0 0   0 0 0 0 0.374763116   0 0 0 0 0.78331635  0 0 0 1 0" type="matrix" in="shadowBlurOuter1"></feColorMatrix>
        </filter>
        <filter x="-44.5%" y="-44.4%" width="189.0%" height="194.4%" filterUnits="objectBoundingBox" id="filter-3">
            <feOffset dx="0" dy="2" in="SourceAlpha" result="shadowOffsetOuter1"></feOffset>
            <feGaussianBlur stdDeviation="1" in="shadowOffsetOuter1" result="shadowBlurOuter1"></feGaussianBlur>
            <feColorMatrix values="0 0 0 0 0   0 0 0 0 0.432657538   0 0 0 0 0.904325181  0 0 0 1 0" type="matrix" in="shadowBlurOuter1" result="shadowMatrixOuter1"></feColorMatrix>
            <feMerge>
                <feMergeNode in="shadowMatrixOuter1"></feMergeNode>
                <feMergeNode in="SourceGraphic"></feMergeNode>
            </feMerge>
        </filter>
    </defs>
    <g id="溯源标识管理" stroke="none" stroke-width="1" fill="none" fill-rule="evenodd">
        <g id="溯源标识管理（改）" transform="translate(-1123.000000, -547.000000)" fill-rule="nonzero">
            <g id="快捷入口" transform="translate(120.000000, 485.000000)">
                <g id="异常" transform="translate(976.000000, 62.000000)">
                    <g id="申请" transform="translate(27.000000, 0.000000)">
                        <rect id="矩形" fill="#007AFF" x="0" y="0" width="42" height="42" rx="8"></rect>
                        <g id="路径">
                            <use fill="black" fill-opacity="1" filter="url(#filter-2)" xlink:href="#path-1"></use>
                            <use fill="#E2F0FF" xlink:href="#path-1"></use>
                        </g>
                        <path d="M19.7791997,19.0909091 C17.3146353,20.5995542 15.1026717,22.4761616 13.2252335,24.6471388 L10.6719175,22.6902488 L9.54545455,23.5800483 L13.9557276,27.9755245 C15.4201294,24.8578808 17.488725,22.0479874 20.0454545,19.7030644 L19.7723726,19.0909091 L19.7791997,19.0909091 Z" id="路径" fill="#007AFF"></path>
                        <path d="M10.4768299,10.5 L21.0231701,10.5 C21.538399,10.5 21.9545455,10.9432656 21.9545455,11.4920706 C21.9545455,12.0408756 21.538399,12.4841412 21.0231701,12.4841412 L10.4768299,12.4841412 C9.961601,12.4841412 9.54545455,12.0408756 9.54545455,11.4920706 C9.54941785,10.9432656 9.9655643,10.5 10.4768299,10.5 L10.4768299,10.5 Z M10.4768299,16.1522225 L18.5421445,16.1522225 C19.0573735,16.1522225 19.4735199,16.5954881 19.4735199,17.1442931 C19.4735199,17.6930981 19.0573735,18.1363636 18.5421445,18.1363636 L10.4768299,18.1363636 C9.961601,18.1363636 9.54545455,17.6930981 9.54545455,17.1442931 C9.54941785,16.5997096 9.9655643,16.1522225 10.4768299,16.1522225 Z" id="形状" fill="#007AFF"></path>
                        <g id="异常" filter="url(#filter-3)" transform="translate(21.500000, 16.250000)">
                            <rect id="矩形" fill="#000000" opacity="0" x="0" y="0.0175666919" width="17.9882925" height="17.9882925"></rect>
                            <path d="M8.99414625,0.0175666297 C7.25448847,0.00772360281 5.58083782,0.683002182 4.33519683,1.89745133 C3.11891449,3.09999582 2.43261109,4.73806204 2.42845571,6.44845344 L2.42845571,15.226686 L15.4878836,15.226686 L15.4878836,6.44843588 C15.486377,4.73572014 14.7959683,3.09560704 13.5721308,1.89743376 C12.3481286,0.700137512 10.7063292,0.0260098537 8.99412868,0.0175666297 L8.99414625,0.0175666297 Z M8.45449756,13.1220737 L8.26562053,8.86784325 L5.04573426,8.86784325 L9.2729296,3.53436812 L9.63269539,6.97011384 L12.6907046,7.07804357 L8.41848584,13.1220737 L8.45449756,13.1220737 Z M1.28777935e-05,17.0254974 C-0.00234553581,16.7639375 0.0998795118,16.5122645 0.283989946,16.3264616 C0.468100381,16.1406588 0.718827482,16.0361415 0.98039841,16.0361415 L17.0078941,16.0361415 C17.2671858,16.0393702 17.5152451,16.1424661 17.7004432,16.3239717 C17.8824937,16.512447 17.9854743,16.7634713 17.9882383,17.0254974 C17.9882383,17.5669294 17.5493261,18.0058592 17.0078941,18.0058592 L0.98039841,18.0058592 C0.438966408,18.0058592 1.28777935e-05,17.5669294 1.28777935e-05,17.0254974 L1.28777935e-05,17.0254974 Z" id="形状" fill="#FFFFFF"></path>
                        </g>
                    </g>
                </g>
            </g>
        </g>
    </g>
</svg>