<?xml version="1.0" encoding="UTF-8"?>
<svg width="39px" height="40px" viewBox="0 0 39 40" version="1.1" xmlns="http://www.w3.org/2000/svg" xmlns:xlink="http://www.w3.org/1999/xlink">
    <!-- Generator: Sketch 63 (92445) - https://sketch.com -->
    <title>编组 7</title>
    <desc>Created with Sketch.</desc>
    <g id="二级首页" stroke="none" stroke-width="1" fill="none" fill-rule="evenodd">
        <g transform="translate(-1023.000000, -200.000000)" fill-rule="nonzero" id="常用功能">
            <g transform="translate(120.000000, 134.000000)">
                <g id="我的溯源数据" transform="translate(887.000000, 66.000000)">
                    <g id="编组-7" transform="translate(16.000000, 0.500000)">
                        <g id="编组-4" fill="#007AFF">
                            <path d="M0,4.3225 C0,1.93483335 1.93483335,0 4.3225,0 L34.6775,0 C37.0651666,0 39,1.93483335 39,4.3225 L39,34.6775 C39,37.0647508 37.0647508,39 34.6775,39 L4.3225,39 C3.17610172,39 2.07665693,38.5445951 1.26603094,37.7339691 C0.455404942,36.9233431 0,35.8238983 0,34.6775 L0,4.3225 Z" id="形状"></path>
                        </g>
                        <g id="数据" transform="translate(7.000000, 6.500000)" fill="#FFFFFF">
                            <rect id="矩形" opacity="0" x="0" y="0" width="26" height="26"></rect>
                            <path d="M26,11.8523437 L14.1527344,11.8523437 L14.1527344,0 C17.2478516,0.185351563 20.1525391,1.4828125 22.3361328,3.66640625 C24.5171875,5.84746094 25.8146484,8.75214844 26,11.8523437 Z" id="路径"></path>
                            <path d="M3.06464844,21.6759766 C1.08925781,19.3933594 0,16.4962891 0,13.4976563 C0,10.15625 1.3,7.01796875 3.66386719,4.65664063 C5.78398438,2.53652344 8.60488281,1.25429688 11.6085938,1.03847656 L11.6085938,13.1548828 L3.06464844,21.6759766 Z M12.5099609,26 C15.8488281,26 18.9845703,24.7 21.3433594,22.3412109 C23.4685547,20.2160156 24.7507812,17.3951172 24.9640625,14.3914062 L12.9035156,14.3533203 L4.32402344,22.9353516 C6.60917969,24.9132813 9.50625,26 12.5023437,26 L12.5099609,26 Z" id="形状"></path>
                        </g>
                    </g>
                </g>
            </g>
        </g>
    </g>
</svg>