<?xml version="1.0" encoding="UTF-8"?>
<svg width="13px" height="13px" viewBox="0 0 13 13" version="1.1" xmlns="http://www.w3.org/2000/svg" xmlns:xlink="http://www.w3.org/1999/xlink">
    <!-- Generator: Sketch 61.2 (89653) - https://sketch.com -->
    <title>管理员</title>
    <desc>Created with Sketch.</desc>
    <g id="标识管理流程" stroke="none" stroke-width="1" fill="none" fill-rule="evenodd">
        <g id="标识申请" transform="translate(-739.000000, -89.000000)" fill="#333333" fill-rule="nonzero">
            <g id="外框">
                <g id="编组-21备份-4" transform="translate(155.000000, 85.000000)">
                    <g id="溯源服务管理-" transform="translate(584.000000, 0.000000)">
                        <g id="溯源服务管理">
                            <g id="管理员" transform="translate(0.000000, 4.000000)">
                                <rect id="矩形" opacity="0" x="0" y="0" width="14" height="14"></rect>
                                <path d="M10.8293198,10.0796059 C11.9307558,9.30372596 12.592773,8.0444069 12.5999637,6.71052557 C12.6070809,5.03219893 11.567967,3.5073193 9.99505698,2.848956 C9.14593595,1.22830706 7.45443514,0.078535125 5.50263994,0.0035676172 C4.04832069,-0.0480316404 2.6692557,0.461342183 1.62229993,1.45010283 C0.57630719,2.43791793 0,3.76599097 0,5.19023854 C0,6.85951505 0.825595476,8.43788501 2.20782473,9.41192231 C2.65742413,9.72881199 2.85842313,10.2572316 2.72015893,10.7582307 L2.21112656,12.5983791 L6.44668862,12.5983791 L6.44668862,12.6 L10.9056746,12.6 L10.4683195,11.0228457 C10.3718785,10.6731324 10.5141324,10.3027524 10.8293198,10.0796059 Z M2.78963497,8.61632119 C1.66742496,7.82558283 0.997290719,6.5447866 0.997290719,5.19023854 C0.997290719,4.03506354 1.46477504,2.9574225 2.31375849,2.15587801 C3.16329225,1.35365814 4.28233801,0.937352088 5.46370584,0.982332593 C7.74595936,1.06972715 9.59250868,2.96809355 9.58018872,5.21360679 C9.57297284,6.55937487 8.90448952,7.83112097 7.79232257,8.61578088 C7.00112118,9.17418751 6.65057672,10.1158064 6.89917713,11.0146061 L7.0660572,11.6192089 L3.5156252,11.6192089 L3.68250527,11.0146061 C3.93110567,10.1154012 3.58042364,9.17378228 2.78963497,8.61632119 L2.78963497,8.61632119 Z M10.2472344,9.28468016 C9.59085776,9.74907348 9.2996087,10.5315722 9.50569802,11.2793562 L9.6004881,11.6206947 L8.10008079,11.6206947 L7.86152346,10.7582307 C7.72325926,10.2572316 7.92453341,9.72840676 8.37440797,9.41057154 C9.74508081,8.44382838 10.5683375,6.8765347 10.5774175,5.21846955 C10.5790684,4.90860385 10.5479762,4.60522183 10.4947342,4.30845856 C11.1808273,4.91387184 11.6067635,5.79146445 11.602666,6.70566281 C11.5971332,7.72670676 11.0909899,8.69061331 10.2472344,9.28468016 L10.2472344,9.28468016 Z" id="形状"></path>
                            </g>
                        </g>
                    </g>
                </g>
            </g>
        </g>
    </g>
</svg>