<?xml version="1.0" encoding="UTF-8"?>
<svg width="42px" height="42px" viewBox="0 0 42 42" version="1.1" xmlns="http://www.w3.org/2000/svg" xmlns:xlink="http://www.w3.org/1999/xlink">
    <!-- Generator: Sketch 63 (92445) - https://sketch.com -->
    <title>申请</title>
    <desc>Created with Sketch.</desc>
    <g id="溯源行业服务" stroke="none" stroke-width="1" fill="none" fill-rule="evenodd">
        <g id="溯源行业服务1.2" transform="translate(-879.000000, -567.000000)" fill-rule="nonzero">
            <g id="编组-4" transform="translate(120.000000, 134.000000)">
                <g id="溯源行业服务" transform="translate(0.000000, 351.000000)">
                    <g id="常用功能" transform="translate(680.000000, 61.000000)">
                        <g id="申请" transform="translate(79.000000, 21.000000)">
                            <rect id="矩形" fill="#007AFF" x="0" y="0" width="42" height="42" rx="8"></rect>
                            <g id="质量管理" transform="translate(8.000000, 9.000000)">
                                <rect id="矩形" fill="#000000" opacity="0" x="5" y="5" width="16" height="16"></rect>
                                <path d="M0.9921875,2.83825281 L0.9921875,12.9141075 C0.9921875,19.5573062 6.42680288,25.0351327 13.0700721,24.991864 C19.6614183,24.9485952 24.9921875,19.5948058 24.9921875,12.9919913 L24.9921875,2.83825281 C24.9921875,1.81999438 24.1643029,0.992118549 23.1460337,0.992118549 L2.83834135,0.992118549 C1.82007212,0.992118549 0.9921875,1.81999438 0.9921875,2.83825281 Z" id="形状" fill="#FFFFFF"></path>
                                <path d="M9.808,8.628 L10.718,7.704 C10.102,7.018 9.346,6.332 8.478,5.632 L7.554,6.514 C8.506,7.256 9.262,7.956 9.808,8.628 Z M19.538,17.966 L19.538,16.664 L16.5,16.664 L16.5,12.212 L19.062,12.212 L19.062,10.966 L16.5,10.966 L16.5,7.368 L19.258,7.368 L19.258,6.066 L11.32,6.066 L11.32,7.368 L15.142,7.368 L15.142,16.664 L13.504,16.664 L13.504,9.482 L12.202,9.482 L12.202,16.664 L10.886,16.664 L10.886,17.966 L19.538,17.966 Z M8.646,17.896 C9.598,17.252 10.494,16.524 11.334,15.712 L10.984,14.298 C10.55,14.718 10.144,15.11 9.766,15.446 L9.766,9.692 L6.56,9.692 L6.56,10.966 L8.492,10.966 L8.492,15.978 C8.492,16.258 8.366,16.496 8.142,16.692 L8.646,17.896 Z" id="证" fill="#007AFF"></path>
                            </g>
                        </g>
                    </g>
                </g>
            </g>
        </g>
    </g>
</svg>