<?xml version="1.0" encoding="UTF-8"?>
<svg width="14px" height="14px" viewBox="0 0 14 14" version="1.1" xmlns="http://www.w3.org/2000/svg" xmlns:xlink="http://www.w3.org/1999/xlink">
    <!-- Generator: Sketch 61.2 (89653) - https://sketch.com -->
    <title>形状</title>
    <desc>Created with Sketch.</desc>
    <g id="标识管理流程" stroke="none" stroke-width="1" fill="none" fill-rule="evenodd">
        <g id="标识申请" transform="translate(-301.000000, -89.000000)" fill="#323232" fill-rule="nonzero">
            <g id="外框">
                <g id="编组-21备份-4" transform="translate(155.000000, 85.000000)">
                    <g id="编组-20" transform="translate(145.000000, 1.000000)">
                        <g id="我的溯源">
                            <g id="溯源" transform="translate(0.000000, 2.000000)">
                                <path d="M12.4230781,2.250125 C12.6030781,1.9859375 12.9062969,1.8125 13.25,1.8125 C13.8022813,1.8125 14.25,2.26034375 14.25,2.81278125 C14.25,3.36521875 13.8022813,3.8130625 13.25,3.8130625 C12.9062969,3.8130625 12.6030781,3.639625 12.4230781,3.3754375 L5.421875,3.3754375 C4.42948438,3.3754375 3.625,4.18015625 3.625,5.17282812 C3.625,6.16548438 4.42948438,6.97020312 5.421875,6.97020312 L10.578125,6.97020312 C12.1918281,6.97020312 13.5,8.27875 13.5,9.89290625 C13.5,11.5070625 12.1918281,12.8156094 10.578125,12.8156094 L5.09375,12.8156094 C5.02471441,12.8156094 4.96875,12.759645 4.96875,12.6906094 L4.96875,11.8152969 C4.96875,11.7462613 5.02471441,11.6902969 5.09375,11.6902969 L10.578125,11.6902969 C11.5705156,11.6902969 12.375,10.8855781 12.375,9.89290625 C12.375,8.90025 11.5705156,8.09551562 10.578125,8.09551562 L5.421875,8.09551562 C3.80817188,8.09551562 2.5,6.78698437 2.5,5.17282812 C2.5,3.55865625 3.80817188,2.250125 5.421875,2.250125 L12.4230781,2.250125 Z M4.30834375,12.3520937 L1.95109375,14.161625 C1.91334104,14.1905928 1.8624154,14.1956127 1.8197334,14.1745734 C1.7770514,14.1535342 1.75,14.1100857 1.75,14.0625 L1.75,10.4434063 C1.75,10.3958092 1.77703266,10.352343 1.81972285,10.3312948 C1.86241303,10.3102465 1.91335223,10.3152693 1.95110937,10.34425 L4.30834375,12.1537813 C4.33916449,12.1774392 4.35723174,12.2140837 4.35723174,12.2529375 C4.35723174,12.2917913 4.33916449,12.3284358 4.30834375,12.3520938 L4.30834375,12.3520937 Z" id="形状"></path>
                            </g>
                        </g>
                    </g>
                </g>
            </g>
        </g>
    </g>
</svg>