<?xml version="1.0" encoding="UTF-8"?>
<svg width="14px" height="14px" viewBox="0 0 14 14" version="1.1" xmlns="http://www.w3.org/2000/svg" xmlns:xlink="http://www.w3.org/1999/xlink">
    <!-- Generator: Sketch 63 (92445) - https://sketch.com -->
    <title>Icon - 警告-24</title>
    <desc>Created with Sketch.</desc>
    <g id="标识管理" stroke="none" stroke-width="1" fill="none" fill-rule="evenodd">
        <g id="标识使用新增" transform="translate(-203.000000, -468.000000)" fill="#FAAD14" fill-rule="nonzero">
            <g id="溯源标识使用" transform="translate(156.000000, 200.000000)">
                <g id="编组-5" transform="translate(0.000000, 147.000000)">
                    <g id="第一条" transform="translate(0.000000, 38.000000)">
                        <g id="编组-10" transform="translate(11.000000, 41.000000)">
                            <g id="Icon---警告-24" transform="translate(35.000000, 41.000000)">
                                <rect id="矩形" opacity="0" x="0" y="0" width="16" height="16"></rect>
                                <path d="M8.66666667,8.66666667 L7.33333333,8.66666667 L7.33333333,4.66666667 L8.66666667,4.66666667 L8.66666667,8.66666667 Z M8.66666667,11.3333333 L7.33333333,11.3333333 L7.33333333,10 L8.66666667,10 L8.66666667,11.3333333 Z M8,1.33333333 C4.31810166,1.33333333 1.33333333,4.31810166 1.33333333,8 C1.33333333,11.6818983 4.31810166,14.6666667 8,14.6666667 C11.6818983,14.6666667 14.6666667,11.6818983 14.6666667,8 C14.6666667,6.23189007 13.9642877,4.53619731 12.7140452,3.28595479 C11.4638027,2.03571226 9.76810993,1.33333333 8,1.33333333 Z" id="形状"></path>
                            </g>
                        </g>
                    </g>
                </g>
            </g>
        </g>
    </g>
</svg>