<?xml version="1.0" encoding="UTF-8"?>
<svg width="15px" height="17px" viewBox="0 0 15 17" version="1.1" xmlns="http://www.w3.org/2000/svg" xmlns:xlink="http://www.w3.org/1999/xlink">
    <!-- Generator: Sketch 63 (92445) - https://sketch.com -->
    <title>诉讼</title>
    <desc>Created with Sketch.</desc>
    <g id="溯源行业服务" stroke="none" stroke-width="1" fill="none" fill-rule="evenodd">
        <g id="溯源行业服务1.2" transform="translate(-177.000000, -1308.000000)">
            <g id="编组-4" transform="translate(120.000000, 134.000000)">
                <g id="问题反馈" transform="translate(0.000000, 1103.000000)">
                    <g id="诉讼" transform="translate(56.000000, 71.000000)">
                        <rect id="矩形" fill="#000000" fill-rule="nonzero" opacity="0" x="0" y="1" width="16" height="16"></rect>
                        <path d="M8.79071875,8.45301172 L3.72259375,13.5211367 C3.11240625,14.1313242 2.12307813,14.1313242 1.51289063,13.5211367 L1.45764063,13.4658867 C0.847453125,12.8556836 0.847453125,11.8663555 1.45764063,11.256168 L6.52576563,6.18804297 L6.37354687,6.03582422 L6.2635625,6.14580859 C6.0683125,6.34105859 5.75171875,6.34105859 5.55646875,6.14580859 L3.943375,4.53271484 C3.74810938,4.33744922 3.74810938,4.02087109 3.943375,3.82560547 L7.62254688,0.146449219 C7.81779687,-0.0488164062 8.13439063,-0.0488164062 8.32964062,0.146449219 L9.94273438,1.75952734 C10.138,1.95479297 10.138,2.27137109 9.94273438,2.46663672 L9.65495313,2.75441797 L12.2292656,5.32873047 L12.6385781,4.91941797 C12.8338437,4.72415234 13.1504219,4.72415234 13.3456875,4.91941797 L14.95875,6.53249609 C15.1540156,6.72776172 15.1540156,7.04433984 14.95875,7.23960547 L11.2796094,10.9187773 C11.0843438,11.1140273 10.7677656,11.1140273 10.5725,10.9187773 L8.95942188,9.30568359 C8.76801563,9.11429297 8.76423438,8.80633984 8.94803125,8.61032422 L8.79071875,8.45301172 Z M8.0875,7.74980859 L7.23676563,6.89905859 L2.24932812,11.8864961 C2.01440625,12.121418 2.01440625,12.5023086 2.24932812,12.7372305 C2.48426562,12.9721523 2.86514063,12.9721523 3.10007813,12.7372305 L8.0875,7.74980859 Z M12.9288125,6.04902734 L10.0890312,8.88882422 C10.0602262,8.93792174 10.0682158,9.00027813 10.1084688,9.04052734 L10.8376719,9.76973047 C10.8864861,9.81853863 10.9656232,9.81853863 11.0144375,9.76973047 L13.8097188,6.97444922 C13.8331622,6.95100699 13.8463327,6.91921177 13.8463327,6.88605859 C13.8463327,6.85290542 13.8331622,6.8211102 13.8097188,6.79766797 L13.0805156,6.06844922 C13.0402651,6.02820919 12.9779186,6.02022642 12.9288281,6.04902734 L12.9288125,6.04902734 Z M8.94839063,3.47633984 L7.10328125,5.32144922 L9.6665625,7.88471484 L11.5116719,6.03960547 L8.94839062,3.47633984 L8.94839063,3.47633984 Z M8.06448437,1.29549609 C8.04104214,1.27205265 8.00924693,1.25888216 7.97609375,1.25888216 C7.94294057,1.25888216 7.91114536,1.27205265 7.88770312,1.29549609 L5.09242188,4.09077734 C5.04361372,4.13959161 5.04361372,4.2187287 5.09242188,4.26754297 L5.82164063,4.99676172 C5.87045489,5.04556988 5.94959198,5.04556988 5.99840625,4.99676172 L8.7936875,2.20146484 C8.84249566,2.15265057 8.84249566,2.07351349 8.7936875,2.02469922 L8.06446875,1.29548047 L8.06448437,1.29549609 Z" id="形状" fill="#007AFF" fill-rule="nonzero"></path>
                        <rect id="矩形" fill="#FFC64B" x="3" y="15" width="8" height="1.5"></rect>
                    </g>
                </g>
            </g>
        </g>
    </g>
</svg>