<?xml version="1.0" encoding="UTF-8"?>
<svg width="42px" height="42px" viewBox="0 0 42 42" version="1.1" xmlns="http://www.w3.org/2000/svg" xmlns:xlink="http://www.w3.org/1999/xlink">
    <!-- Generator: Sketch 63 (92445) - https://sketch.com -->
    <title>申请</title>
    <desc>Created with Sketch.</desc>
    <g id="溯源行业服务" stroke="none" stroke-width="1" fill="none" fill-rule="evenodd">
        <g id="溯源行业服务1.2" transform="translate(-1099.000000, -567.000000)" fill-rule="nonzero">
            <g id="编组-4" transform="translate(120.000000, 134.000000)">
                <g id="溯源行业服务" transform="translate(0.000000, 351.000000)">
                    <g id="常用功能" transform="translate(900.000000, 61.000000)">
                        <g id="申请" transform="translate(79.000000, 21.000000)">
                            <rect id="矩形" fill="#007AFF" x="0" y="0" width="42" height="42" rx="8"></rect>
                            <g id="质量管理" transform="translate(8.000000, 9.000000)">
                                <rect id="矩形" fill="#000000" opacity="0" x="5" y="5" width="16" height="16"></rect>
                                <path d="M0.9921875,2.83825281 L0.9921875,12.9141075 C0.9921875,19.5573062 6.42680288,25.0351327 13.0700721,24.991864 C19.6614183,24.9485952 24.9921875,19.5948058 24.9921875,12.9919913 L24.9921875,2.83825281 C24.9921875,1.81999438 24.1643029,0.992118549 23.1460337,0.992118549 L2.83834135,0.992118549 C1.82007212,0.992118549 0.9921875,1.81999438 0.9921875,2.83825281 Z" id="形状" fill="#FFFFFF"></path>
                                <path d="M11.782,18.372 C13.658,16.804 14.848,14.83 15.352,12.422 L15.464,11.876 C16.22,14.396 17.284,16.552 18.67,18.344 L19.622,17.224 C17.83,15.18 16.57,12.436 15.842,8.992 C15.926,7.956 15.968,6.822 15.968,5.618 L14.624,5.618 C14.61,8.306 14.414,10.504 14.022,12.198 C13.518,14.214 12.482,15.908 10.886,17.28 L11.782,18.372 Z M9.822,8.628 L10.732,7.704 C10.102,7.004 9.332,6.318 8.422,5.632 L7.498,6.542 C8.492,7.27 9.262,7.97 9.822,8.628 Z M8.674,17.896 C9.696,17.224 10.648,16.482 11.544,15.656 L11.208,14.284 C10.704,14.76 10.242,15.18 9.808,15.544 L9.808,9.692 L6.574,9.692 L6.574,10.966 L8.534,10.966 L8.534,15.978 C8.534,16.272 8.408,16.51 8.17,16.706 L8.674,17.896 Z" id="认" fill="#007AFF"></path>
                            </g>
                        </g>
                    </g>
                </g>
            </g>
        </g>
    </g>
</svg>