<?xml version="1.0" encoding="UTF-8"?>
<svg width="15px" height="15px" viewBox="0 0 15 15" version="1.1" xmlns="http://www.w3.org/2000/svg" xmlns:xlink="http://www.w3.org/1999/xlink">
    <!-- Generator: Sketch 63 (92445) - https://sketch.com -->
    <title>企业</title>
    <desc>Created with Sketch.</desc>
    <g id="二级首页" stroke="none" stroke-width="1" fill="none" fill-rule="evenodd">
        <g id="常用功能交互" transform="translate(-1152.000000, -88.000000)" fill="#000000" fill-rule="nonzero">
            <g id="企业" transform="translate(1152.000000, 88.000000)">
                <rect id="矩形" opacity="0" x="0" y="0" width="15" height="15"></rect>
                <path d="M6.09375,9 L3.75,9 C3.46875,9 3.28125,9.1875 3.28125,9.46875 C3.28125,9.75 3.46875,9.9375 3.75,9.9375 L6.09375,9.9375 C6.375,9.9375 6.5625,9.75 6.5625,9.46875 C6.5625,9.1875 6.375,9 6.09375,9 Z M6.09375,5.25 L3.75,5.25 C3.46875,5.25 3.28125,5.4375 3.28125,5.71875 C3.28125,6 3.46875,6.1875 3.75,6.1875 L6.09375,6.1875 C6.375,6.1875 6.5625,6 6.5625,5.71875 C6.5625,5.4375 6.375,5.25 6.09375,5.25 Z" id="形状"></path>
                <path d="M14.53125,13.21875 L13.59375,13.21875 L13.59375,6.75 C13.59375,6.1875 13.171875,5.671875 12.609375,5.53125 L8.4375,4.453125 L8.4375,1.96875 C8.4375,1.640625 8.296875,1.3125 8.015625,1.125 C7.6875,0.890625 7.21875,0.796875 6.75,0.9375 L2.4375,2.015625 C1.828125,2.15625 1.40625,2.71875 1.40625,3.328125 L1.40625,13.265625 L0.46875,13.265625 C0.1875,13.265625 0,13.453125 0,13.734375 C0,14.015625 0.1875,14.203125 0.46875,14.203125 L14.53125,14.203125 C14.8125,14.203125 15,14.015625 15,13.734375 C15,13.453125 14.8125,13.21875 14.53125,13.21875 Z M7.5,13.21875 L2.34375,13.21875 L2.34375,3.328125 C2.34375,3.140625 2.484375,2.953125 2.671875,2.90625 L6.984375,1.78125 C7.21875,1.734375 7.359375,1.78125 7.453125,1.828125 C7.5,1.875 7.5,1.921875 7.5,1.96875 L7.5,13.21875 Z M12.65625,13.21875 L8.4375,13.21875 L8.4375,5.390625 L12.375,6.421875 C12.515625,6.46875 12.65625,6.65625 12.65625,6.75 L12.65625,13.21875 Z" id="形状"></path>
                <path d="M11.25,9 L9.84375,9 C9.5625,9 9.375,9.1875 9.375,9.46875 C9.375,9.75 9.5625,9.9375 9.84375,9.9375 L11.25,9.9375 C11.53125,9.9375 11.71875,9.75 11.71875,9.46875 C11.71875,9.1875 11.53125,9 11.25,9 Z" id="路径"></path>
            </g>
        </g>
    </g>
</svg>