<?xml version="1.0" encoding="UTF-8"?>
<svg width="14px" height="18px" viewBox="0 0 14 18" version="1.1" xmlns="http://www.w3.org/2000/svg" xmlns:xlink="http://www.w3.org/1999/xlink">
    <!-- Generator: Sketch 63 (92445) - https://sketch.com -->
    <title>侵权处理</title>
    <desc>Created with Sketch.</desc>
    <g id="溯源行业服务" stroke="none" stroke-width="1" fill="none" fill-rule="evenodd">
        <g id="溯源行业服务1.2" transform="translate(-418.000000, -720.000000)" fill-rule="nonzero">
            <g id="编组-4" transform="translate(120.000000, 134.000000)">
                <g id="溯源行业服务" transform="translate(0.000000, 351.000000)">
                    <g id="常用功能" transform="translate(240.000000, 61.000000)">
                        <g id="编组-13" transform="translate(30.000000, 165.000000)">
                            <g id="侵权处理" transform="translate(26.000000, 9.000000)">
                                <rect id="矩形" fill="#000000" opacity="0" x="0" y="0" width="18" height="18"></rect>
                                <path d="M9.444375,0.6631875 L14.506875,2.0435625 C15.2410392,2.24396561 15.7502246,2.91097543 15.7499999,3.672 L15.7499999,9.282375 C15.7499999,11.75175 14.491125,14.050125 12.4104375,15.379875 L9.63225,17.15625 C9.26424184,17.3913249 8.79344402,17.392202 8.4245625,17.1585 L5.6188125,15.381 C3.52127777,14.0520607 2.24999993,11.7418391 2.24999993,9.25875 L2.24999993,3.672 C2.24977544,2.91097543 2.75896082,2.24396561 3.493125,2.0435625 L8.555625,0.6631875 C8.84655299,0.583773538 9.15344701,0.583773538 9.444375,0.6631875 Z M9.1479375,1.7488125 C9.05107961,1.72240937 8.94892039,1.72240937 8.8520625,1.7488125 L3.7895625,3.1291875 C3.54476672,3.19591798 3.37499999,3.41827194 3.37499999,3.672 L3.37499999,9.25875 C3.37499999,11.356875 4.449375,13.30875 6.22125,14.4309375 L9.0264375,16.2084375 L11.8051875,14.4320625 C13.5619303,13.3088009 14.625,11.3675278 14.625,9.282375 L14.625,3.672 C14.625,3.41827194 14.4552333,3.19591798 14.2104375,3.1291875 L9.1479375,1.74825 L9.1479375,1.7488125 Z" id="形状" fill="#007AFF"></path>
                                <path d="M8.5910625,10.06875 L5.96475,7.4435625 C5.74403688,7.23039063 5.39320231,7.23343929 5.17622705,7.45041455 C4.95925179,7.66738981 4.95620313,8.01822438 5.169375,8.2389375 L8.193375,11.262375 C8.41303117,11.4819648 8.76909383,11.4819648 8.98875,11.262375 L13.2935625,6.9575625 C13.5067344,6.73684938 13.5036857,6.38601481 13.2867104,6.16903955 C13.0697352,5.95206429 12.7189006,5.94901563 12.4981875,6.1621875 L8.5910625,10.06875 Z" id="路径" fill="#FAAC08"></path>
                            </g>
                        </g>
                    </g>
                </g>
            </g>
        </g>
    </g>
</svg>