<?xml version="1.0" encoding="UTF-8"?>
<svg width="14px" height="14px" viewBox="0 0 14 14" version="1.1" xmlns="http://www.w3.org/2000/svg" xmlns:xlink="http://www.w3.org/1999/xlink">
    <!-- Generator: Sketch 63 (92445) - https://sketch.com -->
    <title>设置</title>
    <desc>Created with Sketch.</desc>
    <g id="新版导航" stroke="none" stroke-width="1" fill="none" fill-rule="evenodd">
        <g id="1.1" transform="translate(-1216.000000, -85.000000)" fill-rule="nonzero">
            <g id="外框">
                <g id="编组-23" transform="translate(1215.000000, 82.000000)">
                    <g id="设置" transform="translate(0.000000, 2.000000)">
                        <rect id="矩形" fill="#000000" opacity="0" x="0" y="0" width="16" height="16"></rect>
                        <path d="M7.971875,5.1875 C6.446875,5.1875 5.253125,6.4140625 5.253125,7.978125 C5.253125,9.54375 6.446875,10.76875 7.971875,10.76875 C9.4703125,10.76875 10.690625,9.5171875 10.690625,7.978125 C10.690625,6.440625 9.4703125,5.1875 7.971875,5.1875 L7.971875,5.1875 Z M7.971875,9.584375 C7.0953125,9.584375 6.4078125,8.8796875 6.4078125,7.978125 C6.4078125,7.078125 7.0953125,6.371875 7.971875,6.371875 C8.8484375,6.371875 9.5359375,7.078125 9.5359375,7.978125 C9.5359375,8.8796875 8.85,9.584375 7.971875,9.584375 L7.971875,9.584375 Z M14.8421875,6.615625 C14.7671875,6.1046875 14.425,5.7203125 13.940625,5.6109375 L13.859375,5.5984375 C13.496875,5.503125 13.2453125,5.2953125 13.025,4.909375 C12.8234375,4.5640625 12.7734375,4.153125 12.8765625,3.846875 C13.0734375,3.3765625 12.9375,2.8234375 12.559375,2.4921875 C11.909375,1.8609375 11.1390625,1.384375 10.309375,1.090625 C9.8703125,0.896875 9.38125,1.015625 9.0015625,1.4046875 L8.95625,1.4578125 C8.565625,1.96875 7.6796875,2.1296875 6.9421875,1.3734375 C6.7421875,1.16875 6.3109375,0.85625 5.6359375,1.090625 C4.7765625,1.4640625 4.0578125,1.9046875 3.475,2.409375 C3.05625,2.715625 2.88125,3.265625 3.04375,3.7546875 C3.1515625,4.19375 3.10625,4.596875 2.9125,4.953125 C2.75,5.24375 2.4296875,5.4859375 2.0484375,5.6046875 C1.9265625,5.625 1.8359375,5.675 1.7671875,5.7296875 C1.5046875,5.8859375 1.3078125,6.125 1.16875,6.4578125 L1.121875,6.6015625 L1.121875,6.665625 C1.0390625,7.1125 1,7.5421875 1,8.0109375 C1,8.3796875 1.0234375,8.9125 1.1328125,9.3796875 C1.209375,9.8890625 1.5515625,10.2703125 2.034375,10.3796875 L2.115625,10.3921875 C2.478125,10.4875 2.728125,10.69375 2.95,11.0796875 C3.1515625,11.425 3.2015625,11.8359375 3.0984375,12.14375 C2.9015625,12.6140625 3.0375,13.1671875 3.415625,13.4984375 C4.071875,14.1375 4.8546875,14.6140625 5.740625,14.9171875 L5.8296875,14.9484375 L5.8328125,14.9484375 C5.8875,14.9640625 5.959375,14.9796875 6.0453125,14.9796875 L6.1375,14.9796875 C6.4640625,14.9796875 6.7921875,14.8359375 7.0671875,14.55 C7.509375,14.0140625 8.378125,13.8828125 9.0953125,14.6171875 C9.3421875,14.8703125 9.6390625,15.0109375 9.93125,15.0109375 C10.0328125,15.0109375 10.21875,15.0109375 10.3703125,14.9328125 C11.215625,14.565625 11.925,14.1328125 12.5359375,13.6125 C12.94375,13.3359375 13.1265625,12.7640625 12.9625,12.2671875 C12.8546875,11.828125 12.9,11.425 13.09375,11.0703125 C13.25625,10.778125 13.5765625,10.5375 13.9578125,10.41875 C14.08125,10.4 14.1703125,10.3484375 14.240625,10.2921875 C14.503125,10.1359375 14.6984375,9.8984375 14.8375,9.565625 L14.884375,9.421875 L14.884375,9.3578125 C14.9671875,8.9109375 15.00625,8.4796875 15.0047325,7.9640625 C14.971875,7.51875 14.9390625,7.059375 14.8421875,6.615625 L14.8421875,6.615625 Z M13.7421875,9.1640625 C13.6984375,9.2453125 13.665625,9.2609375 13.6484375,9.2703125 L13.6375,9.2765625 C12.9640625,9.4828125 12.403125,9.91875 12.0875,10.4828125 C11.740625,11.115625 11.6578125,11.84375 11.8484375,12.5890625 L11.8578125,12.64375 L11.8203125,12.6765625 C11.309375,13.11875 10.709375,13.4890625 9.959375,13.8234375 C9.946875,13.815625 9.9296875,13.8015625 9.9078125,13.7796875 C9.35625,13.2140625 8.71875,12.915625 8.0609375,12.915625 C7.321875,12.915625 6.6375,13.2328125 6.215625,13.7484375 C6.171875,13.79375 6.134375,13.7953125 6.134375,13.7953125 L6.0359375,13.7640625 L6.0171875,13.7640625 C5.3265625,13.515625 4.71875,13.1359375 4.20625,12.6390625 L4.1703125,12.575 C4.4015625,11.903125 4.3140625,11.1171875 3.940625,10.4765625 C3.55,9.7953125 3.0171875,9.3859375 2.3140625,9.225 L2.26875,9.21875 L2.2734375,9.196875 L2.2609375,9.1265625 C2.19375,8.8484375 2.15625,8.453125 2.15625,8.0140625 C2.15625,7.6046875 2.1890625,7.2484375 2.2640625,6.859375 C2.30625,6.7796875 2.340625,6.7625 2.3578125,6.753125 L2.3671875,6.746875 C3.040625,6.540625 3.603125,6.1046875 3.9171875,5.540625 C4.2640625,4.9078125 4.346875,4.1796875 4.1390625,3.3875 L4.1828125,3.3484375 C4.7109375,2.890625 5.3328125,2.5109375 6.04375,2.2 C6.084375,2.1859375 6.1,2.1859375 6.1265625,2.2140625 C6.678125,2.7796875 7.315625,3.078125 7.9734375,3.078125 C8.7390625,3.078125 9.4,2.7765625 9.8375,2.228125 C9.8671875,2.2 9.890625,2.190625 9.8953125,2.1984375 C10.6078125,2.4515625 11.2375,2.840625 11.76875,3.35625 L11.8046875,3.4203125 C11.5734375,4.0921875 11.6609375,4.878125 12.034375,5.51875 C12.425,6.2 12.95625,6.609375 13.6609375,6.7703125 L13.6984375,6.7765625 C13.7,6.78125 13.7015625,6.7890625 13.703125,6.8 L13.7140625,6.859375 C13.7953125,7.2203125 13.8234375,7.6234375 13.8515625,8.0140625 C13.85,8.41875 13.8171875,8.7765625 13.7421875,9.1640625 Z" id="形状" fill="#333333"></path>
                    </g>
                </g>
            </g>
        </g>
    </g>
</svg>