<?xml version="1.0" encoding="UTF-8"?>
<svg width="56px" height="56px" viewBox="0 0 56 56" version="1.1" xmlns="http://www.w3.org/2000/svg" xmlns:xlink="http://www.w3.org/1999/xlink">
    <!-- Generator: Sketch 63 (92445) - https://sketch.com -->
    <title>申请</title>
    <desc>Created with Sketch.</desc>
    <g id="溯源标识管理" stroke="none" stroke-width="1" fill="none" fill-rule="evenodd">
        <g id="溯源标识管理（改）" transform="translate(-1142.000000, -747.000000)" fill-rule="nonzero">
            <g id="溯源标识小工具" transform="translate(120.000000, 655.000000)">
                <g id="编组-5" transform="translate(610.000000, 68.000000)">
                    <g id="编组-8" transform="translate(412.000000, 24.000000)">
                        <g id="申请">
                            <rect id="矩形" fill="#C9C9C9" x="0" y="0" width="56" height="56" rx="8"></rect>
                            <g id="问号" transform="translate(12.000000, 12.000000)">
                                <rect id="矩形" fill="#000000" opacity="0" x="0" y="0" width="32" height="32"></rect>
                                <path d="M22.4418162,7.31254653 C21.8092796,6.25655447 21.0153006,5.46522206 19.9063767,4.93590275 C18.8503846,4.40923003 17.6355968,4.14457034 16.2090811,4.14457034 C13.9383012,4.14457034 12.0883302,4.77710694 10.7676784,6.09775866 L10.7147465,6.09775866 C9.34380944,7.36283184 8.60276237,9.05400713 8.60276237,11.0601274 C8.60276237,11.2189232 8.65569431,11.324787 8.76155819,11.4280043 C8.86742206,11.5338682 8.97328591,11.5868001 9.12943512,11.5868001 L12.9325945,11.5868001 C13.0913903,11.5868001 13.1972542,11.5338682 13.3004714,11.4280043 C13.4063353,11.3221404 13.4592673,11.2162766 13.4592672,11.0601274 C13.4592672,10.3746588 13.7239269,9.84533953 14.1976677,9.42188403 C14.6211232,8.99842856 15.2536598,8.78934744 15.9947068,8.78934744 C16.7331073,8.78934744 17.3153585,8.94814325 17.7917459,9.31602019 C18.1596229,9.68389713 18.3184187,10.0014887 18.3713506,10.4778761 C18.3713506,10.7954677 18.2654867,11.1104127 18.1596229,11.3750724 C17.8949632,11.692664 17.3153585,12.3252006 16.3096518,13.1721115 L16.3625837,13.1721115 C15.2536598,14.1222397 14.4596807,15.1782317 13.933008,16.2898023 C13.4063353,17.4516583 13.1946076,18.6664461 13.1946076,20.0400298 L13.1946076,20.6725664 C13.1946076,20.8313622 13.1946076,20.937226 13.3534033,21.0430899 C13.4592672,21.1489538 13.5651311,21.2018857 13.7239269,21.2018857 L17.6329501,21.2018857 C17.738814,21.2018857 17.8976098,21.1489538 18.0034737,21.0430899 C18.1093375,20.9372261 18.1622695,20.8313622 18.1622695,20.7254983 C18.1622695,19.8283021 18.2681333,19.1931188 18.4269291,18.7193781 L18.4269291,18.6664461 C18.532793,18.1927053 18.6915888,17.8751137 18.8503846,17.663386 L18.9033165,17.6104541 C19.1150443,17.2928625 19.5887851,16.7661897 20.382764,16.0251427 C21.2799603,15.2338103 21.8622116,14.5986271 22.1268712,14.2281036 C22.5476801,13.6484989 22.8652717,13.0133157 23.0769994,12.4310644 C23.2887271,11.7985278 23.394591,11.1633447 23.394591,10.58374 C23.3919444,9.42453063 23.0743528,8.31560666 22.4418162,7.31254653 L22.4418162,7.31254653 Z M17.9002564,22.6813332 C17.3206517,22.1017286 16.5796047,21.8370689 15.7353403,21.8370689 C14.9440079,21.8370689 14.2029609,22.1017286 13.6233562,22.6813332 L13.5704243,22.6813332 C12.9908196,23.3138698 12.673228,24.0019849 12.673228,24.8462493 C12.673228,25.6375817 12.9908196,26.3786288 13.6233562,27.0111653 C14.2029609,27.5378381 14.9440079,27.8554297 15.7353403,27.8554297 C16.5796047,27.8554297 17.3206517,27.5378381 17.9531883,27.0111653 L17.9531883,26.9582334 C18.532793,26.3786288 18.7974527,25.6375817 18.7974527,24.8462493 C18.7974527,24.0019849 18.532793,23.3138698 17.9531883,22.6813332 L17.9002564,22.6813332 L17.9002564,22.6813332 Z" id="形状" fill="#FFFFFF"></path>
                            </g>
                        </g>
                    </g>
                </g>
            </g>
        </g>
    </g>
</svg>