<?xml version="1.0" encoding="UTF-8"?>
<svg width="39px" height="40px" viewBox="0 0 39 40" version="1.1" xmlns="http://www.w3.org/2000/svg" xmlns:xlink="http://www.w3.org/1999/xlink">
    <!-- Generator: Sketch 63 (92445) - https://sketch.com -->
    <title>形状</title>
    <desc>Created with Sketch.</desc>
    <g id="二级首页" stroke="none" stroke-width="1" fill="none" fill-rule="evenodd">
        <g transform="translate(-350.000000, -200.000000)" fill="#007AFF" fill-rule="nonzero" id="常用功能">
            <g transform="translate(120.000000, 134.000000)">
                <g id="溯源商品维护" transform="translate(203.000000, 66.000000)">
                    <path d="M27,4.8225 C27,2.43483335 28.9348334,0.5 31.3225,0.5 L61.6775,0.5 C64.0651666,0.5 66,2.43483335 66,4.8225 L66,35.1775 C66,37.5647508 64.0647508,39.5 61.6775,39.5 L31.3225,39.5 C30.1761017,39.5 29.0766569,39.0445951 28.2660309,38.2339691 C27.4554049,37.4233431 27,36.3238983 27,35.1775 L27,4.8225 Z M51.1256738,31.9297783 C53.2212204,32.2910794 54.1244732,31.3155664 53.8354323,29.0032391 L53.8354323,29.0032391 L53.8354323,23.6921124 L56.4368005,23.6921124 C58.0987857,23.9088931 58.8213879,23.0779005 58.6046073,21.1991346 L58.6046073,21.1991346 L58.6046073,11.1188329 L53.2934806,11.1188329 L53.8354323,10.0349295 L58.4962169,10.0349295 L58.4962169,7 L41.3705431,7 L41.3705431,28.2445067 C41.3705431,28.7503283 41.1898926,29.0032391 40.8285914,29.0032391 L40.8285914,29.0032391 L39.8530784,29.0032391 L39.8530784,31.9297783 L42.7796176,31.9297783 C44.4416028,32.146559 45.1642051,31.3516965 44.9474244,29.5451908 L44.9474244,29.5451908 L44.9474244,10.0349295 L49.7165994,10.0349295 L49.283038,11.1188329 L45.5977664,11.1188329 L45.5977664,23.6921124 L50.2585511,23.6921124 L50.2585511,28.4612874 C50.2585511,28.967109 50.1140306,29.1838897 49.8249897,29.1116294 L49.8249897,29.1116294 L49.283038,29.1116294 L49.283038,31.9297783 L51.1256738,31.9297783 Z M35.0839034,12.5279074 C35.1561636,13.8285914 35.7703756,14.4066733 36.9265392,14.2621528 L36.9265392,14.2621528 L40.1782494,14.2621528 L40.1782494,11.1188329 L39.2027363,11.1188329 C38.8414352,11.1910932 38.6246545,10.9381824 38.5523943,10.3601006 L38.5523943,10.3601006 L38.0104426,7.10839034 L34.4335614,7.10839034 L35.0839034,12.5279074 Z M55.1361164,15.8880079 L48.8494766,15.8880079 L48.8494766,14.2621528 L55.1361164,14.2621528 L55.1361164,15.8880079 Z M35.0839034,20.7655732 C35.3006841,21.8494766 35.7703756,22.3191681 36.4929778,22.1746477 L36.4929778,22.1746477 L40.2866397,22.1746477 L40.2866397,19.1397181 L38.8775653,19.1397181 C38.5162642,19.2119783 38.2633534,18.9590676 38.1188329,18.3809857 L38.1188329,18.3809857 L37.4684909,15.5628369 L34,15.5628369 L35.0839034,20.7655732 Z M55.1361164,19.8984505 C55.2083766,20.4765323 54.9554658,20.7294431 54.377384,20.6571829 L54.377384,20.6571829 L48.8494766,20.6571829 L48.8494766,19.0313278 L55.1361164,19.0313278 L55.1361164,19.8984505 Z M36.4929778,31.9297783 C38.154963,32.0742987 38.9859557,31.532347 38.9859557,30.3039232 L38.9859557,30.3039232 L40.0698591,23.3669414 L36.4929778,23.3669414 L35.6258551,28.4612874 C35.6258551,28.8225885 35.4090744,29.0032391 34.9755131,29.0032391 L34.9755131,29.0032391 L34.2167807,29.0032391 L34.2167807,31.9297783 L36.4929778,31.9297783 Z M46.8984505,31.8213879 C48.0546141,31.8936482 48.632696,31.6046073 48.632696,30.9542652 L48.632696,30.9542652 L49.8249897,24.5592351 L46.6816698,24.5592351 L45.9229374,28.3528971 C45.9229374,28.641938 45.778417,28.7864584 45.4893761,28.7864584 L45.4893761,28.7864584 L45.1642051,28.7864584 L45.1642051,31.8213879 L46.8984505,31.8213879 Z M55.3528971,30.4123135 C55.4974175,31.4962169 56.0754993,31.9659084 57.0871425,31.8213879 L57.0871425,31.8213879 L58.6046073,31.8213879 L58.6046073,29.0032391 C58.3155664,29.0032391 58.1710459,28.8587186 58.1710459,28.5696777 L58.1710459,28.5696777 L57.4123135,24.5592351 L54.2689937,24.5592351 L55.3528971,30.4123135 Z" id="形状"></path>
                </g>
            </g>
        </g>
    </g>
</svg>