<?xml version="1.0" encoding="UTF-8"?>
<svg width="15px" height="15px" viewBox="0 0 15 15" version="1.1" xmlns="http://www.w3.org/2000/svg" xmlns:xlink="http://www.w3.org/1999/xlink">
    <!-- Generator: Sketch 63 (92445) - https://sketch.com -->
    <title>风险点</title>
    <desc>Created with Sketch.</desc>
    <g id="新版导航" stroke="none" stroke-width="1" fill="none" fill-rule="evenodd">
        <g id="1.1" transform="translate(-1039.000000, -84.000000)" fill="#000000" fill-rule="nonzero">
            <g id="外框">
                <g id="编组-18" transform="translate(1039.000000, 82.000000)">
                    <g id="风险点" transform="translate(0.000000, 2.000000)">
                        <rect id="矩形" opacity="0" x="0" y="0" width="15" height="15"></rect>
                        <path d="M7.95970588,8.28970588 L7.95970588,12.5214706 C7.95970588,13.4638235 7.17705882,14.2341177 6.22323529,14.2341177 C5.26852941,14.2341177 4.48588235,13.4638235 4.48588235,12.5223529 C4.48588235,12.2523529 4.71794117,12.0194118 4.99941176,12.0194118 C5.2817647,12.0194118 5.51382352,12.24 5.51382353,12.5223529 C5.5326852,12.90041 5.84470805,13.1972538 6.2232353,13.1972538 C6.60176254,13.1972538 6.9137854,12.90041 6.93264706,12.5223529 L6.93264706,8.28882353 L1.34117647,8.28882353 C1.20639473,8.2907072 1.07642232,8.23878483 0.980037554,8.14455298 C0.883652783,8.05032114 0.828808072,7.92155461 0.827647061,7.78676471 C0.827647061,6.03794118 1.52470588,4.39852942 2.77235294,3.16323529 C3.85233903,2.08361187 5.27678143,1.41697782 6.79764706,1.27941176 L6.93264706,1.26705882 L6.93264706,0.53382353 C6.93264706,0.264705879 7.16470588,0.0326470605 7.44617647,0.0326470605 C7.72764706,0.0326470605 7.95970588,0.253235303 7.95970588,0.53382353 L7.95970588,1.26794118 L8.09470588,1.28029412 C9.61425772,1.42081147 11.0371875,2.08702968 12.1182353,3.16411765 C13.3667647,4.39941177 14.0638235,6.03882353 14.0638235,7.78764706 C14.0571239,8.06657071 13.8292979,8.28930776 13.5502941,8.28970588 L7.95882353,8.28970588 L7.95970588,8.28970588 Z M13.0120588,7.28647059 L12.9873529,7.10294118 C12.645,4.33852942 10.2591177,2.25882353 7.44617647,2.25882353 C4.63235294,2.25882353 2.24735294,4.35 1.905,7.11529412 L1.88029412,7.28647059 L13.0120588,7.28647059 Z" id="形状"></path>
                    </g>
                </g>
            </g>
        </g>
    </g>
</svg>