<?xml version="1.0" encoding="UTF-8"?>
<svg width="16px" height="16px" viewBox="0 0 16 16" version="1.1" xmlns="http://www.w3.org/2000/svg" xmlns:xlink="http://www.w3.org/1999/xlink">
    <!-- Generator: Sketch 63 (92445) - https://sketch.com -->
    <title>提示</title>
    <desc>Created with Sketch.</desc>
    <g id="我的定制" stroke="none" stroke-width="1" fill="none" fill-rule="evenodd">
        <g transform="translate(-134.000000, -199.000000)" fill-rule="nonzero" id="编组">
            <g transform="translate(120.000000, 186.000000)">
                <g id="提示" transform="translate(14.000000, 13.000000)">
                    <rect id="矩形" fill="#000000" opacity="0" x="0" y="0" width="16" height="16"></rect>
                    <path d="M15.999796,8.10010072 C15.999796,12.4200456 12.4178417,16.0000003 7.89989928,16.0000003 C3.57995436,16.0000003 8.8817842e-16,12.4180457 8.8817842e-16,8.10010072 C8.8817842e-16,3.58215833 3.58195433,0.000204 7.89989928,0.000204 C10.0527831,-0.0151081249 12.1219321,0.833353485 13.6442893,2.3557107 C15.1666465,3.87806792 16.0151081,5.94721695 15.999796,8.10010072 Z M7.999898,4.06615216 C7.83139105,4.06342274 7.66931064,4.13075804 7.55234267,4.25208625 C7.43537469,4.37341446 7.37401382,4.5378497 7.38290588,4.706144 L7.54890375,9.20608663 C7.5652934,9.5610517 7.85557916,9.8416905 8.21089531,9.84607851 L7.78690072,9.84607851 C8.14652346,9.84619671 8.44067119,9.55959122 8.44989227,9.2000867 L8.61589014,4.70014408 C8.6216149,4.53352998 8.55912033,4.37179145 8.44285211,4.25231454 C8.3265839,4.13283762 8.16660619,4.0659642 7.999898,4.06715214 L7.999898,4.06615216 Z M7.999898,11.9340518 C8.35335574,11.9340518 8.63988984,11.6475177 8.63988984,11.29406 C8.63988984,10.9406023 8.35335574,10.6540682 7.999898,10.6540682 C7.64644026,10.6540682 7.35990616,10.9406023 7.35990616,11.29406 C7.35990616,11.6475177 7.64644026,11.9340518 7.999898,11.9340518 L7.999898,11.9340518 Z" id="形状" fill="#467CFD"></path>
                </g>
            </g>
        </g>
    </g>
</svg>