<?xml version="1.0" encoding="UTF-8"?>
<svg width="12px" height="12px" viewBox="0 0 12 12" version="1.1" xmlns="http://www.w3.org/2000/svg" xmlns:xlink="http://www.w3.org/1999/xlink">
    <!-- Generator: Sketch 63 (92445) - https://sketch.com -->
    <title>等级备份 2</title>
    <desc>Created with Sketch.</desc>
    <g id="公证办理" stroke="none" stroke-width="1" fill="none" fill-rule="evenodd">
        <g id="公证书详情" transform="translate(-573.000000, -237.000000)" fill-rule="nonzero">
            <g id="证书总信息" transform="translate(120.000000, 176.000000)">
                <g id="编组-3" transform="translate(298.000000, 56.000000)">
                    <g id="编组-5" transform="translate(113.000000, 3.000000)">
                        <g id="等级备份-2" transform="translate(40.000000, 0.000000)">
                            <rect id="矩形" fill="#000000" opacity="0" x="0" y="0" width="16" height="16"></rect>
                            <path d="M13.90608,6.59368 L12.15408,3.24272 C12.0116721,2.97051013 11.7298504,2.79999998 11.42264,2.79999998 L4.66264,2.79999998 C4.35413388,2.79999998 4.07136626,2.9719957 3.9296,3.246 L2.17176,6.646 C2.01147055,6.95601498 2.06386966,7.33338476 2.30256,7.588 L7.39304,13.01904 C7.54868433,13.1850592 7.76595886,13.2794638 7.99352708,13.2799504 C8.22109531,13.2804331 8.43876996,13.1869548 8.59512,13.0216 L13.77448,7.5416 C14.0161428,7.28608828 14.0689994,6.90535998 13.90608,6.59368 L13.90608,6.59368 Z M11.2072,7.26152 L8.64,9.91344 C8.47721154,10.0827344 8.25238285,10.1782599 8.01752,10.1779254 L8.016,10.1779254 C7.78176133,10.1787524 7.55727802,10.0841876 7.39424,9.916 L4.80432,7.26288 C4.63790974,7.08122741 4.64586507,6.80024489 4.82228662,6.62829874 C4.99870816,6.45635259 5.27980232,6.45561813 5.45712,6.62664 L8.016,9.248 L10.552,6.628 C10.7288818,6.45795622 11.0086051,6.45835994 11.1849953,6.62891359 C11.3613856,6.79946724 11.3711979,7.07901862 11.2072,7.26152 L11.2072,7.26152 Z" id="形状" fill="#F19149"></path>
                        </g>
                    </g>
                </g>
            </g>
        </g>
    </g>
</svg>