<?xml version="1.0" encoding="UTF-8"?>
<svg width="16px" height="16px" viewBox="0 0 16 16" version="1.1" xmlns="http://www.w3.org/2000/svg" xmlns:xlink="http://www.w3.org/1999/xlink">
    <!-- Generator: Sketch 63 (92445) - https://sketch.com -->
    <title>咨询</title>
    <desc>Created with Sketch.</desc>
    <g id="溯源行业服务" stroke="none" stroke-width="1" fill="none" fill-rule="evenodd">
        <g id="溯源行业服务1.2" transform="translate(-184.000000, -671.000000)" fill-rule="nonzero">
            <g id="编组-4" transform="translate(120.000000, 134.000000)">
                <g id="溯源行业服务" transform="translate(0.000000, 351.000000)">
                    <g id="常用功能" transform="translate(20.000000, 61.000000)">
                        <g id="编组-13" transform="translate(30.000000, 115.000000)">
                            <g id="咨询" transform="translate(14.000000, 10.000000)">
                                <rect id="矩形" fill="#000000" opacity="0" x="0" y="1" width="16" height="16"></rect>
                                <path d="M5.04975609,15.9781463 C4.95453658,15.9781463 4.86087805,15.9562927 4.77502439,15.9141463 C4.56741464,15.809561 4.4347317,15.5972683 4.4347317,15.3646829 L4.4347317,13.052878 C1.73112195,11.8961951 0.007804875,9.52039025 0.007804875,6.89482927 C0.007804875,3.10321952 3.58712195,0.0202926875 7.98751219,0.0202926875 C12.3879024,0.0202926875 15.9672195,3.1047805 15.9672195,6.89482927 C15.9672195,10.625561 12.5002927,13.6710244 8.19668292,13.7662439 L5.41970731,15.8548293 C5.312,15.934439 5.18243902,15.9781463 5.04975609,15.9781463 Z M7.98751219,1.24721952 C4.26458536,1.24721952 1.23629269,3.78068294 1.23629269,6.8932683 C1.23629269,9.12702439 2.81756098,11.1547317 5.26360975,12.0600976 C5.504,12.1490732 5.66478048,12.3785366 5.66478048,12.6360976 L5.66478048,14.1330732 L7.61912195,12.6626341 C7.7252683,12.5830244 7.85482927,12.5393171 7.98751219,12.5393171 C11.710439,12.5393171 14.7387317,10.0058537 14.7387317,6.8932683 C14.7387317,3.78068294 11.710439,1.24721952 7.98751219,1.24721952 Z" id="形状" fill="#007AFF"></path>
                                <path d="M7.60039025,11.9127805 C5.37287806,11.9127805 3.55590244,10.5781463 2.74107317,8.3412683 L4.18185366,7.81521952 C4.77502439,9.44331708 6.02068292,10.3783415 7.59882927,10.3783415 L7.59882927,11.9127805 L7.60039025,11.9127805 Z" id="路径" fill="#FFC64B"></path>
                            </g>
                        </g>
                    </g>
                </g>
            </g>
        </g>
    </g>
</svg>