<?xml version="1.0" encoding="UTF-8"?>
<svg width="39px" height="40px" viewBox="0 0 39 40" version="1.1" xmlns="http://www.w3.org/2000/svg" xmlns:xlink="http://www.w3.org/1999/xlink">
    <!-- Generator: Sketch 63 (92445) - https://sketch.com -->
    <title>编组 9</title>
    <desc>Created with Sketch.</desc>
    <g id="二级首页" stroke="none" stroke-width="1" fill="none" fill-rule="evenodd">
        <g transform="translate(-687.000000, -200.000000)" fill-rule="nonzero" id="常用功能">
            <g transform="translate(120.000000, 134.000000)">
                <g id="公证办理" transform="translate(562.000000, 66.000000)">
                    <g id="编组-9" transform="translate(5.000000, 0.500000)">
                        <g id="编组-4" fill="#007AFF">
                            <path d="M0,4.3225 C0,1.93483335 1.93483335,0 4.3225,0 L34.6775,0 C37.0651666,0 39,1.93483335 39,4.3225 L39,34.6775 C39,37.0647508 37.0647508,39 34.6775,39 L4.3225,39 C3.17610172,39 2.07665693,38.5445951 1.26603094,37.7339691 C0.455404942,36.9233431 0,35.8238983 0,34.6775 L0,4.3225 Z" id="形状"></path>
                        </g>
                        <g id="账号" transform="translate(5.000000, 4.500000)">
                            <rect id="矩形" fill="#000000" opacity="0" x="0" y="0.478632479" width="28" height="24.8888889"></rect>
                            <path d="M9.32420291,12.9314649 C11.2152114,14.8388322 14.0590508,15.4094004 16.5297112,14.3771282 C19.0003717,13.344856 20.6114372,10.9130187 20.6114372,8.21552008 C20.6114372,5.51802146 19.0007797,3.08605382 16.5302014,2.05358164 C14.9406484,1.38954686 13.0593516,1.38954686 11.4697986,2.05358164 C9.42996982,2.90635069 7.94665867,4.72979555 7.51578211,6.91428207 C7.08490555,9.09876859 7.76331716,11.3560567 9.32420291,12.9314649 Z M19.2976326,16.4101577 L8.70161547,16.4101577 C5.61875496,16.4101577 3.11111111,18.9400126 3.11111111,22.0497129 C3.11111111,25.1594132 5.61913092,27.6888889 8.70161547,27.6888889 L19.2980086,27.6888889 C22.3808691,27.6888889 24.8888889,25.1594132 24.8888889,22.0497129 C24.8888889,18.9400126 22.381245,16.4101577 19.2980086,16.4101577 L19.2976326,16.4101577 Z" id="形状" fill="#FFFFFF"></path>
                        </g>
                    </g>
                </g>
            </g>
        </g>
    </g>
</svg>