<?xml version="1.0" encoding="UTF-8"?>
<svg width="12px" height="12px" viewBox="0 0 12 12" version="1.1" xmlns="http://www.w3.org/2000/svg" xmlns:xlink="http://www.w3.org/1999/xlink">
    <!-- Generator: Sketch 63 (92445) - https://sketch.com -->
    <title>星星</title>
    <desc>Created with Sketch.</desc>
    <g id="溯源收益" stroke="none" stroke-width="1" fill="none" fill-rule="evenodd">
        <g id="溯源收益1.0" transform="translate(-156.000000, -1074.000000)" fill-rule="nonzero">
            <g id="编组-7" transform="translate(141.000000, 1020.000000)">
                <g id="星星" transform="translate(15.000000, 54.000000)">
                    <rect id="矩形" fill="#000000" opacity="0" x="0" y="0" width="12" height="12"></rect>
                    <path d="M2.4,0 L9.6,0 C11.2,0 12,0.8 12,2.4 L12,9.6 C12,11.2 11.2,12 9.6,12 L2.4,12 C0.8,12 0,11.2 0,9.6 L0,2.4 C0,0.8 0.8,0 2.4,0 Z" id="路径" fill="#FFC200"></path>
                    <path d="M9.6,0 L6.261,0 C3.35053236,0.709763817 0.995410671,2.84144799 6.66133815e-16,5.667 L6.66133815e-16,9.6 C6.66133815e-16,10.9254834 1.0745166,12 2.4,12 L9.6,12 C10.9254834,12 12,10.9254834 12,9.6 L12,2.4 C12,1.0745166 10.9254834,0 9.6,0 Z" id="路径" fill="#FFC81A"></path>
                    <path d="M9.6,0 L9.555,0 C6.9970318,0.553134193 4.81505193,2.21005946 3.59536446,4.52555536 C2.375677,6.84105125 2.24337193,9.57764272 3.234,12 L9.6,12 C10.9254834,12 12,10.9254834 12,9.6 L12,2.4 C12,1.0745166 10.9254834,0 9.6,0 Z" id="路径" fill="#FFD550"></path>
                    <path d="M5.8259932,8.451 C5.82448341,9.6725582 6.07681721,10.8811043 6.567,12 L9.6,12 C10.9254834,12 12,10.9254834 12,9.6 L12,2.4 C11.999928,1.60819119 11.6093143,0.867371975 10.956,0.42 C7.82765023,1.86921198 5.82568806,5.00327792 5.8259932,8.451 L5.8259932,8.451 Z" id="路径" fill="#FFCB26"></path>
                    <path d="M6.165,1.641 L7.317,3.975 L9.9,4.35 C9.96408786,4.36275144 10.0165138,4.40870757 10.0375483,4.47057359 C10.0585827,4.53243961 10.0450336,4.60082725 10.002,4.65 L8.13,6.48 L8.571,9.048 C8.5819521,9.1160695 8.55371737,9.1845173 8.4979591,9.22506877 C8.44220084,9.26562023 8.36838358,9.27139206 8.307,9.24 L6.003,8.04 L3.699,9.24 C3.63761642,9.27139206 3.56379916,9.26562023 3.5080409,9.22506877 C3.45228263,9.1845173 3.4240479,9.1160695 3.435,9.048 L3.87,6.48 L2.004,4.662 C1.96096637,4.61282725 1.94741729,4.54443961 1.96845174,4.48257359 C1.98948619,4.42070757 2.04191214,4.37475144 2.106,4.362 L4.683,3.987 L5.835,1.653 C5.86306663,1.58834002 5.92577561,1.54554796 5.99621769,1.54298643 C6.06665977,1.54042489 6.13231116,1.57854931 6.165,1.641 L6.165,1.641 Z" id="路径" fill="#FFF5CC"></path>
                    <path d="M7.8,4.8 C7.91786727,4.56784114 8.01814877,4.32716554 8.1,4.08 L7.332,3.969 L6.165,1.641 C6.13393018,1.57920013 6.07067049,1.54019945 6.0015,1.54019945 C5.93232951,1.54019945 5.86906982,1.57920013 5.838,1.641 L4.686,3.975 L2.1,4.35 C2.03591214,4.36275144 1.98348619,4.40870757 1.96245174,4.47057359 C1.94141729,4.53243961 1.95496637,4.60082725 1.998,4.65 L3.87,6.48 L3.693,7.5 C5.45536834,7.42689293 7.0341763,6.3889622 7.8,4.8 Z" id="路径" fill="#FFFFFF"></path>
                </g>
            </g>
        </g>
    </g>
</svg>