<?xml version="1.0" encoding="UTF-8"?>
<svg width="22px" height="12px" viewBox="0 0 22 12" version="1.1" xmlns="http://www.w3.org/2000/svg" xmlns:xlink="http://www.w3.org/1999/xlink">
    <!-- Generator: Sketch 63 (92445) - https://sketch.com -->
    <title>左_2</title>
    <desc>Created with Sketch.</desc>
    <g id="登记" stroke="none" stroke-width="1" fill="none" fill-rule="evenodd">
        <g id="企业及其他组织登录1.2" transform="translate(-165.000000, -831.000000)" fill-rule="nonzero">
            <g id="编组-15" transform="translate(121.000000, 803.000000)">
                <g id="编组-7" transform="translate(30.000000, 17.000000)">
                    <g id="左_2" transform="translate(12.000000, 4.000000)">
                        <rect id="矩形" fill="#000000" opacity="0" x="0" y="0" width="26" height="26"></rect>
                        <path d="M12.2052734,15.6583984 L22.8947266,15.6583984 C23.2628906,15.6583984 23.5625,15.3587891 23.5625,14.990625 L23.5625,11.05 C23.5625,10.6818359 23.2628906,10.3822266 22.8947266,10.3822266 L12.2052734,10.3822266 L12.2052734,7.68574219 C12.2052734,7.42675781 11.9234375,7.26679688 11.7025391,7.39628906 L2.65078125,12.7054687 C2.42988281,12.8349609 2.42988281,13.1523438 2.65078125,13.2818359 L11.7,18.5910156 C11.9234375,18.7230469 12.2027344,18.5605469 12.2027344,18.3015625 L12.2027344,15.6583984 L12.2052734,15.6583984 Z" id="路径" fill="#999999"></path>
                    </g>
                </g>
            </g>
        </g>
    </g>
</svg>