<?xml version="1.0" encoding="UTF-8"?>
<svg width="17px" height="20px" viewBox="0 0 17 20" version="1.1" xmlns="http://www.w3.org/2000/svg" xmlns:xlink="http://www.w3.org/1999/xlink">
    <!-- Generator: Sketch 63 (92445) - https://sketch.com -->
    <title>投诉</title>
    <desc>Created with Sketch.</desc>
    <g id="溯源行业服务" stroke="none" stroke-width="1" fill="none" fill-rule="evenodd">
        <g id="溯源行业服务1.2" transform="translate(-185.000000, -717.000000)">
            <g id="编组-4" transform="translate(120.000000, 134.000000)">
                <g id="溯源行业服务" transform="translate(0.000000, 351.000000)">
                    <g id="常用功能" transform="translate(20.000000, 61.000000)">
                        <g id="编组-13" transform="translate(30.000000, 164.000000)">
                            <g id="投诉" transform="translate(15.000000, 7.000000)">
                                <rect id="矩形" fill="#000000" fill-rule="nonzero" opacity="0" x="0" y="2" width="16" height="16"></rect>
                                <path d="M7.68026557,16.4460937 C7.13649018,16.4460937 6.59035054,16.2380252 6.17660839,15.8242525 L1.45285516,11.104879 C0.623006615,10.2749692 0.623006615,8.9248879 1.45285516,8.09497804 L8.47937898,1.06793504 C8.88129993,0.665984396 9.41561836,0.44609375 9.98303617,0.44609375 C10.550454,0.44609375 11.0871366,0.665984396 11.4866934,1.06793504 L16.2080823,5.78967288 C17.0379309,6.61958274 17.0379309,7.96966402 16.2080823,8.79957387 L9.18392276,15.8242525 C8.77018061,16.2403896 8.22404097,16.4460937 7.68026557,16.4460937 Z M9.521982,1.66485357 L2.05112434,9.13789026 C1.75691689,9.4320845 1.75691689,9.90983584 2.05112434,10.2040301 L7.07276781,15.2254481 C7.36697526,15.5196423 7.84474805,15.5196423 8.1389555,15.2254481 L15.6098132,7.75492586 C15.9040206,7.46073162 15.9040206,6.98298028 15.6098132,6.68878604 L10.5906843,1.66736805 C10.4473525,1.52404265 10.2587579,1.44609375 10.0550758,1.44609375 C9.85139376,1.44609375 9.66279924,1.52404265 9.521982,1.66485357 Z M2.4627904,10.4460937 C2.15290075,10.4460937 1.88306486,10.2415385 1.83668682,9.95743407 C1.78820068,9.64681319 2.02852327,9.35892067 2.3742505,9.31535798 L9.1096072,8.45168041 C9.45533443,8.40811773 9.77576455,8.62403712 9.82425068,8.934658 C9.87273682,9.24527888 9.63241423,9.53317141 9.286687,9.57673409 L2.5513303,10.4404117 C2.521817,10.4441997 2.4923037,10.4460937 2.4627904,10.4460937 Z M9.31905631,9.43977122 C9.00842061,9.3912985 8.79249092,9.07095705 8.83605568,8.72532549 L9.69977446,1.98972503 C9.74333922,1.64409346 10.0312455,1.40383738 10.3418812,1.4523101 C10.6525169,1.50078282 10.8684466,1.82112426 10.8248818,2.16675583 L9.96116304,8.90024878 C9.92138652,9.21848272 9.67893914,9.44609375 9.40050348,9.44609375 C9.3739858,9.44609375 9.34746812,9.44398624 9.31905631,9.43977122 Z M6.49269753,15.4460937 C6.46189104,15.4460937 6.43108454,15.4439229 6.39807758,15.4395813 C6.0372015,15.3896528 5.78634861,15.0596902 5.83695928,14.7036779 L6.51690264,10.0060525 C6.56751331,9.6500402 6.90198383,9.40256825 7.26285992,9.4524968 C7.623736,9.50242535 7.87458889,9.83238795 7.82397822,10.1884002 L7.14403486,14.8860257 C7.09782512,15.2116466 6.81396527,15.4460937 6.49269753,15.4460937 Z M9.83687192,6.87840552 C9.78694245,6.51754943 10.0344189,6.18309745 10.3904377,6.13248959 L15.0881487,5.45258392 C15.4441675,5.40197605 15.7741361,5.65281504 15.8240656,6.01367112 C15.873995,6.37452721 15.6265186,6.70897919 15.2704998,6.75958705 L10.5727888,7.43949272 C10.5445678,7.44389341 10.5120051,7.44609375 10.4816132,7.44609375 C10.1624988,7.44609375 9.88463053,7.20845682 9.83687192,6.87840552 Z" id="形状" fill="#007AFF" fill-rule="nonzero"></path>
                                <rect id="矩形" fill="#FFC64B" x="4" y="18" width="8" height="1.5"></rect>
                            </g>
                        </g>
                    </g>
                </g>
            </g>
        </g>
    </g>
</svg>