<?xml version="1.0" encoding="UTF-8"?>
<svg width="12px" height="12px" viewBox="0 0 12 12" version="1.1" xmlns="http://www.w3.org/2000/svg" xmlns:xlink="http://www.w3.org/1999/xlink">
    <!-- Generator: Sketch 63 (92445) - https://sketch.com -->
    <title>编辑</title>
    <desc>Created with Sketch.</desc>
    <g id="登记" stroke="none" stroke-width="1" fill="none" fill-rule="evenodd">
        <g id="企业登记变更" transform="translate(-1231.000000, -201.000000)" fill-rule="nonzero">
            <g id="商品信息" transform="translate(120.000000, 175.000000)">
                <g id="编辑" transform="translate(1111.000000, 26.000000)">
                    <rect id="矩形" fill="#000000" opacity="0" x="0" y="0" width="12" height="12"></rect>
                    <path d="M9.625,12 L2.36666667,12 C1.05985636,11.9977957 0.00128437259,10.9384782 0,9.63166666 L0,2.36833334 C0.00128437259,1.06152179 1.05985636,0.00220433661 2.36666667,1.11022302e-15 L5.99566666,1.11022302e-15 C6.25726554,1.11022302e-15 6.46933332,0.212067793 6.46933332,0.473666666 C6.46933332,0.735265539 6.25726554,0.947333328 5.99566666,0.947333332 L2.36666667,0.947333332 C1.58286925,0.94935064 0.948132198,1.58453469 0.946666664,2.36833334 L0.946666664,9.63166666 C0.948132198,10.4154653 1.58286925,11.0506494 2.36666667,11.0526667 L9.625,11.0526667 C10.4087974,11.0506494 11.0435345,10.4154653 11.045,9.63166666 L11.045,6 C11.045,5.73858522 11.2569186,5.52666667 11.5183333,5.52666667 C11.7797481,5.52666667 11.9916667,5.73858522 11.9916667,6 L11.9916667,9.63166666 C11.9903823,10.9384782 10.9318103,11.9977957 9.625,12 Z" id="形状" fill="#007AFF"></path>
                    <g id="加" transform="translate(5.000000, 0.000000)">
                        <rect id="矩形" fill="#000000" opacity="0" x="0" y="0" width="6.91891892" height="6.91891892"></rect>
                        <path d="M6.53689559,3.68993442 L3.96571043,3.68993442 L3.96571043,6.45236475 C3.96571043,6.70992694 3.75671845,6.91891892 3.49915626,6.91891892 C3.24136056,6.91891892 3.03260209,6.70992694 3.03260209,6.45236475 L3.03260209,3.68993442 L0.461183426,3.68993442 C0.206423365,3.68993442 0,3.48351105 0,3.22875099 C0,2.97399093 0.206423365,2.76756757 0.461183426,2.76756757 L3.03260209,2.76756757 L3.03260209,0.466554169 C3.03260209,0.20899198 3.24136056,0 3.49915626,0 C3.75671845,0 3.96571043,0.20899198 3.96571043,0.466554169 L3.96571043,2.76756757 L6.53689559,2.76756757 C6.79165564,2.76756757 6.99831252,2.97399093 6.99831252,3.22875099 C6.99831252,3.48351105 6.79165564,3.68993442 6.53689559,3.68993442 Z" id="路径" fill="#007AFF"></path>
                    </g>
                </g>
            </g>
        </g>
    </g>
</svg>