<?xml version="1.0" encoding="UTF-8"?>
<svg width="39px" height="40px" viewBox="0 0 39 40" version="1.1" xmlns="http://www.w3.org/2000/svg" xmlns:xlink="http://www.w3.org/1999/xlink">
    <!-- Generator: Sketch 63 (92445) - https://sketch.com -->
    <title>编组 8</title>
    <desc>Created with Sketch.</desc>
    <g id="二级首页" stroke="none" stroke-width="1" fill="none" fill-rule="evenodd">
        <g transform="translate(-850.000000, -200.000000)" fill-rule="nonzero" id="常用功能">
            <g transform="translate(120.000000, 134.000000)">
                <g id="溯源标识" transform="translate(715.000000, 66.000000)">
                    <g id="编组-8" transform="translate(15.000000, 0.500000)">
                        <g id="编组-4" fill="#007AFF">
                            <path d="M0,4.3225 C0,1.93483335 1.93483335,0 4.3225,0 L34.6775,0 C37.0651666,0 39,1.93483335 39,4.3225 L39,34.6775 C39,37.0647508 37.0647508,39 34.6775,39 L4.3225,39 C3.17610172,39 2.07665693,38.5445951 1.26603094,37.7339691 C0.455404942,36.9233431 0,35.8238983 0,34.6775 L0,4.3225 Z" id="形状"></path>
                        </g>
                        <g id="星星" transform="translate(4.000000, 4.500000)">
                            <rect id="矩形" fill="#000000" opacity="0" x="0" y="0" width="30" height="30"></rect>
                            <path d="M27.80625,11.3259375 C27.66375,10.88625 27.283125,10.565625 26.8265625,10.5 L19.2975,9.4059375 L15.93,2.5828125 C15.725625,2.1684375 15.30375,1.9059375 14.8415625,1.9059375 C14.379375,1.9059375 13.9575,2.1684375 13.753125,2.5828125 L10.385625,9.4059375 L2.855625,10.5 C2.398125,10.5665625 2.0184375,10.88625 1.8759375,11.3259375 C1.7334375,11.765625 1.8525,12.2475 2.1834375,12.57 L7.6321875,17.8809375 L6.3459375,25.38 C6.268125,25.835625 6.4546875,26.2959375 6.82875,26.5678125 C7.2028125,26.8396875 7.6978125,26.8753125 8.1075,26.6596875 L14.8425,23.11875 L21.5765625,26.6596875 C21.75375,26.7525 21.9478125,26.799375 22.1409375,26.799375 C22.3921875,26.799375 22.6434375,26.7215625 22.854375,26.5678125 C23.2284375,26.2959375 23.415,25.835625 23.3371875,25.38 L22.0509375,17.8809375 L27.4996875,12.57 C27.8296875,12.2475 27.94875,11.765625 27.80625,11.3259375 Z" id="路径" fill="#FFFFFF"></path>
                        </g>
                    </g>
                </g>
            </g>
        </g>
    </g>
</svg>