<?xml version="1.0" encoding="UTF-8"?>
<svg width="10px" height="10px" viewBox="0 0 10 10" version="1.1" xmlns="http://www.w3.org/2000/svg" xmlns:xlink="http://www.w3.org/1999/xlink">
    <!-- Generator: Sketch 63 (92445) - https://sketch.com -->
    <title>导出</title>
    <desc>Created with Sketch.</desc>
    <g id="标识管理" stroke="none" stroke-width="1" fill="none" fill-rule="evenodd">
        <g id="溯源标识管理" transform="translate(-1182.000000, -617.000000)" fill="#007BFF" fill-rule="nonzero">
            <g id="下部分" transform="translate(120.000000, 315.000000)">
                <g id="编组">
                    <g id="指上效果" transform="translate(1048.000000, 201.000000)">
                        <g id="导出" transform="translate(19.000000, 106.000000) scale(1, -1) translate(-19.000000, -106.000000) translate(14.000000, 101.000000)">
                            <rect id="矩形" opacity="0" x="0" y="0" width="10" height="10"></rect>
                            <path d="M5.49800797,6.28154051 L5.49800797,0.70385126 C5.49800797,0.428809053 5.27504221,0.205843291 5,0.205843291 C4.72495779,0.205843291 4.50199203,0.428809053 4.50199203,0.70385126 L4.50199203,6.28154051 C4.50199203,6.55658271 4.72495779,6.77954848 5,6.77954848 C5.27504221,6.77954848 5.49800797,6.55658271 5.49800797,6.28154051 Z" id="路径"></path>
                            <path d="M5.01062417,1.40703852 L7.83532536,4.22310757 C8.03188955,4.40559474 8.33766927,4.39963017 8.52696742,4.20961634 C8.71626557,4.01960251 8.72107622,3.71380245 8.5378486,3.51792829 L5.01062417,0 L1.46082337,3.53917663 C1.28164796,3.73576307 1.28858534,4.03845214 1.47657906,4.22662337 C1.66457278,4.41479461 1.96725516,4.42201767 2.16401062,4.24302789 L5.01062417,1.40770252 L5.01062417,1.40703852 Z M0.76427623,9.96679947 L9.23572377,9.96679947 C9.23572377,9.4687915 9.23572377,9.32949829 9.23572377,8.97078354 L0.76427623,8.97078354 C0.76427623,8.97078354 0.76427623,9.6479187 0.76427623,9.96679947 Z" id="形状"></path>
                        </g>
                    </g>
                </g>
            </g>
        </g>
    </g>
</svg>