<?xml version="1.0" encoding="UTF-8"?>
<svg width="12px" height="12px" viewBox="0 0 12 12" version="1.1" xmlns="http://www.w3.org/2000/svg" xmlns:xlink="http://www.w3.org/1999/xlink">
    <!-- Generator: Sketch 63 (92445) - https://sketch.com -->
    <title>新建</title>
    <desc>Created with Sketch.</desc>
    <g id="公证办理" stroke="none" stroke-width="1" fill="none" fill-rule="evenodd">
        <g transform="translate(-262.000000, -285.000000)" fill-rule="nonzero" id="下部分">
            <g transform="translate(119.000000, 265.000000)">
                <g id="按钮" transform="translate(21.000000, 17.000000)">
                    <g id="批量授权" transform="translate(120.000000, 0.000000)">
                        <g id="新建" transform="translate(0.000000, 1.000000)">
                            <rect id="矩形" fill="#007BFF" opacity="0" x="0" y="0" width="16" height="16"></rect>
                            <path d="M13.3333333,4 L4.66666667,4 C4.3,4 4,4.3 4,4.66666667 L4,13.3333333 C4,13.7 4.3,14 4.66666667,14 L13.3333333,14 C13.7,14 14,13.7 14,13.3333333 L14,4.66666667 C14,4.3 13.7,4 13.3333333,4 Z M2.66666667,2.66666667 L10.6666667,2.66666667 L10.6666667,3.33333333 L11.3333333,3.33333333 L11.3333333,2.66666667 C11.3333333,2.3 11.0333333,2 10.6666667,2 L2.66666667,2 C2.3,2 2,2.3 2,2.66666667 L2,10.6666667 C2,11.0333333 2.3,11.3333333 2.66666667,11.3333333 L3.33333333,11.3333333 L3.33333333,10.6666667 L2.66666667,10.6666667 L2.66666667,2.66666667 Z" id="形状" fill="#007BFF"></path>
                            <path d="M11.4581218,9.56812249 C10.9978354,9.10776873 10.3084225,9.01324984 9.75398076,9.28441767 L8.47565276,8.00608967 L8.94910907,7.53252562 C9.07989231,7.40174239 9.07989231,7.18969095 8.94910907,7.05906931 C8.81827197,6.92828608 8.60642253,6.92828608 8.47565276,7.05906931 L8.00218298,7.53263335 L7.5286728,7.05906931 L8.00223684,6.5856534 C8.13300661,6.45503176 8.13300661,6.24302072 8.00223684,6.11223748 C7.87145361,5.98146771 7.6595907,5.98146771 7.52882093,6.11223748 L6.58178711,7.05912318 L9.23235604,9.70966517 C8.78129393,10.2918606 8.82289086,11.1350031 9.3571199,11.6691244 C9.64684409,11.9587947 10.0272358,12.1036097 10.4076276,12.1036097 C10.7880732,12.1036097 11.168465,11.9587947 11.4581353,11.6691244 C12.037476,11.0898915 12.037476,10.1473015 11.4581218,9.56812249 Z M10.9846655,11.1956547 C10.6665682,11.5138059 10.1486736,11.5138059 9.83053582,11.1956547 C9.51243846,10.8773553 9.51243846,10.3598243 9.83053582,10.0415384 C9.98963836,9.88247625 10.1986868,9.80283745 10.4076276,9.80283745 C10.6165818,9.80283745 10.8256303,9.88248972 10.9847329,10.0415384 C11.3028033,10.3598243 11.3028033,10.8773553 10.9846655,11.1956547 Z" id="形状" fill="#FFFFFF"></path>
                        </g>
                    </g>
                </g>
            </g>
        </g>
    </g>
</svg>