<?xml version="1.0" encoding="UTF-8"?>
<svg width="27px" height="37px" viewBox="0 0 27 37" version="1.1" xmlns="http://www.w3.org/2000/svg" xmlns:xlink="http://www.w3.org/1999/xlink">
    <!-- Generator: Sketch 63 (92445) - https://sketch.com -->
    <title>客服</title>
    <desc>Created with Sketch.</desc>
    <g id="二级首页" stroke="none" stroke-width="1" fill="none" fill-rule="evenodd">
        <g transform="translate(-1383.000000, -268.000000)" fill-rule="nonzero" id="客服">
            <g transform="translate(1350.000000, 264.000000)">
                <g transform="translate(33.000000, 4.000000)">
                    <circle id="椭圆形" fill="#007AFF" cx="13.0800655" cy="0.979278701" r="1"></circle>
                    <path d="M24.5242528,20.6574578 L24.5242528,17.1833082 C24.5242536,16.0527902 24.0751575,14.9685751 23.2757606,14.1691781 C22.4763636,13.3697812 21.3921485,12.9206851 20.2616305,12.9206859 L16.7874809,12.9206859 C16.7874809,12.4517286 15.2804341,12.0675017 13.3654473,12.0310875 L13.3654473,7.84146829 C14.6124419,7.68436174 15.5224579,6.58490536 15.4437501,5.3305198 C15.3650424,4.07613424 14.3247318,3.09905319 13.0678794,3.09905319 C11.8110269,3.09905319 10.7707164,4.07613424 10.6920086,5.3305198 C10.6133008,6.58490536 11.5233168,7.68436174 12.7703115,7.84146829 L12.7703115,12.0310875 C10.8553246,12.0675033 9.34827779,12.4517221 9.34827779,12.9206859 L5.2789908,12.9206859 C4.14847281,12.9206851 3.06425764,13.3697812 2.26486071,14.1691781 C1.46546377,14.9685751 1.01636764,16.0527902 1.01636851,17.1833082 L1.01636851,20.6574578 C0.523338858,20.6574578 0.123664002,22.3227785 0.123664002,24.3770602 C0.123664002,26.4313419 0.523338858,28.0966626 1.01636851,28.0966626 L1.01636851,30.5696641 C1.01636764,31.7001821 1.46546377,32.7843973 2.26486071,33.5837942 C3.06425764,34.3831911 4.14847281,34.8322864 5.2789908,34.8322864 L20.2616305,34.8322864 C21.3921485,34.8322864 22.4763636,34.3831911 23.2757606,33.5837942 C24.0751575,32.7843973 24.5242536,31.7001821 24.5242528,30.5696641 L24.5242528,28.0966626 C25.0172824,28.0966626 25.4169573,26.4313402 25.4169573,24.3770602 C25.4169573,22.3227801 25.0172824,20.6574578 24.5242528,20.6574578 Z" id="路径" fill="#007AFF"></path>
                    <path d="M6.13243703,14.2597353 L19.4081941,14.2597353 C21.4941751,14.2597353 23.1851968,15.77163 23.1851968,17.6366466 L23.1851968,29.5061347 C23.1851968,30.4017473 22.7872638,31.2606779 22.0789384,31.8939716 C21.370613,32.5272654 20.4099175,32.8830461 19.4081941,32.8830461 L6.13242714,32.8830461 C4.04644615,32.8830461 2.35542445,31.3711514 2.35542445,29.5061347 L2.35542445,17.6366555 C2.35542445,15.7716343 4.04645096,14.2597353 6.13243703,14.2597353 L6.13243703,14.2597353 Z" id="路径" fill="#E5F1FF"></path>
                    <path d="M8.00922021,24.1538836 C6.53082934,24.1522182 5.33277211,22.954161 5.33110669,21.4757701 C5.33110669,21.3935988 5.39771971,21.3269857 5.47989105,21.3269857 C5.56206238,21.3269857 5.62867541,21.3935988 5.62867541,21.4757701 C5.62867541,22.7905078 6.69448088,23.8563133 8.00921856,23.8563133 C9.32395624,23.8563133 10.3897617,22.7905078 10.3897617,21.4757701 C10.3897617,21.3935988 10.4563747,21.3269857 10.5385461,21.3269857 C10.6207174,21.3269857 10.6873304,21.3935988 10.6873304,21.4757701 C10.685665,22.9541597 9.48760979,24.1522164 8.00922021,24.1538836 Z" id="路径" fill="#007AFF"></path>
                    <path d="M12.7703115,29.212542 C11.6204498,29.2112525 10.6886241,28.2794275 10.6873337,27.1295659 C10.6873337,27.0473945 10.7539468,26.9807815 10.8361181,26.9807815 C10.9182894,26.9807815 10.9849024,27.0473945 10.9849024,27.1295659 C10.9849024,28.11562 11.7842573,28.9149749 12.7703115,28.9149749 C13.7563656,28.9149749 14.5557205,28.11562 14.5557205,27.1295659 C14.5557205,27.047395 14.6223331,26.9807815 14.704504,26.9807815 C14.7866749,26.9807815 14.8532876,27.047395 14.8532876,27.1295659 C14.8519981,28.2794272 13.9201728,29.2112525 12.7703115,29.212542 L12.7703115,29.212542 Z" id="路径" fill="#007AFF"></path>
                    <path d="M17.5314011,24.1538836 C16.0530102,24.1522182 14.854953,22.954161 14.8532876,21.4757701 C14.8532876,21.3935988 14.9199006,21.3269857 15.0020719,21.3269857 C15.0842432,21.3269857 15.1508563,21.3935988 15.1508563,21.4757701 C15.1508563,22.7905078 16.2166617,23.8563133 17.5313994,23.8563133 C18.8461371,23.8563133 19.9119426,22.7905078 19.9119426,21.4757701 C19.9119426,21.3935988 19.9785556,21.3269857 20.0607269,21.3269857 C20.1428983,21.3269857 20.2095113,21.3935988 20.2095113,21.4757701 C20.2078205,22.9541492 19.0097801,24.152191 17.5314011,24.1538836 L17.5314011,24.1538836 Z" id="路径" fill="#007AFF"></path>
                    <circle id="椭圆形" fill="#007AFF" cx="8.00922021" cy="21.6245545" r="1.33905594"></circle>
                    <circle id="椭圆形" fill="#007AFF" cx="17.5314011" cy="21.6245545" r="1.33905594"></circle>
                    <path d="M14.8800174,35.6316169 L12.5145614,36.2536265 C11.5382338,36.5021694 10.5403342,35.9316033 10.2792548,34.9755518 C10.0181753,34.0195003 10.5916153,33.03573 11.5637669,32.771895 L13.9292229,32.1498854 C14.5472314,31.9870631 15.9367754,32.1517964 16.4003412,32.5846513 C18.1875057,31.8792137 21.8788881,29.8885309 22.865963,28.2652496 C23.2061655,27.3089383 23.3762668,26.2408816 23.3762668,25.0610794 L23.3762668,21.8569092 C23.3762668,20.677107 23.5241457,19.8522935 23.8199034,19.3824687 C23.8883155,19.3824687 24.495962,18.9734298 24.987343,18.972973 C25.3417381,18.972973 25.633182,18.9734298 25.9376518,19.3824687 C26.460906,19.9467109 26.3446588,20.5423813 26.3446588,21.4563879 C26.3446588,21.5078549 26.3413936,21.5585208 26.3350672,21.6081854 C26.3413936,21.6902923 26.3446588,21.7732002 26.3446588,21.8569092 L26.3446588,25.0610794 C26.3446588,26.131873 25.809569,27.0797066 24.987343,27.661664 C23.9191498,30.2660523 19.6196117,33.0560252 16.9601243,34.0908116 C16.8759531,34.8281453 15.6103416,35.4395963 14.8800174,35.6316169 Z" id="路径" fill="#007AFF"></path>
                </g>
            </g>
        </g>
    </g>
</svg>