<?xml version="1.0" encoding="UTF-8"?>
<svg width="39px" height="40px" viewBox="0 0 39 40" version="1.1" xmlns="http://www.w3.org/2000/svg" xmlns:xlink="http://www.w3.org/1999/xlink">
    <!-- Generator: Sketch 63 (92445) - https://sketch.com -->
    <title>编组 6</title>
    <desc>Created with Sketch.</desc>
    <g id="二级首页" stroke="none" stroke-width="1" fill="none" fill-rule="evenodd">
        <g transform="translate(-1204.000000, -200.000000)" fill-rule="nonzero" id="常用功能">
            <g transform="translate(120.000000, 134.000000)">
                <g id="被授权数据" transform="translate(1074.000000, 66.000000)">
                    <g id="编组-6" transform="translate(10.000000, 0.500000)">
                        <g id="编组-4" fill="#007AFF">
                            <path d="M0,4.3225 C0,1.93483335 1.93483335,0 4.3225,0 L34.6775,0 C37.0651666,0 39,1.93483335 39,4.3225 L39,34.6775 C39,37.0647508 37.0647508,39 34.6775,39 L4.3225,39 C3.17610172,39 2.07665693,38.5445951 1.26603094,37.7339691 C0.455404942,36.9233431 0,35.8238983 0,34.6775 L0,4.3225 Z" id="形状"></path>
                        </g>
                        <g id="数据" transform="translate(12.000000, 11.500000)" fill="#FFFFFF">
                            <rect id="矩形" opacity="0" x="0" y="0" width="22" height="22"></rect>
                            <path d="M22,10 L12,10 L12,0 C14.6125161,0.15638389 17.0642949,1.25107112 18.9074153,3.09340189 C20.7483926,4.9335904 21.8435491,7.38431877 22,10 Z" id="路径"></path>
                            <path d="M2.57801058,18.3622215 C0.916293735,16.4418676 0,14.0045774 0,11.4818431 C0,8.67073543 1.09357201,6.03051572 3.08207893,4.04394263 C4.86554109,2.26029905 7.23850692,1.18156851 9.76525631,1 L9.76525631,11.1934696 L2.57801058,18.3622215 Z M10.5234947,22 C13.3321806,22 15.9699959,20.9063168 17.9542311,18.9218798 C19.741965,17.133964 20.8205858,14.7607568 21,12.2337504 L10.8545566,12.2017089 L3.63740846,19.4217272 C5.55970301,21.0857492 7.99674532,22 10.5170871,22 L10.5234947,22 Z" id="形状"></path>
                        </g>
                        <g id="箭头" transform="translate(10.000000, 9.500000) scale(-1, 1) rotate(-50.000000) translate(-10.000000, -9.500000) translate(4.000000, 3.500000)" fill="#FFFFFF">
                            <rect id="矩形" opacity="0" x="0" y="0.5" width="11" height="11"></rect>
                            <path d="M3.58404559,8.5 C3.48148149,8.5 3.37891739,8.4618745 3.2991453,8.37291501 L0.119658122,4.81453534 C-0.0398860406,4.63661636 -0.0398860406,4.35702938 0.119658122,4.17911041 L3.2991453,0.63343924 C3.45868946,0.455520253 3.70940171,0.455520253 3.86894587,0.63343924 C4.02849002,0.811358227 4.02849003,1.0909452 3.86894587,1.26886418 L0.985754988,4.49682288 L3.88034188,7.72478158 C4.03988604,7.90270056 4.03988604,8.18228754 3.88034188,8.36020651 C3.8005698,8.449166 3.68660969,8.5 3.58404559,8.5 Z" id="路径"></path>
                            <path d="M7,8.37745483 C6.84784199,8.54084839 6.61375274,8.54084839 6.46159473,8.37745483 L3.11411851,4.78279654 C2.9619605,4.61940298 2.9619605,4.36802827 3.11411851,4.20463472 L6.46159473,0.62254517 C6.61375274,0.45915161 6.84784199,0.45915161 7,0.62254517" id="路径"></path>
                            <path d="M7,6.06142857 C7,6.06142857 11.4120089,5.66285714 10.6413035,11.5 C10.6413035,11.5 12.7188571,8.73571429 11.7359285,5.79142857 C11.2444642,4.72428571 10.6524732,2.52571429 7,2.5 L7,6.06142857 Z" id="路径"></path>
                        </g>
                    </g>
                </g>
            </g>
        </g>
    </g>
</svg>