<?xml version="1.0" encoding="UTF-8"?>
<svg width="12px" height="12px" viewBox="0 0 12 12" version="1.1" xmlns="http://www.w3.org/2000/svg" xmlns:xlink="http://www.w3.org/1999/xlink">
    <!-- Generator: Sketch 63 (92445) - https://sketch.com -->
    <title>新建</title>
    <desc>Created with Sketch.</desc>
    <g id="公证办理" stroke="none" stroke-width="1" fill="none" fill-rule="evenodd">
        <g transform="translate(-322.000000, -285.000000)" id="下部分">
            <g transform="translate(119.000000, 265.000000)">
                <g id="按钮" transform="translate(21.000000, 17.000000)">
                    <g id="取消授权" transform="translate(180.000000, 0.000000)">
                        <g id="新建" transform="translate(0.000000, 1.000000)">
                            <rect id="矩形" fill="#007BFF" fill-rule="nonzero" opacity="0" x="0" y="0" width="16" height="16"></rect>
                            <path d="M13.3333333,4 L4.66666667,4 C4.3,4 4,4.3 4,4.66666667 L4,13.3333333 C4,13.7 4.3,14 4.66666667,14 L13.3333333,14 C13.7,14 14,13.7 14,13.3333333 L14,4.66666667 C14,4.3 13.7,4 13.3333333,4 Z M2.66666667,2.66666667 L10.6666667,2.66666667 L10.6666667,3.33333333 L11.3333333,3.33333333 L11.3333333,2.66666667 C11.3333333,2.3 11.0333333,2 10.6666667,2 L2.66666667,2 C2.3,2 2,2.3 2,2.66666667 L2,10.6666667 C2,11.0333333 2.3,11.3333333 2.66666667,11.3333333 L3.33333333,11.3333333 L3.33333333,10.6666667 L2.66666667,10.6666667 L2.66666667,2.66666667 Z" id="形状" fill="#007BFF" fill-rule="nonzero"></path>
                            <path d="M8.57204402,7.522531 L8.57704894,7.528531 L8.57954344,7.52732766 L10.7736045,9.57332274 L10.0916062,10.3046764 L8.62204894,8.934531 L7.25740264,10.3985905 L6.52604894,9.71659211 L8.57204402,7.522531 Z" id="形状结合" fill="#FFFFFF" transform="translate(8.649827, 8.960561) rotate(-270.000000) translate(-8.649827, -8.960561) "></path>
                            <path d="M9.97707332,7.49616382 L9.98207824,7.50216382 L9.98457273,7.50096048 L12.1786338,9.54695556 L11.4966355,10.2783093 L10.0270782,8.90816382 L8.66243194,10.3722233 L7.93107824,9.69022492 L9.97707332,7.49616382 Z" id="形状结合" fill="#FFFFFF" transform="translate(10.054856, 8.934194) scale(-1, 1) rotate(-270.000000) translate(-10.054856, -8.934194) "></path>
                        </g>
                    </g>
                </g>
            </g>
        </g>
    </g>
</svg>