<?xml version="1.0" encoding="UTF-8"?>
<svg width="14px" height="14px" viewBox="0 0 14 14" version="1.1" xmlns="http://www.w3.org/2000/svg" xmlns:xlink="http://www.w3.org/1999/xlink">
    <!-- Generator: Sketch 63 (92445) - https://sketch.com -->
    <title>库容</title>
    <desc>Created with Sketch.</desc>
    <g id="导航" stroke="none" stroke-width="1" fill="none" fill-rule="evenodd">
        <g id="桌面端-HD" transform="translate(-332.000000, -87.000000)" fill="#000000" fill-rule="nonzero">
            <g id="运维监管">
                <g id="溯源应用及反馈" transform="translate(331.000000, 83.000000)">
                    <g id="库容" transform="translate(0.000000, 3.000000)">
                        <rect id="矩形" opacity="0" x="0" y="0" width="16" height="16"></rect>
                        <path d="M8.5,13.65 L12.9,11.1 C13.05,11 13.15,10.85 13.15,10.65 L13.15,5.6 L8.75,8.15 C8.65,8.2 8.6,8.25 8.5,8.25 L8.5,13.65 L8.5,13.65 Z M7.5,13.65 L7.5,8.25 C7.4,8.2 7.35,8.2 7.25,8.15 L2.85,5.6 L2.85,10.65 C2.85,10.85 2.95,11 3.1,11.1 L7.5,13.65 L7.5,13.65 Z M12.65,4.75 L8.25,2.2 C8.1,2.1 7.9,2.1 7.75,2.2 L3.35,4.75 L7.75,7.3 C7.9,7.4 8.1,7.4 8.25,7.3 L12.65,4.75 Z M13.4,4.05 C13.85,4.3 14.15,4.8 14.15,5.35 L14.15,10.7 C14.15,11.25 13.85,11.75 13.4,12 L8.75,14.65 C8.3,14.9 7.7,14.9 7.25,14.65 L2.6,12 C2.15,11.75 1.85,11.25 1.85,10.7 L1.85,5.35 C1.85,4.8 2.15,4.3 2.6,4.05 L7.25,1.4 C7.7,1.15 8.3,1.15 8.75,1.4 L13.4,4.05 Z" id="形状"></path>
                    </g>
                </g>
            </g>
        </g>
    </g>
</svg>