<?xml version="1.0" encoding="UTF-8"?>
<svg width="16px" height="16px" viewBox="0 0 16 16" version="1.1" xmlns="http://www.w3.org/2000/svg" xmlns:xlink="http://www.w3.org/1999/xlink">
    <!-- Generator: Sketch 63 (92445) - https://sketch.com -->
    <title>shangyeguanxi</title>
    <desc>Created with Sketch.</desc>
    <g id="导航" stroke="none" stroke-width="1" fill="none" fill-rule="evenodd">
        <g id="桌面端-HD" transform="translate(-766.000000, -85.000000)" fill="#000000" fill-rule="nonzero">
            <g id="运维监管">
                <g id="统计分析" transform="translate(766.000000, 82.000000)">
                    <g id="统计与分析">
                        <g id="shangyeguanxi" transform="translate(0.000000, 3.000000)">
                            <rect id="矩形" opacity="0" x="0" y="0" width="16" height="16"></rect>
                            <path d="M14.4020156,9.33948437 C14.4115469,9.19626562 14.4164687,9.05178125 14.4164687,8.90615625 C14.4164687,6.28925 12.8539844,4.0375625 10.6115625,3.03396875 C10.6281719,2.91409375 10.6369531,2.79170313 10.6369531,2.66725 C10.6369531,1.20492188 9.45214062,0.019359375 7.9908125,0.019359375 C6.52935937,0.019359375 5.34460937,1.20492188 5.34460937,2.66725 C5.34460937,2.791625 5.353375,2.91392188 5.36995312,3.03373438 C3.12720312,4.03721875 1.56432812,6.28903125 1.56432812,8.90615625 C1.56432812,9.0519375 1.56928125,9.1965625 1.5788125,9.33992187 C0.67721875,9.7619375 0.0525625,10.6775937 0.0525625,11.739375 C0.0525625,13.2017656 1.2371875,14.3872656 2.69864062,14.3872656 C3.20173437,14.3872656 3.67203125,14.2467344 4.07248438,14.0027813 C5.157,14.8386406 6.51571875,15.3357969 7.9905,15.3357969 C9.46657812,15.3357969 10.8263437,14.8377656 11.9112812,14.0005938 C12.31125,14.2435156 12.7807187,14.3833906 13.2828594,14.3833906 C14.744125,14.3833906 15.92875,13.1988281 15.92875,11.7375625 C15.92875,10.67625 15.3038437,9.76109375 14.4020156,9.33948437 Z M7.9908125,1.15329687 C8.8225625,1.15329687 9.49717187,1.82496875 9.50251562,2.65551562 C9.50253125,2.65882812 9.50264062,2.662125 9.50264062,2.6654375 C9.50264062,3.07632812 9.33871875,3.44885937 9.07278125,3.721375 C8.79825,4.00270313 8.41498437,4.17745313 7.9908125,4.17745313 C7.56665625,4.17745313 7.18339063,4.00270313 6.90882813,3.721375 C6.642875,3.44885938 6.47892188,3.07632813 6.47892188,2.6654375 C6.47892188,2.66207812 6.47903125,2.65873437 6.47904687,2.655375 C6.48445312,1.82490625 7.15915625,1.15329687 7.9908125,1.15329687 Z M2.69864062,13.2564531 C1.863625,13.2564531 1.1866875,12.5780625 1.1866875,11.7410625 C1.1866875,11.2530937 1.416875,10.8190625 1.77428125,10.5419063 C2.029875,10.3437031 2.3505,10.2256719 2.69865625,10.2256719 C2.75596875,10.2256719 2.81251562,10.2289844 2.86817187,10.2352031 C3.62342188,10.3196562 4.210625,10.9615625 4.210625,11.7410469 C4.210625,11.9889844 4.15121875,12.2229844 4.04590625,12.4295781 C3.86829688,12.7780156 3.56009375,13.0484063 3.18595313,13.1759844 C3.03303125,13.2281406 2.86914062,13.2564531 2.69864062,13.2564531 Z M7.9908125,14.1945937 C6.83904687,14.1945937 5.77340625,13.8264531 4.90465625,13.2017031 C5.18257812,12.7826719 5.34460937,12.28 5.34460937,11.7393906 C5.34460937,10.278375 4.16207812,9.09379688 2.7025625,9.09167187 C2.70035937,9.02889062 2.69884375,8.9659375 2.69884375,8.90260937 C2.69884375,6.77492187 3.95465625,4.94079687 5.76534375,4.10023437 C6.23635937,4.83110937 7.05707812,5.31509375 7.99082813,5.31509375 C8.92448437,5.31509375 9.74521875,4.83110937 10.2162344,4.10023437 C12.026875,4.94079687 13.2826875,6.77492187 13.2826875,8.90260937 C13.2826875,8.96592187 13.2811719,9.02889062 13.2789687,9.09167187 C11.8195,9.09378125 10.6369844,10.2775 10.6369844,11.7375781 C10.6369844,12.278625 10.7995156,12.7816406 11.0782344,13.2007344 C10.2092344,13.8260469 9.14310937,14.1945937 7.9908125,14.1945937 Z M13.2825469,13.2563906 C13.112,13.2563906 12.9480625,13.2280469 12.795125,13.1758594 C12.4212188,13.0482656 12.1131406,12.7779687 11.9355469,12.4297031 C11.8301719,12.2230625 11.7707188,11.989 11.7707188,11.741 C11.7707188,10.9614687 12.3581094,10.3195 13.1133594,10.2351719 C13.1689219,10.2289687 13.2253438,10.2256719 13.2825469,10.2256719 C13.6305781,10.2256719 13.9510937,10.3436094 14.206625,10.5416875 C14.5641719,10.8188281 14.7944531,11.2529375 14.7944531,11.741 C14.7944531,12.5779375 14.1175469,13.2563906 13.2825469,13.2563906 Z" id="形状"></path>
                        </g>
                    </g>
                </g>
            </g>
        </g>
    </g>
</svg>