<?xml version="1.0" encoding="UTF-8"?>
<svg width="14px" height="16px" viewBox="0 0 14 16" version="1.1" xmlns="http://www.w3.org/2000/svg" xmlns:xlink="http://www.w3.org/1999/xlink">
    <!-- Generator: Sketch 63 (92445) - https://sketch.com -->
    <title>监控</title>
    <desc>Created with Sketch.</desc>
    <g id="导航" stroke="none" stroke-width="1" fill="none" fill-rule="evenodd">
        <g id="桌面端-HD" transform="translate(-992.000000, -83.000000)" fill-rule="nonzero">
            <g id="运维监管">
                <g id="溯源服务管理-" transform="translate(991.000000, 82.000000)">
                    <g id="溯源服务管理">
                        <g id="监控" transform="translate(0.000000, 1.000000)">
                            <rect id="矩形" fill="#000000" opacity="0" x="0" y="0" width="16" height="16"></rect>
                            <path d="M4.62435678,14.8414159 L11.3634804,14.8414159 L11.3634804,16 L4.62435678,16 L4.62435678,14.8414159 Z M7.99391861,12.8922501 C4.43957588,12.8922501 1.54779355,10.0004678 1.54779355,6.44612506 C1.54779355,2.89178233 4.43957586,0 7.99391861,0 C11.5482614,0 14.4400437,2.89178231 14.4400437,6.44612506 C14.4400437,10.0004678 11.5482613,12.8922501 7.99391861,12.8922501 Z M7.99391861,1.15874006 C5.07843444,1.15874006 2.70653361,3.53064089 2.70653361,6.44612506 C2.70653361,9.36160923 5.07843444,11.7335101 7.99391861,11.7335101 C10.9094028,11.7335101 13.2814595,9.36160923 13.2814595,6.44612506 C13.2814595,3.53064089 10.9094028,1.15874006 7.99391861,1.15874006 Z" id="形状" fill="#333333"></path>
                            <path d="M6.49337284,6.44612506 C6.49331813,6.98231061 6.77933829,7.4777899 7.24367948,7.74589847 C7.70802067,8.01400704 8.28012841,8.01400704 8.74446959,7.74589847 C9.20881078,7.4777899 9.49483095,6.98231061 9.49477623,6.44612506 C9.49483095,5.90993951 9.20881078,5.41446023 8.74446959,5.14635166 C8.28012841,4.87824309 7.70802067,4.87824309 7.24367948,5.14635166 C6.77933829,5.41446023 6.49331813,5.90993951 6.49337284,6.44612506 Z" id="路径" fill="#333333"></path>
                        </g>
                    </g>
                </g>
            </g>
        </g>
    </g>
</svg>