<?xml version="1.0" encoding="UTF-8"?>
<svg width="16px" height="16px" viewBox="0 0 16 16" version="1.1" xmlns="http://www.w3.org/2000/svg" xmlns:xlink="http://www.w3.org/1999/xlink">
    <!-- Generator: Sketch 63 (92445) - https://sketch.com -->
    <title>工具</title>
    <desc>Created with Sketch.</desc>
    <g id="导航" stroke="none" stroke-width="1" fill="none" fill-rule="evenodd">
        <g id="桌面端-HD" transform="translate(-1218.000000, -83.000000)" fill-rule="nonzero">
            <g id="运维监管">
                <g id="编组-18" transform="translate(1218.000000, 82.000000)">
                    <g id="工具" transform="translate(0.000000, 1.000000)">
                        <rect id="矩形" fill="#000000" opacity="0" x="0" y="0" width="16" height="16"></rect>
                        <path d="M9.9,5.696875 C9.9,5.92519005 10.0218046,6.13616186 10.2195312,6.25031938 C10.4172579,6.36447691 10.6608671,6.36447691 10.8585938,6.25031938 C11.0563204,6.13616186 11.178125,5.92519005 11.178125,5.696875 C11.178125,5.46855995 11.0563204,5.25758814 10.8585938,5.14343062 C10.6608671,5.02927309 10.4172579,5.02927309 10.2195312,5.14343062 C10.0218046,5.25758814 9.9,5.46855995 9.9,5.696875 Z" id="路径" fill="#242424"></path>
                        <path d="M1.265625,3.178125 C1.515625,2.928125 1.9203125,2.928125 2.1703125,3.178125 L5.109375,6.1171875 C5.359375,6.3671875 5.359375,6.771875 5.109375,7.021875 C4.859375,7.271875 4.4546875,7.271875 4.2046875,7.021875 L1.265625,4.0828125 C1.015625,3.8328125 1.015625,3.428125 1.265625,3.178125 Z M9.7078125,7.2296875 C9.9578125,6.9796875 10.3625,6.9796875 10.6125,7.2296875 L15.03125,11.6484375 C15.28125,11.8984375 15.28125,12.303125 15.03125,12.553125 C14.78125,12.803125 14.3765625,12.803125 14.1265625,12.553125 L9.7078125,8.1359375 C9.4578125,7.8859375 9.4578125,7.4796875 9.7078125,7.2296875 Z M3.3578125,1.1609375 C3.6078125,0.9109375 4.0125,0.9109375 4.2625,1.1609375 L7.1578125,4.05625 C7.4078125,4.30625 7.4078125,4.7109375 7.1578125,4.9609375 C6.9078125,5.2109375 6.503125,5.2109375 6.253125,4.9609375 L3.3578125,2.065625 C3.1078125,1.8171875 3.1078125,1.4109375 3.3578125,1.1609375 Z" id="形状" fill="#242424"></path>
                        <path d="M4.20625,7.00625 C3.95625,6.75625 3.95625,6.3515625 4.20625,6.1015625 L6.2515625,4.05625 C6.5015625,3.80625 6.90625,3.80625 7.15625,4.05625 C7.40625,4.30625 7.40625,4.7109375 7.15625,4.9609375 L5.1109375,7.00625 C4.8609375,7.25625 4.45625,7.25625 4.20625,7.00625 L4.20625,7.00625 Z M14.9171875,11.5375 L14.0265625,12.4578125 C14.2078125,12.6109375 14.3234375,12.840625 14.3234375,13.096875 C14.3234375,13.559375 13.9484375,13.934375 13.4859375,13.934375 C13.2328125,13.934375 13.0078125,13.821875 12.853125,13.6453125 L11.93125,14.534375 C12.31875,14.953125 12.871875,15.2140625 13.4859375,15.2140625 C14.6546875,15.2140625 15.603125,14.265625 15.603125,13.096875 C15.603125,12.48125 15.3390625,11.925 14.9171875,11.5375 Z" id="形状" fill="#242424"></path>
                        <path d="M7.7453125,9.440625 C7.9953125,9.190625 8.4,9.190625 8.65,9.440625 L13.0625,13.8515625 C13.3125,14.1015625 13.3125,14.50625 13.0625,14.75625 C12.8125,15.00625 12.4078125,15.00625 12.1578125,14.75625 L7.7453125,10.3453125 C7.4953125,10.0953125 7.4953125,9.690625 7.7453125,9.440625 Z M5.853125,1.7796875 C8.0625,1.7796875 9.8578125,3.55 9.9,5.7484375 L11.178125,5.6625 C11.090625,2.796875 8.740625,0.5 5.853125,0.5 C5.0171875,0.5 4.2265625,0.6921875 3.5234375,1.0359375 L4.3421875,2.071875 C4.809375,1.8828125 5.31875,1.7796875 5.853125,1.7796875 Z" id="形状" fill="#242424"></path>
                        <path d="M7.8890625,9.521875 L7.85,9.35 C7.2609375,9.684375 6.5796875,9.8765625 5.853125,9.8765625 C3.6171875,9.8765625 1.8046875,8.0640625 1.8046875,5.828125 C1.8046875,5.159375 1.9671875,4.528125 2.2546875,3.971875 L1.4234375,3.5515625 L1.1453125,3.3328125 C0.75,4.0765625 0.525,4.9265625 0.525,5.828125 C0.525,8.7703125 2.9109375,11.15625 5.853125,11.15625 C6.915625,11.15625 7.90625,10.8453125 8.7375,10.309375 L7.8890625,9.521875 Z" id="路径" fill="#242424"></path>
                    </g>
                </g>
            </g>
        </g>
    </g>
</svg>