<?xml version="1.0" encoding="UTF-8"?>
<svg width="15px" height="14px" viewBox="0 0 15 14" version="1.1" xmlns="http://www.w3.org/2000/svg" xmlns:xlink="http://www.w3.org/1999/xlink">
    <!-- Generator: Sketch 63 (92445) - https://sketch.com -->
    <title>地图</title>
    <desc>Created with Sketch.</desc>
    <g id="标识管理流程" stroke="none" stroke-width="1" fill="none" fill-rule="evenodd" opacity="0.685291109">
        <g id="标识台账" transform="translate(-808.000000, -28.000000)" fill="#FFFFFF" fill-rule="nonzero">
            <g id="外框">
                <g id="编组-22备份-2" transform="translate(694.000000, 23.000000)">
                    <g id="编组-12" transform="translate(114.500000, 5.000000)">
                        <g id="地图">
                            <rect id="矩形" opacity="0" x="0" y="0" width="14" height="14"></rect>
                            <path d="M12.075,6.3 C11.7850505,6.3 11.55,6.54624339 11.55,6.85 C11.55,7.15375661 11.7850505,7.4 12.075,7.4 C12.5496,7.4 12.95,7.752 12.95,8.17 L12.95,12.13 C12.95,12.5472667 12.5496,12.9 12.075,12.9 L1.925,12.9 C1.4504,12.9 1.05,12.548 1.05,12.13 L1.05,8.17 C1.05,7.75273333 1.4504,7.4 1.925,7.4 C2.21494949,7.4 2.45,7.15375661 2.45,6.85 C2.45,6.54624339 2.21494949,6.3 1.925,6.3 C0.8631,6.3 0,7.13893333 0,8.17 L0,12.13 C0,13.1610667 0.8631,14 1.925,14 L12.075,14 C13.1369,14 14,13.1610667 14,12.13 L14,8.17 C14,7.13893333 13.1362,6.3 12.075,6.3 Z" id="路径"></path>
                            <path d="M6.65036293,11.9 C6.81339522,11.9 6.96788563,11.828835 7.07135678,11.7058354 C7.49380235,11.2027091 11.2,6.72630239 11.2,4.44239251 C11.2,4.14886894 10.9562689,3.91092108 10.6556114,3.91092108 C10.3549539,3.91092108 10.1112228,4.14886894 10.1112228,4.44239251 C10.1112228,5.87594811 7.90100503,8.9464357 6.64963707,10.516048 C5.39826912,8.9464357 3.18805137,5.87594811 3.18805137,4.44239251 C3.19045085,2.57694518 4.73885086,1.0652854 6.64963707,1.06294286 C7.63461753,1.06294286 8.57677275,1.47465606 9.23366834,2.19320543 C9.43370582,2.41236967 9.7778541,2.43172276 10.002345,2.23643175 C10.226836,2.04114075 10.2466595,1.70515838 10.046622,1.48599411 C9.18293556,0.541110388 7.94754643,0.00058007385 6.65036293,0 C4.13859322,0.00312329087 2.1031992,1.99022175 2.1,4.44239251 C2.1,6.72630239 5.80619765,11.2027091 6.22864322,11.7058354 C6.3323404,11.8289458 6.48709957,11.9001985 6.65036293,11.9 L6.65036293,11.9 Z" id="路径"></path>
                            <path d="M4.9,4.20032442 C4.90143002,5.35935038 5.84064962,6.29856998 6.99967558,6.3 C8.15895491,6.29892748 9.09856929,5.35960337 9.1,4.20032442 C9.09892686,3.04079208 8.15920792,2.10107314 6.99967558,2.1 C5.84039663,2.10143071 4.90107252,3.04104509 4.9,4.20032442 Z M8.12737525,4.20032442 C8.12737525,4.82127298 7.62192183,5.3267264 7.00032442,5.3267264 C6.37852624,5.32601128 5.87463757,4.8221226 5.87392245,4.20032442 C5.87392245,3.57872702 6.37937587,3.0732736 7.00032442,3.0732736 C7.62262908,3.07363155 8.1270173,3.57801977 8.12737525,4.20032442 Z" id="形状"></path>
                        </g>
                    </g>
                </g>
            </g>
        </g>
    </g>
</svg>