<?xml version="1.0" encoding="UTF-8"?>
<svg width="14px" height="14px" viewBox="0 0 14 14" version="1.1" xmlns="http://www.w3.org/2000/svg" xmlns:xlink="http://www.w3.org/1999/xlink">
    <!-- Generator: Sketch 63 (92445) - https://sketch.com -->
    <title>评价</title>
    <desc>Created with Sketch.</desc>
    <g id="企业线需求发布" stroke="none" stroke-width="1" fill="none" fill-rule="evenodd">
        <g id="发布需求详情" transform="translate(-991.000000, -615.000000)" fill-rule="nonzero">
            <g id="分页" transform="translate(120.000000, 600.000000)">
                <g id="编组-9" transform="translate(871.000000, 13.000000)">
                    <g id="评价" transform="translate(0.000000, 2.000000)">
                        <rect id="矩形" fill="#000000" opacity="0" x="0" y="0" width="14" height="14"></rect>
                        <path d="M12.16901,4.29996 L9.93405,3.97362 C9.7194267,3.94214352 9.53413392,3.80684705 9.4388,3.612 L8.43927,1.57696 C8.17733613,1.04037324 7.63245527,0.70002105 7.03535,0.70002105 C6.43824473,0.70002105 5.89336387,1.04037324 5.63143,1.57696 L4.6319,3.612 C4.53649087,3.80677177 4.35123031,3.94201853 4.13665,3.97355 L1.90169,4.29996 C1.31061565,4.38865149 0.820674257,4.80426867 0.63679343,5.3729715 C0.452912603,5.94167432 0.606780946,6.56545694 1.03404,6.98341 L2.65104,8.56751 C2.80616974,8.71973686 2.87679344,8.93835647 2.84004,9.15257 L2.45826,11.38935 C2.35490136,11.9791638 2.5966762,12.5763204 3.08126,12.92809 C3.56191729,13.2822446 4.20326985,13.3288063 4.73004,13.04779 L6.72903,11.99177 C6.92051922,11.8904175 7.14976078,11.8904175 7.34125,11.99177 L9.34045,13.048 C9.86940223,13.3254477 10.5100742,13.2780928 10.9924863,12.9258908 C11.4748984,12.5736888 11.7151581,11.9778883 11.61202,11.38956 L11.23031,9.15278 C11.1935319,8.9385647 11.2641592,8.71993384 11.41931,8.56772 L13.03631,6.98362 C13.4636821,6.56572919 13.6176697,5.9419294 13.4338576,5.37316519 C13.2500455,4.80440097 12.7601145,4.38870153 12.16901,4.29996 Z M12.40302,6.32996 L10.78602,7.91406 C10.4166957,8.27632882 10.248459,8.79665414 10.33578,9.30657 L10.71749,11.54335 C10.7630948,11.7913708 10.6611001,12.0433835 10.45583,12.18987 C10.2545642,12.3407802 9.98376466,12.36042 9.76283,12.24013 L7.76391,11.18411 C7.30807461,10.9432061 6.76262539,10.9432061 6.30679,11.18411 L4.30787,12.24034 C4.08691984,12.3605584 3.81616147,12.3409215 3.61487,12.19008 C3.40961595,12.0435775 3.30760394,11.7915896 3.35314,11.54356 L3.73492,9.30685 C3.8222281,8.79691397 3.653995,8.27657359 3.28468,7.91427 L1.66768,6.33017 C1.4882291,6.15452309 1.42363354,5.89245109 1.50090117,5.65352814 C1.57816879,5.41460519 1.78399019,5.23998597 2.03231,5.20268 L4.2672,4.87634 C4.77796853,4.80133169 5.21894796,4.47939576 5.446,4.01576 L6.44546,1.981 C6.55550111,1.75552035 6.78445138,1.61249473 7.03535,1.61249473 C7.28624862,1.61249473 7.51519889,1.75552035 7.62524,1.981 L8.62477,4.01604 C8.85185969,4.47956535 9.29280615,4.80139159 9.8035,4.87634 L12.03846,5.20261 C12.2867979,5.23991817 12.4926298,5.41455914 12.5698853,5.65350518 C12.6471408,5.89245121 12.5825104,6.1545374 12.40302,6.33017 L12.40302,6.32996 Z" id="形状" fill="#007AFF"></path>
                        <path d="M8.90561,5.95301 L6.76361,8.48778 L5.48016,7.43246 C5.38711761,7.35587764 5.26736338,7.31958676 5.14746123,7.33163742 C5.02755908,7.34368809 4.91742177,7.40308403 4.84148,7.49665 C4.68273814,7.69175114 4.71125344,7.97840498 4.90532,8.13841 L6.21488,9.21515 C6.58378386,9.5159342 7.12548749,9.4665046 7.43386,9.10392 L9.59763,6.54346 C9.75980439,6.35121416 9.73648521,6.064132 9.54541,5.90058 C9.45378961,5.82228415 9.33471265,5.78378734 9.2145975,5.79363048 C9.09448236,5.80347361 8.98326136,5.86084276 8.90561,5.95301 L8.90561,5.95301 Z" id="路径" fill="#007AFF"></path>
                    </g>
                </g>
            </g>
        </g>
    </g>
</svg>