<?xml version="1.0" encoding="UTF-8"?>
<svg width="14px" height="14px" viewBox="0 0 14 14" version="1.1" xmlns="http://www.w3.org/2000/svg" xmlns:xlink="http://www.w3.org/1999/xlink">
    <!-- Generator: Sketch 63 (92445) - https://sketch.com -->
    <title>搜索</title>
    <desc>Created with Sketch.</desc>
    <g id="标识管理流程" stroke="none" stroke-width="1" fill="none" fill-rule="evenodd">
        <g id="标识台账" transform="translate(-694.000000, -28.000000)" fill-rule="nonzero">
            <g id="外框">
                <g id="编组-22备份-2" transform="translate(694.000000, 23.000000)">
                    <g id="编组-21" transform="translate(0.000000, 5.000000)">
                        <g id="搜索">
                            <rect id="矩形" fill="#000000" opacity="0" x="0" y="0" width="14" height="14"></rect>
                            <path d="M12.9784375,12.2987813 L10.4041875,9.7243125 C11.2105987,8.75683188 11.6513897,7.53673969 11.6495312,6.27725 C11.6495312,3.29853125 9.23475,0.88375 6.25625,0.88375 C3.27753125,0.88375 0.86275,3.29875 0.86275,6.27725 C0.86275,9.25575 3.27753125,11.6705312 6.25625,11.6705312 C7.52946476,11.6724072 8.76195602,11.2219874 9.7339375,10.3995937 L12.3057812,12.9714375 C12.39875,13.0644062 12.520375,13.1107812 12.6422187,13.1107812 C12.834564,13.1107812 13.0079397,12.9948145 13.081565,12.817118 C13.1551904,12.6394216 13.1145803,12.4348745 12.9786562,12.2987813 L12.9784375,12.2987813 Z M6.25625,10.7191911 C5.07782481,10.7206817 3.94740413,10.2524219 3.11521875,9.4180625 C2.28085932,8.58587712 1.81259954,7.45545644 1.81409018,6.27703125 C1.81259954,5.09860606 2.28085932,3.96818538 3.11521875,3.136 C3.94747602,2.30180104 5.0778878,1.8337024 6.25625,1.83530836 C7.43467519,1.83381829 8.56509587,2.30207807 9.39728125,3.1364375 C10.2314862,3.96861905 10.6996572,5.09893689 10.6981911,6.27725 C10.6996817,7.45567519 10.2314219,8.58609587 9.3970625,9.41828125 C8.56489467,10.2525067 7.43456791,10.7206814 6.25625,10.7191911 L6.25625,10.7191911 Z" id="形状" fill="#BFC2CF"></path>
                        </g>
                    </g>
                </g>
            </g>
        </g>
    </g>
</svg>