<?xml version="1.0" encoding="UTF-8"?>
<svg width="13px" height="13px" viewBox="0 0 13 13" version="1.1" xmlns="http://www.w3.org/2000/svg" xmlns:xlink="http://www.w3.org/1999/xlink">
    <!-- Generator: Sketch 63 (92445) - https://sketch.com -->
    <title>编组 5</title>
    <desc>Created with Sketch.</desc>
    <g id="中心管理系统" stroke="none" stroke-width="1" fill="none" fill-rule="evenodd">
        <g id="高级设置上传附件" transform="translate(-702.000000, -30.000000)" fill-rule="nonzero">
            <g id="编组-5" transform="translate(702.000000, 30.000000)">
                <path d="M5.14285714,0 C7.98317871,0 10.2857143,2.30253557 10.2857143,5.14285714 C10.2857143,7.98317871 7.98317871,10.2857143 5.14285714,10.2857143 C2.30253557,10.2857143 0,7.98317871 0,5.14285714 C0,2.30253557 2.30253557,0 5.14285714,0 Z M5.14285714,1 C2.85482032,1 1,2.85482032 1,5.14285714 C1,7.43089396 2.85482032,9.28571429 5.14285714,9.28571429 C7.43089396,9.28571429 9.28571429,7.43089396 9.28571429,5.14285714 C9.28571429,2.85482032 7.43089396,1 5.14285714,1 Z" id="椭圆形" fill="#B0B4C3"></path>
                <polygon id="直线" fill="#AFB3C3" points="9 8.29289322 12.2785354 11.5714286 11.5714286 12.2785354 8.29289322 9"></polygon>
            </g>
        </g>
    </g>
</svg>