<?xml version="1.0" encoding="UTF-8"?>
<svg width="10px" height="12px" viewBox="0 0 10 12" version="1.1" xmlns="http://www.w3.org/2000/svg" xmlns:xlink="http://www.w3.org/1999/xlink">
    <!-- Generator: Sketch 63 (92445) - https://sketch.com -->
    <title>编组 10</title>
    <desc>Created with Sketch.</desc>
    <g id="中心管理系统" stroke="none" stroke-width="1" fill="none" fill-rule="evenodd">
        <g id="高级设置上传附件" transform="translate(-815.000000, -30.000000)">
            <g id="编组-6" transform="translate(814.000000, 30.000000)">
                <g id="编组-10" transform="translate(0.009033, 0.000000)">
                    <rect id="矩形" x="0" y="0" width="12" height="12"></rect>
                    <path d="M5.98960658,0 C8.75103033,0 10.9909668,1.75189506 10.9909668,4.6004657 C10.9909668,6.4995128 9.32384673,8.96602423 5.98960658,12 C2.66320219,9.00194731 1,6.53543588 1,4.6004657 C1,1.69801044 3.22818284,0 5.98960658,0 Z M5.98960658,1 C3.61130112,1 2,2.4060734 2,4.6004657 C2,6.01811503 3.24536351,8.00216794 5.79469364,10.4533405 L5.986,10.635 L6.1834829,10.4472093 C8.64901068,8.05826359 9.89996927,6.12779644 9.98617865,4.75114325 L9.9909668,4.6004657 C9.9909668,2.44197491 8.34720498,1 5.98960658,1 Z" id="椭圆形" fill="#B4B7C6" fill-rule="nonzero"></path>
                    <path d="M5.9909668,3 C7.0955363,3 7.9909668,3.8954305 7.9909668,5 C7.9909668,6.1045695 7.0955363,7 5.9909668,7 C4.8863973,7 3.9909668,6.1045695 3.9909668,5 C3.9909668,3.8954305 4.8863973,3 5.9909668,3 Z M5.9909668,4 C5.43868205,4 4.9909668,4.44771525 4.9909668,5 C4.9909668,5.55228475 5.43868205,6 5.9909668,6 C6.54325155,6 6.9909668,5.55228475 6.9909668,5 C6.9909668,4.44771525 6.54325155,4 5.9909668,4 Z" id="椭圆形" fill="#A8ACBD" fill-rule="nonzero"></path>
                </g>
            </g>
        </g>
    </g>
</svg>