<?xml version="1.0" encoding="UTF-8"?>
<svg width="12px" height="12px" viewBox="0 0 12 12" version="1.1" xmlns="http://www.w3.org/2000/svg" xmlns:xlink="http://www.w3.org/1999/xlink">
    <!-- Generator: Sketch 63 (92445) - https://sketch.com -->
    <title>编组 9</title>
    <desc>Created with Sketch.</desc>
    <g id="中心管理系统" stroke="none" stroke-width="1" fill="none" fill-rule="evenodd">
        <g id="高级设置上传附件" transform="translate(-949.000000, -30.000000)">
            <g id="编组-9" transform="translate(949.000000, 30.000000)">
                <path d="M6,0 C9.3137085,0 12,2.6862915 12,6 C12,9.3137085 9.3137085,12 6,12 C2.6862915,12 0,9.3137085 0,6 C0,2.6862915 2.6862915,0 6,0 Z M6,1 C3.23857625,1 1,3.23857625 1,6 C1,8.76142375 3.23857625,11 6,11 C8.76142375,11 11,8.76142375 11,6 C11,3.23857625 8.76142375,1 6,1 Z" id="椭圆形" fill="#AAAEBE" fill-rule="nonzero"></path>
                <path d="M5.99659879,2.64871029 C7.33496243,2.67279843 8.21376256,3.4167525 8.21376256,4.64840772 C8.21376256,5.44661349 7.64177647,6.07277461 6.58602766,6.56044162 L6.487,6.604 L6.48760114,7.45192174 L5.48760114,7.45192174 L5.48760114,5.92743657 L5.8075845,5.80395089 C6.78690817,5.42601733 7.21376256,5.02491932 7.21376256,4.64840772 C7.21376256,4.0068751 6.80812298,3.66347822 5.9786035,3.64854836 C5.63353668,3.64233778 5.3009347,3.8423485 5.12849258,4.20278101 C5.09512117,4.27253278 5.06309041,4.46008529 5.04712171,4.74362173 L5.04054402,4.8932876 L4.04106871,4.86089767 C4.057179,4.36377292 4.11116979,4.01208865 4.22641813,3.77120057 C4.56988721,3.05329342 5.26458576,2.63553537 5.99659879,2.64871029 Z" id="路径-3" fill="#AAAEBE" fill-rule="nonzero"></path>
                <circle id="椭圆形" fill="#ADB1C1" cx="6.00170898" cy="9.03100586" r="1"></circle>
            </g>
        </g>
    </g>
</svg>