<?xml version="1.0" encoding="UTF-8"?>
<svg width="15px" height="15px" viewBox="0 0 15 15" version="1.1" xmlns="http://www.w3.org/2000/svg" xmlns:xlink="http://www.w3.org/1999/xlink">
    <!-- Generator: Sketch 63 (92445) - https://sketch.com -->
    <title>风险点</title>
    <desc>Created with Sketch.</desc>
    <g id="导航" stroke="none" stroke-width="1" fill="none" fill-rule="evenodd">
        <g id="菜单" transform="translate(-228.000000, -609.000000)" fill-rule="nonzero">
            <g id="运营管理中心" transform="translate(0.000000, 525.000000)">
                <g id="溯源应用及反馈" transform="translate(228.000000, 82.000000)">
                    <g id="风险点" transform="translate(0.000000, 2.000000)">
                        <rect id="矩形" fill="#000000" opacity="0" x="0" y="0" width="15" height="15"></rect>
                        <path d="M8.01393632,8.20832191 L8.01393632,12.4151088 C8.01393632,13.3518996 7.23134143,14.1176471 6.27758149,14.1176471 C5.32293925,14.1176471 4.54034436,13.3518996 4.54034436,12.415986 C4.54034436,12.1475796 4.77238771,11.9160134 5.05383954,11.9160134 C5.33617366,11.9160134 5.56821701,12.1352996 5.56821702,12.415986 C5.58707743,12.7918115 5.89907948,13.0869032 6.27758149,13.0869032 C6.65608351,13.0869032 6.96808556,12.7918115 6.98694597,12.415986 L6.98694597,8.20744476 L1.39584812,8.20744476 C1.26107537,8.20931732 1.13111162,8.15770141 1.03473328,8.06402577 C0.93835493,7.97035012 0.883513875,7.84234363 0.882352941,7.70834933 C0.882352941,5.96984815 1.57936529,4.34011294 2.82692918,3.11211007 C3.90684328,2.03885908 5.33119072,1.37615981 6.85195497,1.23940573 L6.98694597,1.2271257 L6.98694597,0.498218298 C6.98694597,0.230689102 7.21898932,0 7.50044114,0 C7.78189297,0 8.01393632,0.21928623 8.01393632,0.498218298 L8.01393632,1.22800285 L8.14892732,1.24028288 C9.66837786,1.37997083 11.0912128,2.04225672 12.1721885,3.11298723 C13.4206347,4.34099008 14.1176471,5.97072529 14.1176471,7.70922647 C14.1109479,7.98650378 13.8831371,8.20792614 13.6041519,8.20832191 L8.01305403,8.20832191 L8.01393632,8.20832191 Z M13.0659525,7.21100817 L13.0412482,7.02856203 C12.6989181,4.28046709 10.3131948,2.21303656 7.50044114,2.21303656 C4.68680519,2.21303656 2.30196418,4.29186996 1.95963406,7.04084206 L1.93492983,7.21100817 L13.0659525,7.21100817 Z" id="形状" fill="#333333"></path>
                    </g>
                </g>
            </g>
        </g>
    </g>
</svg>