<?xml version="1.0" encoding="UTF-8"?>
<svg width="16px" height="15px" viewBox="0 0 16 15" version="1.1" xmlns="http://www.w3.org/2000/svg" xmlns:xlink="http://www.w3.org/1999/xlink">
    <!-- Generator: Sketch 63 (92445) - https://sketch.com -->
    <title>icon奖杯</title>
    <desc>Created with Sketch.</desc>
    <g id="导航" stroke="none" stroke-width="1" fill="none" fill-rule="evenodd">
        <g id="菜单" transform="translate(-365.000000, -609.000000)" fill-rule="nonzero">
            <g id="运营管理中心" transform="translate(0.000000, 525.000000)">
                <g id="编组-20" transform="translate(365.000000, 82.000000)">
                    <g id="我的溯源">
                        <g id="icon奖杯" transform="translate(0.000000, 2.000000)">
                            <rect id="矩形" fill="#000000" opacity="0" x="0" y="0" width="16" height="16"></rect>
                            <path d="M12.904375,2.47 C12.904375,1.395625 12.025625,0.516875 10.95125,0.516875 L5.090625,0.516875 C4.01625,0.516875 3.1375,1.395625 3.1375,2.47 C-0.2075,2.47 0.2075,2.47 0.2075,4.423125 C0.2075,6.035 1.52625,7.353125 3.1375,7.353125 C3.259375,7.353125 3.3575,7.32875 3.479375,7.32875 C4.13875,9.233125 5.676875,10.966875 7.5325,11.235625 L7.5325,13.5025 L6.0675,13.5025 C5.79875,13.5025 5.579375,13.7225 5.579375,13.990625 C5.579375,14.259375 5.799375,14.47875 6.0675,14.47875 L9.974375,14.47875 C10.243125,14.47875 10.4625,14.25875 10.4625,13.990625 C10.4625,13.721875 10.2425,13.5025 9.974375,13.5025 L8.509375,13.5025 L8.509375,11.235625 C10.365,10.966875 11.90375,9.2575 12.5625,7.32875 C12.66,7.32875 12.7825,7.353125 12.904375,7.353125 C14.51625,7.353125 15.834375,6.034375 15.834375,4.423125 C15.81,2.47 16.225625,2.47 12.904375,2.47 Z M3.1375,6.376875 C2.063125,6.376875 1.184375,5.498125 1.184375,4.42375 C1.184375,3.349375 1.20875,3.446875 3.1375,3.446875 L3.1375,6.376875 Z M11.928125,5.4 C11.928125,7.54875 10.194375,10.28375 8.02125,10.28375 C5.8725,10.28375 4.114375,7.54875 4.114375,5.4 L4.114375,2.47 C4.114375,1.981875 4.626875,1.493125 5.09125,1.493125 L10.95125,1.493125 C11.415,1.493125 11.928125,1.98125 11.928125,2.47 L11.928125,5.4 L11.928125,5.4 Z M12.904375,6.376875 L12.904375,3.446875 C14.833125,3.446875 14.8575,3.349375 14.8575,4.42375 C14.83375,5.498125 13.97875,6.376875 12.904375,6.376875 Z" id="形状" fill="#333333"></path>
                        </g>
                    </g>
                </g>
            </g>
        </g>
    </g>
</svg>