<?xml version="1.0" encoding="UTF-8"?>
<svg width="14px" height="14px" viewBox="0 0 14 14" version="1.1" xmlns="http://www.w3.org/2000/svg" xmlns:xlink="http://www.w3.org/1999/xlink">
    <!-- Generator: Sketch 63 (92445) - https://sketch.com -->
    <title>资讯</title>
    <desc>Created with Sketch.</desc>
    <g id="导航" stroke="none" stroke-width="1" fill="none" fill-rule="evenodd">
        <g id="菜单" transform="translate(-504.000000, -610.000000)" fill-rule="nonzero">
            <g id="运营管理中心" transform="translate(0.000000, 525.000000)">
                <g id="溯源应用及反馈" transform="translate(503.000000, 82.000000)">
                    <g id="资讯" transform="translate(0.000000, 2.000000)">
                        <rect id="矩形" fill="#000000" opacity="0" x="0" y="0" width="16" height="16"></rect>
                        <path d="M6.75,9.5 L4.75,9.5 C4.475,9.5 4.25,9.725 4.25,10 C4.25,10.275 4.475,10.5 4.75,10.5 L6.75,10.5 C7.025,10.5 7.25,10.275 7.25,10 C7.25,9.725 7.025,9.5 6.75,9.5 Z M9.25,7 L4.75,7 C4.475,7 4.25,7.225 4.25,7.5 C4.25,7.775 4.475,8 4.75,8 L9.25,8 C9.525,8 9.75,7.775 9.75,7.5 C9.75,7.225 9.525,7 9.25,7 Z M9.25,4.5 L4.75,4.5 C4.475,4.5 4.25,4.725 4.25,5 C4.25,5.275 4.475,5.5 4.75,5.5 L9.25,5.5 C9.525,5.5 9.75,5.275 9.75,5 C9.75,4.725 9.525,4.5 9.25,4.5 Z M12.25,4 L12.25,3.5 C12.25,2.4 11.35,1.5 10.25,1.5 L3.75,1.5 C2.65,1.5 1.75,2.4 1.75,3.5 L1.75,12.5 C1.75,13.6 2.65,14.5 3.75,14.5 L12.25,14.5 C13.35,14.5 14.25,13.6 14.25,12.5 L14.25,6 C14.25,4.9 13.35,4 12.25,4 Z M13.25,12.5 C13.25,13.05 12.8,13.5 12.25,13.5 L3.75,13.5 C3.2,13.5 2.75,13.05 2.75,12.5 L2.75,3.5 C2.75,2.95 3.2,2.5 3.75,2.5 L10.25,2.5 C10.8,2.5 11.25,2.95 11.25,3.5 L11.25,11 C11.25,11.275 11.475,11.5 11.75,11.5 C12.025,11.5 12.25,11.275 12.25,11 L12.25,5 C12.8,5 13.25,5.45 13.25,6 L13.25,12.5 Z" id="形状" fill="#333333"></path>
                    </g>
                </g>
            </g>
        </g>
    </g>
</svg>