<?xml version="1.0" encoding="UTF-8"?>
<svg width="15px" height="15px" viewBox="0 0 15 15" version="1.1" xmlns="http://www.w3.org/2000/svg" xmlns:xlink="http://www.w3.org/1999/xlink">
    <!-- Generator: Sketch 63 (92445) - https://sketch.com -->
    <title>帮助</title>
    <desc>Created with Sketch.</desc>
    <g id="导航" stroke="none" stroke-width="1" fill="none" fill-rule="evenodd">
        <g id="菜单" transform="translate(-642.000000, -609.000000)" fill-rule="nonzero">
            <g id="运营管理中心" transform="translate(0.000000, 525.000000)">
                <g id="统计分析" transform="translate(641.000000, 82.000000)">
                    <g id="统计与分析">
                        <g id="帮助" transform="translate(0.000000, 1.000000)">
                            <rect id="矩形" fill="#333333" opacity="0" x="0" y="0" width="16" height="16"></rect>
                            <path d="M8.352,1.592 C4.528,1.592 1.41866667,4.70133333 1.41866667,8.52533333 C1.41866667,12.3493333 4.528,15.4586667 8.352,15.4586667 C12.176,15.4586667 15.2853333,12.3493333 15.2853333,8.52533333 C15.2853333,4.70133331 12.176,1.592 8.352,1.592 Z M8.352,14.392 C5.11733333,14.392 2.48533333,11.76 2.48533333,8.52533333 C2.48533333,5.29066666 5.11733333,2.65866667 8.352,2.65866667 C11.5866667,2.65866667 14.2186667,5.29066667 14.2186667,8.52533333 C14.2186667,11.76 11.5866667,14.392 8.352,14.392 Z M8.77866667,5.37866667 C8.176,5.256 7.56266667,5.4 7.09333333,5.78133333 C6.62500945,6.16028722 6.35343146,6.73089513 6.35466248,7.33333333 C6.35466248,7.62666666 6.59466667,7.86666666 6.888,7.86666667 C7.18133333,7.86666669 7.42133333,7.62666667 7.42133333,7.33333333 C7.42133333,7.05066666 7.54666666,6.78666666 7.76533333,6.608 C7.98666666,6.42666667 8.26933333,6.36 8.56,6.42133333 C8.90933333,6.49333333 9.192,6.776 9.264,7.12533333 C9.376,7.664 9.04533333,8.08 8.65866667,8.21333333 C8.15673765,8.3863664 7.81955881,8.85841677 7.81866667,9.38933333 L7.81866667,9.67733333 C7.81866667,9.97066666 8.05866667,10.2106667 8.352,10.2106667 C8.64533333,10.2106667 8.88533333,9.97066667 8.88533333,9.67733333 L8.88533333,9.38933333 C8.88533333,9.31466666 8.93333333,9.24533333 9.008,9.22133333 C9.95466667,8.89333333 10.5146667,7.89866666 10.3093333,6.90666667 C10.152,6.152 9.536,5.536 8.77866667,5.37866667 L8.77866667,5.37866667 Z M8.352,10.64 C8.05866667,10.64 7.81866667,10.88 7.81866667,11.1733333 L7.81866667,11.4666667 C7.81866667,11.76 8.05866667,12 8.352,12 C8.64533333,12 8.88533333,11.76 8.88533333,11.4666667 L8.88533333,11.1733333 C8.88533333,10.8787815 8.64655186,10.64 8.352,10.64 Z" id="形状" fill="#000000"></path>
                        </g>
                    </g>
                </g>
            </g>
        </g>
    </g>
</svg>