<?xml version="1.0" encoding="UTF-8"?>
<svg width="14px" height="14px" viewBox="0 0 14 14" version="1.1" xmlns="http://www.w3.org/2000/svg" xmlns:xlink="http://www.w3.org/1999/xlink">
    <!-- Generator: Sketch 63 (92445) - https://sketch.com -->
    <title>个人中心</title>
    <desc>Created with Sketch.</desc>
    <g id="导航" stroke="none" stroke-width="1" fill="none" fill-rule="evenodd">
        <g id="菜单" transform="translate(-779.000000, -610.000000)" fill-rule="nonzero">
            <g id="运营管理中心" transform="translate(0.000000, 525.000000)">
                <g id="编组-18" transform="translate(778.000000, 82.000000)">
                    <g id="个人中心" transform="translate(0.000000, 2.000000)">
                        <rect id="矩形" fill="#333333" opacity="0" x="0" y="0" width="16" height="16"></rect>
                        <path d="M10.3534666,8.76981884 C11.4241508,8.03725333 12.1286103,6.79743511 12.1286103,5.38854927 C12.1286103,3.10623588 10.2689161,1.24654175 7.98660275,1.24654175 C5.70422295,1.24654175 3.87270123,3.10623588 3.87270123,5.36036025 C3.87270123,6.7692627 4.57716077,8.00906431 5.64786155,8.74162983 C3.22461972,9.69965759 1.53402644,12.038349 1.53402644,14.7715205 L1.53402644,14.7715205 L2.68927764,14.7715205 L2.68927764,14.7715205 C2.68927764,12.066538 4.74617859,9.81239702 7.36667705,9.50243416 C7.39486605,9.50243416 8.09925917,9.44607275 8.69097928,9.50243416 L8.74734069,9.50243416 L8.74734069,9.50243416 C11.3114777,9.86870863 13.2838615,12.0665214 13.2838615,14.7433315 L13.2838615,14.7433315 L14.4672851,14.7433315 L14.4672851,14.7433315 C14.4390795,12.038349 12.7484862,9.69965759 10.3534666,8.76981884 L10.3534666,8.76981884 Z M7.98660275,8.45987258 C6.26775405,8.45987258 4.88710702,7.07919234 4.88710702,5.36036023 C4.88710702,3.64157794 6.26777066,2.26093091 7.98660275,2.26093091 C9.70536844,2.26093091 11.0860321,3.64157794 11.0860321,5.36036023 C11.0860321,7.07920895 9.70536844,8.45987258 7.98660275,8.45987258 L7.98660275,8.45987258 Z" id="形状" fill="#000000"></path>
                    </g>
                </g>
            </g>
        </g>
    </g>
</svg>