<?xml version="1.0" encoding="UTF-8"?>
<svg width="15px" height="15px" viewBox="0 0 15 15" version="1.1" xmlns="http://www.w3.org/2000/svg" xmlns:xlink="http://www.w3.org/1999/xlink">
    <!-- Generator: Sketch 63 (92445) - https://sketch.com -->
    <title>信息</title>
    <desc>Created with Sketch.</desc>
    <g id="导航" stroke="none" stroke-width="1" fill="none" fill-rule="evenodd">
        <g id="菜单" transform="translate(-1054.000000, -609.000000)">
            <g id="运营管理中心" transform="translate(0.000000, 525.000000)">
                <g id="统计分析" transform="translate(1054.000000, 82.000000)">
                    <g id="信息" transform="translate(0.000000, 2.000000)">
                        <rect id="矩形" fill="#000000" fill-rule="nonzero" opacity="0" x="0" y="0" width="15" height="15"></rect>
                        <path d="M15,6.45399973 C15,6.16501466 14.7654614,5.93047607 14.4764763,5.93047607 C14.1874913,5.93047607 13.9529527,6.16501468 13.9529527,6.45399973 C13.9529527,9.43599051 11.0589139,11.8609521 7.49895296,11.8609521 C7.49057659,11.8609521 7.4822002,11.8630462 7.47172973,11.8630462 C7.35655453,11.858858 7.23928522,11.8902694 7.14086278,11.9656569 L5.18707247,13.4315231 L5.18707247,12.0368561 C5.18707247,12.0117269 5.18288427,11.9865978 5.17869609,11.9614687 C5.21848389,11.7206478 5.08446183,11.4756387 4.84782914,11.3855926 C2.54013681,10.5102611 1.04704733,8.5753176 1.04704733,6.45399973 C1.04704733,6.16501466 0.812508721,5.93047607 0.523523672,5.93047607 C0.234538608,5.93047607 1.46484366e-08,6.16501468 1.46484366e-08,6.45399973 C1.46484366e-08,8.90618457 1.61454699,11.1363954 4.14211923,12.2253246 L4.14211923,14.4764763 C4.14211923,14.6754153 4.25310625,14.8555075 4.4311043,14.9455535 C4.50439761,14.9832473 4.5860673,15 4.66564291,15 C4.77662993,15 4.88761693,14.9644004 4.9797571,14.8952953 L7.63506913,12.9038113 C11.7080832,12.8430825 15,9.97417283 15,6.45399973 L15,6.45399973 Z" id="路径" fill="#333333" fill-rule="nonzero"></path>
                        <path d="M0.647075244,5.20173111 C0.917213452,5.30015355 1.21876308,5.15984922 1.31718554,4.88761692 C2.13388245,2.62599469 4.67611336,1.04704733 7.49476477,1.04704733 C10.3259807,1.04704733 12.8703057,2.63437107 13.6807204,4.90855787 C13.7561078,5.12215553 13.959235,5.25617758 14.1728326,5.25617758 C14.2314673,5.25617758 14.2901019,5.24570711 14.3487365,5.22476616 C14.6209689,5.1284378 14.7633673,4.82898227 14.6670389,4.55674997 C13.695379,1.83233282 10.8139048,0 7.49476477,0 C4.1902834,0 1.31299734,1.82186235 0.33296105,4.53162083 C0.234538608,4.80385314 0.376937036,5.10330867 0.647075244,5.20173111 L0.647075244,5.20173111 Z" id="路径" fill="#333333" fill-rule="nonzero"></path>
                        <circle id="椭圆形" fill="#333333" cx="3.69482422" cy="6.53808594" r="1"></circle>
                        <circle id="椭圆形" fill="#333333" cx="7.69482422" cy="6.53808594" r="1"></circle>
                        <circle id="椭圆形" fill="#333333" cx="11.6948242" cy="6.53808594" r="1"></circle>
                    </g>
                </g>
            </g>
        </g>
    </g>
</svg>